NewtSerifBold-Italic.ufo
<glyph name="exclam" format="1">
  <advance width="314"/>
  <unicode hex="0021"/>
  <outline>
    <contour>
      <point x="184" y="585" type="curve"/>
      <point x="187" y="608"/>
      <point x="199" y="614"/>
      <point x="214" y="620" type="curve"/>
      <point x="245" y="630"/>
      <point x="312" y="633"/>
      <point x="332" y="632" type="curve" smooth="yes"/>
      <point x="348" y="631"/>
      <point x="360" y="620"/>
      <point x="354" y="598" type="curve" smooth="yes"/>
      <point x="345" y="568"/>
      <point x="283" y="475"/>
      <point x="263" y="428" type="curve" smooth="yes"/>
      <point x="232" y="352"/>
      <point x="203" y="271"/>
      <point x="184" y="202" type="curve" smooth="yes"/>
      <point x="178" y="183"/>
      <point x="165" y="176"/>
      <point x="148" y="173" type="curve"/>
      <point x="130" y="168"/>
      <point x="122" y="186"/>
      <point x="125" y="203" type="curve" smooth="yes"/>
      <point x="137" y="264"/>
      <point x="159" y="364"/>
      <point x="167" y="425" type="curve" smooth="yes"/>
      <point x="169" y="444"/>
      <point x="181" y="570"/>
    </contour>
    <contour>
      <point x="124" y="122" type="curve" smooth="yes"/>
      <point x="157" y="124"/>
      <point x="196" y="107"/>
      <point x="196" y="72" type="curve" smooth="yes"/>
      <point x="196" y="15"/>
      <point x="151" y="-3"/>
      <point x="120" y="-8" type="curve"/>
      <point x="65" y="-13"/>
      <point x="42" y="19"/>
      <point x="42" y="50" type="curve" smooth="yes"/>
      <point x="42" y="93"/>
      <point x="86" y="119"/>
    </contour>
  </outline>
</glyph>
<glyph name="quotedbl" format="1">
  <advance width="371"/>
  <unicode hex="0022"/>
  <outline>
    <contour>
      <point x="249" y="616" type="curve" smooth="yes"/>
      <point x="269" y="616"/>
      <point x="271" y="598"/>
      <point x="263" y="578" type="curve" smooth="yes"/>
      <point x="244" y="529"/>
      <point x="199" y="466"/>
      <point x="178" y="393" type="curve" smooth="yes"/>
      <point x="173" y="374"/>
      <point x="149" y="365"/>
      <point x="139" y="364" type="curve"/>
      <point x="123" y="364"/>
      <point x="114" y="371"/>
      <point x="119" y="393" type="curve" smooth="yes"/>
      <point x="130" y="453"/>
      <point x="124" y="525"/>
      <point x="126" y="571" type="curve" smooth="yes"/>
      <point x="128" y="600"/>
      <point x="141" y="603"/>
      <point x="157" y="609" type="curve" smooth="yes"/>
      <point x="173" y="614"/>
      <point x="236" y="616"/>
    </contour>
    <contour>
      <point x="434" y="616" type="curve" smooth="yes"/>
      <point x="455" y="616"/>
      <point x="456" y="598"/>
      <point x="449" y="578" type="curve"/>
      <point x="429" y="529"/>
      <point x="384" y="466"/>
      <point x="364" y="393" type="curve" smooth="yes"/>
      <point x="359" y="374"/>
      <point x="334" y="365"/>
      <point x="324" y="364" type="curve"/>
      <point x="308" y="364"/>
      <point x="300" y="371"/>
      <point x="304" y="393" type="curve" smooth="yes"/>
      <point x="315" y="453"/>
      <point x="309" y="525"/>
      <point x="311" y="571" type="curve" smooth="yes"/>
      <point x="313" y="600"/>
      <point x="327" y="603"/>
      <point x="343" y="609" type="curve" smooth="yes"/>
      <point x="358" y="614"/>
      <point x="421" y="616"/>
    </contour>
  </outline>
</glyph>
<glyph name="numbersign" format="1">
  <advance width="472"/>
  <unicode hex="0023"/>
  <outline>
    <contour>
      <point x="69" y="428" type="curve"/>
      <point x="82" y="443"/>
      <point x="95" y="451"/>
      <point x="117" y="451" type="curve" smooth="yes"/>
      <point x="157" y="451" type="line" smooth="yes"/>
      <point x="172" y="451"/>
      <point x="170" y="459"/>
      <point x="173" y="471" type="curve" smooth="yes"/>
      <point x="203" y="591" type="line" smooth="yes"/>
      <point x="207" y="609"/>
      <point x="222" y="615"/>
      <point x="237" y="617" type="curve"/>
      <point x="245" y="620"/>
      <point x="262" y="617"/>
      <point x="256" y="592" type="curve" smooth="yes"/>
      <point x="256" y="589"/>
      <point x="244" y="544"/>
      <point x="231" y="478" type="curve"/>
      <point x="226" y="458"/>
      <point x="222" y="455"/>
      <point x="244" y="455" type="curve" smooth="yes"/>
      <point x="280" y="455"/>
      <point x="316" y="455"/>
      <point x="347" y="458" type="curve" smooth="yes"/>
      <point x="361" y="459"/>
      <point x="363" y="462"/>
      <point x="367" y="481" type="curve" smooth="yes"/>
      <point x="378" y="524"/>
      <point x="386" y="565"/>
      <point x="393" y="591" type="curve" smooth="yes"/>
      <point x="397" y="609"/>
      <point x="412" y="615"/>
      <point x="428" y="617" type="curve"/>
      <point x="434" y="620"/>
      <point x="453" y="617"/>
      <point x="448" y="592" type="curve" smooth="yes"/>
      <point x="447" y="589"/>
      <point x="438" y="545"/>
      <point x="423" y="481" type="curve" smooth="yes"/>
      <point x="419" y="465"/>
      <point x="416" y="463"/>
      <point x="434" y="463" type="curve"/>
      <point x="443" y="465"/>
      <point x="453" y="465"/>
      <point x="462" y="465" type="curve"/>
      <point x="488" y="471"/>
      <point x="510" y="476"/>
      <point x="508" y="456" type="curve"/>
      <point x="506" y="448"/>
      <point x="486" y="417"/>
      <point x="467" y="408" type="curve" smooth="yes"/>
      <point x="454" y="402"/>
      <point x="440" y="402"/>
      <point x="427" y="402" type="curve" smooth="yes"/>
      <point x="407" y="402"/>
      <point x="406" y="400"/>
      <point x="401" y="380" type="curve" smooth="yes"/>
      <point x="387" y="322"/>
      <point x="381" y="295"/>
      <point x="369" y="239" type="curve"/>
      <point x="364" y="222"/>
      <point x="363" y="221"/>
      <point x="379" y="221" type="curve" smooth="yes"/>
      <point x="389" y="221"/>
      <point x="399" y="222"/>
      <point x="411" y="224" type="curve" smooth="yes"/>
      <point x="439" y="228"/>
      <point x="459" y="235"/>
      <point x="455" y="215" type="curve" smooth="yes"/>
      <point x="453" y="206"/>
      <point x="435" y="181"/>
      <point x="416" y="173" type="curve"/>
      <point x="404" y="166"/>
      <point x="386" y="157"/>
      <point x="373" y="157" type="curve" smooth="yes"/>
      <point x="354" y="157"/>
      <point x="349" y="153"/>
      <point x="344" y="130" type="curve"/>
      <point x="338" y="93"/>
      <point x="335" y="75"/>
      <point x="329" y="56" type="curve"/>
      <point x="323" y="29"/>
      <point x="320" y="17"/>
      <point x="309" y="8" type="curve" smooth="yes"/>
      <point x="295" y="-4"/>
      <point x="263" y="-8"/>
      <point x="249" y="-10" type="curve" smooth="yes"/>
      <point x="232" y="-13"/>
      <point x="242" y="9"/>
      <point x="244" y="15" type="curve"/>
      <point x="257" y="38"/>
      <point x="267" y="74"/>
      <point x="273" y="97" type="curve" smooth="yes"/>
      <point x="276" y="108"/>
      <point x="278" y="122"/>
      <point x="281" y="142" type="curve"/>
      <point x="284" y="153"/>
      <point x="285" y="157"/>
      <point x="267" y="157" type="curve" smooth="yes"/>
      <point x="240" y="156"/>
      <point x="206" y="155"/>
      <point x="177" y="155" type="curve"/>
      <point x="161" y="154"/>
      <point x="157" y="153"/>
      <point x="154" y="134" type="curve" smooth="yes"/>
      <point x="147" y="100"/>
      <point x="139" y="66"/>
      <point x="136" y="56" type="curve" smooth="yes"/>
      <point x="130" y="32"/>
      <point x="128" y="17"/>
      <point x="118" y="8" type="curve" smooth="yes"/>
      <point x="103" y="-4"/>
      <point x="72" y="-8"/>
      <point x="59" y="-10" type="curve" smooth="yes"/>
      <point x="41" y="-13"/>
      <point x="52" y="9"/>
      <point x="54" y="15" type="curve" smooth="yes"/>
      <point x="65" y="38"/>
      <point x="74" y="74"/>
      <point x="82" y="97" type="curve" smooth="yes"/>
      <point x="86" y="108"/>
      <point x="88" y="117"/>
      <point x="91" y="136" type="curve" smooth="yes"/>
      <point x="91" y="142"/>
      <point x="94" y="154"/>
      <point x="82" y="155" type="curve"/>
      <point x="35" y="155" type="line"/>
      <point x="13" y="154"/>
      <point x="9" y="169"/>
      <point x="19" y="183" type="curve"/>
      <point x="28" y="199"/>
      <point x="44" y="210"/>
      <point x="66" y="210" type="curve" smooth="yes"/>
      <point x="91" y="210" type="line" smooth="yes"/>
      <point x="110" y="210"/>
      <point x="111" y="220"/>
      <point x="114" y="226" type="curve"/>
      <point x="130" y="283"/>
      <point x="134" y="315"/>
      <point x="151" y="380" type="curve"/>
      <point x="151" y="386"/>
      <point x="151" y="398"/>
      <point x="142" y="399" type="curve" smooth="yes"/>
      <point x="126" y="400"/>
      <point x="109" y="400"/>
      <point x="88" y="399" type="curve" smooth="yes"/>
      <point x="66" y="398"/>
      <point x="59" y="409"/>
    </contour>
    <contour>
      <point x="209" y="380" type="curve" smooth="yes"/>
      <point x="194" y="319"/>
      <point x="188" y="285"/>
      <point x="174" y="225" type="curve" smooth="yes"/>
      <point x="171" y="210"/>
      <point x="172" y="211"/>
      <point x="187" y="211" type="curve" smooth="yes"/>
      <point x="222" y="212"/>
      <point x="255" y="213"/>
      <point x="285" y="215" type="curve" smooth="yes"/>
      <point x="303" y="216"/>
      <point x="303" y="218"/>
      <point x="307" y="237" type="curve" smooth="yes"/>
      <point x="343" y="380" type="line"/>
      <point x="346" y="398"/>
      <point x="347" y="400"/>
      <point x="332" y="400" type="curve" smooth="yes"/>
      <point x="302" y="400"/>
      <point x="264" y="400"/>
      <point x="231" y="399" type="curve" smooth="yes"/>
      <point x="216" y="399"/>
      <point x="212" y="394"/>
    </contour>
  </outline>
</glyph>
<glyph name="dollar" format="1">
  <advance width="374"/>
  <unicode hex="0024"/>
  <outline>
    <contour>
      <point x="-6" y="125" type="curve" smooth="yes"/>
      <point x="-4" y="162"/>
      <point x="47" y="205"/>
      <point x="83" y="222" type="curve" smooth="yes"/>
      <point x="92" y="226"/>
      <point x="109" y="226"/>
      <point x="115" y="222" type="curve" smooth="yes"/>
      <point x="120" y="219"/>
      <point x="124" y="206"/>
      <point x="119" y="199" type="curve" smooth="yes"/>
      <point x="112" y="187"/>
      <point x="107" y="172"/>
      <point x="109" y="149" type="curve" smooth="yes"/>
      <point x="113" y="116"/>
      <point x="141" y="113"/>
      <point x="164" y="113" type="curve" smooth="yes"/>
      <point x="200" y="113"/>
      <point x="226" y="130"/>
      <point x="228" y="165" type="curve" smooth="yes"/>
      <point x="231" y="218"/>
      <point x="184" y="247"/>
      <point x="128" y="287" type="curve" smooth="yes"/>
      <point x="82" y="320"/>
      <point x="69" y="358"/>
      <point x="77" y="423" type="curve"/>
      <point x="82" y="473"/>
      <point x="141" y="535"/>
      <point x="212" y="548" type="curve"/>
      <point x="236" y="554"/>
      <point x="235" y="553"/>
      <point x="244" y="577" type="curve"/>
      <point x="256" y="617" type="line" smooth="yes"/>
      <point x="262" y="636"/>
      <point x="274" y="643"/>
      <point x="291" y="646" type="curve"/>
      <point x="310" y="651"/>
      <point x="317" y="633"/>
      <point x="314" y="616" type="curve" smooth="yes"/>
      <point x="305" y="572" type="line"/>
      <point x="299" y="549"/>
      <point x="303" y="550"/>
      <point x="323" y="545" type="curve"/>
      <point x="374" y="535"/>
      <point x="392" y="513"/>
      <point x="389" y="492" type="curve" smooth="yes"/>
      <point x="386" y="471"/>
      <point x="365" y="438"/>
      <point x="319" y="417" type="curve" smooth="yes"/>
      <point x="306" y="411"/>
      <point x="293" y="409"/>
      <point x="287" y="412" type="curve"/>
      <point x="280" y="414"/>
      <point x="276" y="420"/>
      <point x="278" y="435" type="curve" smooth="yes"/>
      <point x="280" y="465"/>
      <point x="265" y="492"/>
      <point x="235" y="492" type="curve" smooth="yes"/>
      <point x="197" y="492"/>
      <point x="180" y="471"/>
      <point x="179" y="446" type="curve" smooth="yes"/>
      <point x="178" y="416"/>
      <point x="214" y="391"/>
      <point x="255" y="361" type="curve" smooth="yes"/>
      <point x="338" y="301"/>
      <point x="346" y="256"/>
      <point x="331" y="185" type="curve" smooth="yes"/>
      <point x="321" y="137"/>
      <point x="279" y="82"/>
      <point x="205" y="58" type="curve" smooth="yes"/>
      <point x="184" y="51"/>
      <point x="168" y="56"/>
      <point x="161" y="30" type="curve" smooth="yes"/>
      <point x="157" y="17"/>
      <point x="153" y="3"/>
      <point x="147" y="-13" type="curve"/>
      <point x="141" y="-33"/>
      <point x="129" y="-40"/>
      <point x="112" y="-43" type="curve" smooth="yes"/>
      <point x="93" y="-47"/>
      <point x="86" y="-29"/>
      <point x="89" y="-13" type="curve" smooth="yes"/>
      <point x="97" y="29" type="line" smooth="yes"/>
      <point x="101" y="46"/>
      <point x="93" y="51"/>
      <point x="70" y="58" type="curve" smooth="yes"/>
      <point x="35" y="70"/>
      <point x="-8" y="84"/>
    </contour>
  </outline>
</glyph>
<glyph name="percent" format="1">
  <advance width="778"/>
  <unicode hex="0025"/>
  <outline>
    <contour>
      <point x="150" y="221" type="curve" smooth="yes"/>
      <point x="81" y="221"/>
      <point x="52" y="277"/>
      <point x="56" y="339" type="curve"/>
      <point x="56" y="383"/>
      <point x="78" y="449"/>
      <point x="100" y="487" type="curve" smooth="yes"/>
      <point x="154" y="577"/>
      <point x="226" y="619"/>
      <point x="273" y="619" type="curve" smooth="yes"/>
      <point x="329" y="619"/>
      <point x="362" y="577"/>
      <point x="359" y="495" type="curve" smooth="yes"/>
      <point x="358" y="455"/>
      <point x="337" y="391"/>
      <point x="314" y="352" type="curve" smooth="yes"/>
      <point x="282" y="295"/>
      <point x="206" y="221"/>
    </contour>
    <contour>
      <point x="221" y="520" type="curve" smooth="yes"/>
      <point x="201" y="520"/>
      <point x="175" y="482"/>
      <point x="168" y="398" type="curve" smooth="yes"/>
      <point x="163" y="332"/>
      <point x="178" y="327"/>
      <point x="195" y="327" type="curve" smooth="yes"/>
      <point x="229" y="327"/>
      <point x="242" y="375"/>
      <point x="247" y="460" type="curve" smooth="yes"/>
      <point x="248" y="487"/>
      <point x="248" y="520"/>
    </contour>
    <contour>
      <point x="163" y="-27" type="curve" smooth="yes"/>
      <point x="144" y="-20"/>
      <point x="144" y="-7"/>
      <point x="179" y="38" type="curve" smooth="yes"/>
      <point x="237" y="114"/>
      <point x="481" y="460"/>
      <point x="533" y="535" type="curve" smooth="yes"/>
      <point x="547" y="555"/>
      <point x="568" y="586"/>
      <point x="579" y="608" type="curve"/>
      <point x="587" y="619"/>
      <point x="615" y="620"/>
      <point x="618" y="605" type="curve" smooth="yes"/>
      <point x="622" y="577"/>
      <point x="616" y="549"/>
      <point x="610" y="529" type="curve" smooth="yes"/>
      <point x="603" y="501"/>
      <point x="593" y="487"/>
      <point x="574" y="463" type="curve" smooth="yes"/>
      <point x="532" y="412"/>
      <point x="303" y="108"/>
      <point x="230" y="13" type="curve" smooth="yes"/>
      <point x="201" y="-24"/>
      <point x="175" y="-31"/>
    </contour>
    <contour>
      <point x="547" y="-19" type="curve" smooth="yes"/>
      <point x="478" y="-19"/>
      <point x="449" y="38"/>
      <point x="453" y="100" type="curve"/>
      <point x="453" y="144"/>
      <point x="476" y="210"/>
      <point x="497" y="248" type="curve"/>
      <point x="551" y="338"/>
      <point x="624" y="380"/>
      <point x="670" y="380" type="curve" smooth="yes"/>
      <point x="726" y="380"/>
      <point x="759" y="338"/>
      <point x="757" y="256" type="curve" smooth="yes"/>
      <point x="755" y="215"/>
      <point x="734" y="152"/>
      <point x="711" y="113" type="curve" smooth="yes"/>
      <point x="679" y="56"/>
      <point x="604" y="-19"/>
    </contour>
    <contour>
      <point x="618" y="281" type="curve" smooth="yes"/>
      <point x="598" y="281"/>
      <point x="572" y="243"/>
      <point x="566" y="159" type="curve" smooth="yes"/>
      <point x="561" y="93"/>
      <point x="575" y="88"/>
      <point x="593" y="88" type="curve" smooth="yes"/>
      <point x="626" y="88"/>
      <point x="639" y="136"/>
      <point x="645" y="221" type="curve" smooth="yes"/>
      <point x="646" y="248"/>
      <point x="646" y="281"/>
    </contour>
  </outline>
</glyph>
<glyph name="ampersand" format="1">
  <advance width="483"/>
  <unicode hex="0026"/>
  <outline>
    <contour>
      <point x="227" y="-8" type="curve" smooth="yes"/>
      <point x="100" y="-8"/>
      <point x="42" y="41"/>
      <point x="42" y="139" type="curve" smooth="yes"/>
      <point x="42" y="242"/>
      <point x="141" y="324"/>
      <point x="218" y="348" type="curve" smooth="yes"/>
      <point x="228" y="352"/>
      <point x="232" y="355"/>
      <point x="232" y="359" type="curve" smooth="yes"/>
      <point x="232" y="364"/>
      <point x="228" y="369"/>
      <point x="216" y="371" type="curve"/>
      <point x="176" y="382"/>
      <point x="157" y="402"/>
      <point x="157" y="448" type="curve" smooth="yes"/>
      <point x="158" y="542"/>
      <point x="285" y="609"/>
      <point x="391" y="609" type="curve" smooth="yes"/>
      <point x="442" y="609"/>
      <point x="522" y="591"/>
      <point x="520" y="529" type="curve" smooth="yes"/>
      <point x="519" y="492"/>
      <point x="482" y="459"/>
      <point x="450" y="444" type="curve" smooth="yes"/>
      <point x="435" y="438"/>
      <point x="411" y="431"/>
      <point x="400" y="436" type="curve" smooth="yes"/>
      <point x="393" y="439"/>
      <point x="387" y="453"/>
      <point x="395" y="464" type="curve"/>
      <point x="402" y="476"/>
      <point x="407" y="487"/>
      <point x="408" y="504" type="curve" smooth="yes"/>
      <point x="409" y="524"/>
      <point x="402" y="547"/>
      <point x="364" y="547" type="curve" smooth="yes"/>
      <point x="326" y="547"/>
      <point x="296" y="515"/>
      <point x="293" y="460" type="curve" smooth="yes"/>
      <point x="289" y="400"/>
      <point x="322" y="397"/>
      <point x="334" y="397" type="curve" smooth="yes"/>
      <point x="344" y="397"/>
      <point x="367" y="398"/>
      <point x="373" y="399" type="curve" smooth="yes"/>
      <point x="386" y="401"/>
      <point x="393" y="382"/>
      <point x="386" y="366" type="curve" smooth="yes"/>
      <point x="380" y="354"/>
      <point x="370" y="338"/>
      <point x="352" y="337" type="curve" smooth="yes"/>
      <point x="250" y="332"/>
      <point x="186" y="251"/>
      <point x="186" y="149" type="curve" smooth="yes"/>
      <point x="186" y="90"/>
      <point x="215" y="58"/>
      <point x="253" y="58" type="curve" smooth="yes"/>
      <point x="306" y="58"/>
      <point x="328" y="94"/>
      <point x="330" y="133" type="curve" smooth="yes"/>
      <point x="331" y="148"/>
      <point x="321" y="175"/>
      <point x="282" y="161" type="curve" smooth="yes"/>
      <point x="271" y="157"/>
      <point x="257" y="152"/>
      <point x="248" y="154" type="curve"/>
      <point x="244" y="156"/>
      <point x="230" y="168"/>
      <point x="242" y="191" type="curve" smooth="yes"/>
      <point x="261" y="228"/>
      <point x="334" y="271"/>
      <point x="372" y="271" type="curve" smooth="yes"/>
      <point x="443" y="271"/>
      <point x="476" y="242"/>
      <point x="472" y="178" type="curve"/>
      <point x="468" y="76"/>
      <point x="330" y="-8"/>
    </contour>
  </outline>
</glyph>
<glyph name="quotesingle" format="1">
  <advance width="186"/>
  <unicode hex="0027"/>
  <outline>
    <contour>
      <point x="249" y="616" type="curve" smooth="yes"/>
      <point x="269" y="616"/>
      <point x="271" y="598"/>
      <point x="263" y="578" type="curve" smooth="yes"/>
      <point x="244" y="529"/>
      <point x="199" y="466"/>
      <point x="178" y="393" type="curve" smooth="yes"/>
      <point x="173" y="374"/>
      <point x="149" y="365"/>
      <point x="139" y="364" type="curve"/>
      <point x="123" y="364"/>
      <point x="114" y="371"/>
      <point x="119" y="393" type="curve" smooth="yes"/>
      <point x="130" y="453"/>
      <point x="124" y="525"/>
      <point x="126" y="571" type="curve" smooth="yes"/>
      <point x="128" y="600"/>
      <point x="141" y="603"/>
      <point x="157" y="609" type="curve" smooth="yes"/>
      <point x="173" y="614"/>
      <point x="236" y="616"/>
    </contour>
  </outline>
</glyph>
<glyph name="parenleft" format="1">
  <advance width="290"/>
  <unicode hex="0028"/>
  <outline>
    <contour>
      <point x="353" y="635" type="curve"/>
      <point x="358" y="626"/>
      <point x="357" y="611"/>
      <point x="338" y="592" type="curve"/>
      <point x="261" y="524"/>
      <point x="193" y="369"/>
      <point x="178" y="221" type="curve"/>
      <point x="167" y="141"/>
      <point x="167" y="29"/>
      <point x="193" y="-27" type="curve"/>
      <point x="199" y="-36"/>
      <point x="199" y="-51"/>
      <point x="189" y="-61" type="curve"/>
      <point x="178" y="-68"/>
      <point x="146" y="-54"/>
      <point x="131" y="-41" type="curve" smooth="yes"/>
      <point x="72" y="7"/>
      <point x="30" y="114"/>
      <point x="47" y="242" type="curve"/>
      <point x="74" y="415"/>
      <point x="189" y="554"/>
      <point x="285" y="620" type="curve" smooth="yes"/>
      <point x="304" y="633"/>
      <point x="344" y="646"/>
    </contour>
  </outline>
</glyph>
<glyph name="parenright" format="1">
  <advance width="290"/>
  <unicode hex="0029"/>
  <outline>
    <contour>
      <point x="3" y="-56" type="curve"/>
      <point x="-2" y="-47"/>
      <point x="-1" y="-32"/>
      <point x="19" y="-13" type="curve" smooth="yes"/>
      <point x="95" y="55"/>
      <point x="163" y="210"/>
      <point x="178" y="358" type="curve"/>
      <point x="189" y="439"/>
      <point x="189" y="551"/>
      <point x="163" y="606" type="curve"/>
      <point x="157" y="615"/>
      <point x="157" y="630"/>
      <point x="168" y="641" type="curve"/>
      <point x="178" y="647"/>
      <point x="210" y="633"/>
      <point x="225" y="620" type="curve" smooth="yes"/>
      <point x="284" y="572"/>
      <point x="326" y="465"/>
      <point x="309" y="338" type="curve"/>
      <point x="282" y="164"/>
      <point x="168" y="25"/>
      <point x="71" y="-41" type="curve" smooth="yes"/>
      <point x="52" y="-54"/>
      <point x="12" y="-67"/>
    </contour>
  </outline>
</glyph>
<glyph name="asterisk" format="1">
  <advance width="412"/>
  <unicode hex="002A"/>
  <outline>
    <contour>
      <point x="332" y="509" type="curve" smooth="yes"/>
      <point x="325" y="495"/>
      <point x="317" y="476"/>
      <point x="311" y="460" type="curve"/>
      <point x="308" y="449"/>
      <point x="314" y="445"/>
      <point x="326" y="447" type="curve" smooth="yes"/>
      <point x="361" y="455"/>
      <point x="390" y="460"/>
      <point x="417" y="474" type="curve" smooth="yes"/>
      <point x="455" y="494"/>
      <point x="463" y="465"/>
      <point x="452" y="431" type="curve" smooth="yes"/>
      <point x="441" y="399"/>
      <point x="423" y="386"/>
      <point x="390" y="386" type="curve" smooth="yes"/>
      <point x="374" y="386"/>
      <point x="350" y="391"/>
      <point x="325" y="391" type="curve" smooth="yes"/>
      <point x="316" y="391"/>
      <point x="311" y="384"/>
      <point x="316" y="373" type="curve" smooth="yes"/>
      <point x="332" y="340"/>
      <point x="359" y="311"/>
      <point x="381" y="290" type="curve" smooth="yes"/>
      <point x="406" y="267"/>
      <point x="405" y="234"/>
      <point x="353" y="236" type="curve"/>
      <point x="314" y="236"/>
      <point x="292" y="251"/>
      <point x="279" y="285" type="curve" smooth="yes"/>
      <point x="273" y="299"/>
      <point x="269" y="325"/>
      <point x="260" y="348" type="curve"/>
      <point x="256" y="361"/>
      <point x="247" y="359"/>
      <point x="239" y="354" type="curve" smooth="yes"/>
      <point x="210" y="336"/>
      <point x="172" y="308"/>
      <point x="148" y="284" type="curve"/>
      <point x="120" y="252"/>
      <point x="101" y="276"/>
      <point x="99" y="306" type="curve" smooth="yes"/>
      <point x="98" y="334"/>
      <point x="101" y="356"/>
      <point x="132" y="372" type="curve" smooth="yes"/>
      <point x="146" y="380"/>
      <point x="174" y="387"/>
      <point x="199" y="397" type="curve"/>
      <point x="211" y="403"/>
      <point x="207" y="413"/>
      <point x="201" y="418" type="curve" smooth="yes"/>
      <point x="170" y="440"/>
      <point x="131" y="450"/>
      <point x="102" y="459" type="curve" smooth="yes"/>
      <point x="63" y="472"/>
      <point x="86" y="504"/>
      <point x="109" y="517" type="curve"/>
      <point x="135" y="530"/>
      <point x="161" y="534"/>
      <point x="189" y="513" type="curve"/>
      <point x="200" y="503"/>
      <point x="218" y="487"/>
      <point x="236" y="466" type="curve"/>
      <point x="243" y="460"/>
      <point x="251" y="460"/>
      <point x="253" y="475" type="curve" smooth="yes"/>
      <point x="260" y="510"/>
      <point x="261" y="545"/>
      <point x="258" y="574" type="curve" smooth="yes"/>
      <point x="255" y="605"/>
      <point x="273" y="604"/>
      <point x="308" y="588" type="curve" smooth="yes"/>
      <point x="348" y="569"/>
      <point x="348" y="542"/>
    </contour>
  </outline>
</glyph>
<glyph name="plus" format="1">
  <advance width="455"/>
  <unicode hex="002B"/>
  <outline>
    <contour>
      <point x="72" y="261" type="curve" smooth="yes"/>
      <point x="51" y="261"/>
      <point x="46" y="276"/>
      <point x="53" y="292" type="curve" smooth="yes"/>
      <point x="60" y="308"/>
      <point x="77" y="312"/>
      <point x="98" y="312" type="curve" smooth="yes"/>
      <point x="208" y="315" type="line" smooth="yes"/>
      <point x="224" y="316"/>
      <point x="226" y="319"/>
      <point x="230" y="335" type="curve" smooth="yes"/>
      <point x="237" y="365"/>
      <point x="244" y="391"/>
      <point x="253" y="431" type="curve" smooth="yes"/>
      <point x="258" y="453"/>
      <point x="273" y="465"/>
      <point x="290" y="472" type="curve"/>
      <point x="303" y="480"/>
      <point x="314" y="471"/>
      <point x="311" y="448" type="curve"/>
      <point x="306" y="428"/>
      <point x="296" y="390"/>
      <point x="285" y="339" type="curve"/>
      <point x="283" y="321"/>
      <point x="284" y="317"/>
      <point x="298" y="318" type="curve" smooth="yes"/>
      <point x="391" y="327" type="line" smooth="yes"/>
      <point x="416" y="330"/>
      <point x="439" y="337"/>
      <point x="435" y="317" type="curve" smooth="yes"/>
      <point x="433" y="311"/>
      <point x="416" y="279"/>
      <point x="397" y="270" type="curve"/>
      <point x="385" y="263"/>
      <point x="370" y="263"/>
      <point x="358" y="263" type="curve" smooth="yes"/>
      <point x="341" y="263"/>
      <point x="327" y="263"/>
      <point x="292" y="262" type="curve" smooth="yes"/>
      <point x="275" y="261"/>
      <point x="272" y="255"/>
      <point x="267" y="238" type="curve" smooth="yes"/>
      <point x="257" y="206"/>
      <point x="253" y="179"/>
      <point x="248" y="163" type="curve" smooth="yes"/>
      <point x="245" y="151"/>
      <point x="242" y="138"/>
      <point x="233" y="125" type="curve" smooth="yes"/>
      <point x="221" y="109"/>
      <point x="186" y="98"/>
      <point x="178" y="98" type="curve" smooth="yes"/>
      <point x="159" y="98"/>
      <point x="171" y="117"/>
      <point x="180" y="144" type="curve"/>
      <point x="190" y="183"/>
      <point x="199" y="204"/>
      <point x="210" y="239" type="curve" smooth="yes"/>
      <point x="215" y="255"/>
      <point x="210" y="262"/>
      <point x="194" y="262" type="curve" smooth="yes"/>
      <point x="140" y="261"/>
      <point x="94" y="261"/>
    </contour>
  </outline>
</glyph>
<glyph name="comma" format="1">
  <advance width="267"/>
  <unicode hex="002C"/>
  <outline>
    <contour>
      <point x="-6" y="-165" type="curve" smooth="yes"/>
      <point x="40" y="-134"/>
      <point x="69" y="-87"/>
      <point x="77" y="-53" type="curve" smooth="yes"/>
      <point x="81" y="-32"/>
      <point x="75" y="0"/>
      <point x="53" y="3" type="curve"/>
      <point x="45" y="3"/>
      <point x="33" y="3"/>
      <point x="30" y="9" type="curve" smooth="yes"/>
      <point x="26" y="17"/>
      <point x="27" y="27"/>
      <point x="30" y="34" type="curve"/>
      <point x="45" y="59"/>
      <point x="94" y="109"/>
      <point x="125" y="109" type="curve" smooth="yes"/>
      <point x="174" y="109"/>
      <point x="192" y="56"/>
      <point x="178" y="5" type="curve"/>
      <point x="151" y="-80"/>
      <point x="93" y="-147"/>
      <point x="19" y="-202" type="curve"/>
      <point x="5" y="-211"/>
      <point x="-13" y="-207"/>
      <point x="-19" y="-197" type="curve" smooth="yes"/>
      <point x="-24" y="-188"/>
      <point x="-14" y="-171"/>
    </contour>
  </outline>
</glyph>
<glyph name="hyphen" format="1">
  <advance width="305"/>
  <unicode hex="002D"/>
  <outline>
    <contour>
      <point x="77" y="298" type="curve" smooth="yes"/>
      <point x="100" y="303"/>
      <point x="188" y="303"/>
      <point x="231" y="320" type="curve"/>
      <point x="276" y="336"/>
      <point x="271" y="311"/>
      <point x="257" y="285" type="curve" smooth="yes"/>
      <point x="242" y="256"/>
      <point x="219" y="230"/>
      <point x="182" y="229" type="curve" smooth="yes"/>
      <point x="152" y="228"/>
      <point x="90" y="227"/>
      <point x="64" y="227" type="curve" smooth="yes"/>
      <point x="40" y="227"/>
      <point x="34" y="244"/>
      <point x="43" y="263" type="curve" smooth="yes"/>
      <point x="51" y="281"/>
      <point x="61" y="294"/>
    </contour>
  </outline>
</glyph>
<glyph name="period" format="1">
  <advance width="252"/>
  <unicode hex="002E"/>
  <outline>
    <contour>
      <point x="107" y="122" type="curve" smooth="yes"/>
      <point x="140" y="124"/>
      <point x="179" y="107"/>
      <point x="179" y="72" type="curve" smooth="yes"/>
      <point x="179" y="15"/>
      <point x="134" y="-3"/>
      <point x="104" y="-8" type="curve"/>
      <point x="48" y="-13"/>
      <point x="25" y="19"/>
      <point x="25" y="50" type="curve" smooth="yes"/>
      <point x="25" y="93"/>
      <point x="69" y="119"/>
    </contour>
  </outline>
</glyph>
<glyph name="slash" format="1">
  <advance width="380"/>
  <unicode hex="002F"/>
  <outline>
    <contour>
      <point x="-1" y="-27" type="curve" smooth="yes"/>
      <point x="-20" y="-20"/>
      <point x="-20" y="-7"/>
      <point x="15" y="38" type="curve" smooth="yes"/>
      <point x="73" y="114"/>
      <point x="317" y="460"/>
      <point x="369" y="535" type="curve" smooth="yes"/>
      <point x="383" y="555"/>
      <point x="404" y="586"/>
      <point x="415" y="608" type="curve"/>
      <point x="423" y="619"/>
      <point x="451" y="620"/>
      <point x="454" y="605" type="curve" smooth="yes"/>
      <point x="458" y="577"/>
      <point x="452" y="549"/>
      <point x="446" y="529" type="curve" smooth="yes"/>
      <point x="439" y="501"/>
      <point x="428" y="487"/>
      <point x="410" y="463" type="curve"/>
      <point x="368" y="412"/>
      <point x="139" y="108"/>
      <point x="66" y="13" type="curve" smooth="yes"/>
      <point x="37" y="-24"/>
      <point x="11" y="-31"/>
    </contour>
  </outline>
</glyph>
<glyph name="zero" format="1">
  <advance width="517"/>
  <unicode hex="0030"/>
  <outline>
    <contour>
      <point x="339" y="619" type="curve" smooth="yes"/>
      <point x="458" y="619"/>
      <point x="518" y="513"/>
      <point x="497" y="375" type="curve" smooth="yes"/>
      <point x="456" y="96"/>
      <point x="332" y="-14"/>
      <point x="206" y="-14" type="curve" smooth="yes"/>
      <point x="56" y="-14"/>
      <point x="40" y="157"/>
      <point x="48" y="229" type="curve" smooth="yes"/>
      <point x="77" y="486"/>
      <point x="229" y="619"/>
    </contour>
    <contour>
      <point x="327" y="540" type="curve" smooth="yes"/>
      <point x="306" y="540"/>
      <point x="242" y="526"/>
      <point x="198" y="288" type="curve" smooth="yes"/>
      <point x="157" y="66"/>
      <point x="205" y="61"/>
      <point x="226" y="61" type="curve" smooth="yes"/>
      <point x="274" y="61"/>
      <point x="310" y="119"/>
      <point x="347" y="326" type="curve" smooth="yes"/>
      <point x="370" y="459"/>
      <point x="367" y="540"/>
    </contour>
  </outline>
</glyph>
<glyph name="one" format="1">
  <advance width="417"/>
  <unicode hex="0031"/>
  <outline>
    <contour>
      <point x="123" y="-9" type="curve"/>
      <point x="102" y="-13"/>
      <point x="88" y="2"/>
      <point x="96" y="29" type="curve"/>
      <point x="125" y="101"/>
      <point x="206" y="358"/>
      <point x="226" y="437" type="curve" smooth="yes"/>
      <point x="231" y="455"/>
      <point x="221" y="459"/>
      <point x="208" y="448" type="curve" smooth="yes"/>
      <point x="178" y="424"/>
      <point x="140" y="375"/>
      <point x="122" y="355" type="curve"/>
      <point x="109" y="339"/>
      <point x="79" y="351"/>
      <point x="73" y="366" type="curve" smooth="yes"/>
      <point x="62" y="396"/>
      <point x="76" y="410"/>
      <point x="89" y="420" type="curve" smooth="yes"/>
      <point x="131" y="452"/>
      <point x="194" y="508"/>
      <point x="231" y="550" type="curve" smooth="yes"/>
      <point x="239" y="559"/>
      <point x="263" y="584"/>
      <point x="269" y="592" type="curve" smooth="yes"/>
      <point x="279" y="605"/>
      <point x="361" y="614"/>
      <point x="380" y="614" type="curve" smooth="yes"/>
      <point x="405" y="614"/>
      <point x="408" y="598"/>
      <point x="396" y="562" type="curve"/>
      <point x="343" y="387"/>
      <point x="311" y="260"/>
      <point x="275" y="65" type="curve" smooth="yes"/>
      <point x="270" y="39"/>
      <point x="271" y="25"/>
      <point x="240" y="11" type="curve"/>
      <point x="216" y="2"/>
      <point x="149" y="-7"/>
    </contour>
  </outline>
</glyph>
<glyph name="two" format="1">
  <advance width="549"/>
  <unicode hex="0032"/>
  <outline>
    <contour>
      <point x="245" y="659" type="curve" smooth="yes"/>
      <point x="257" y="657"/>
      <point x="264" y="647"/>
      <point x="260" y="636" type="curve" smooth="yes"/>
      <point x="254" y="621"/>
      <point x="252" y="588"/>
      <point x="275" y="588" type="curve" smooth="yes"/>
      <point x="319" y="588"/>
      <point x="370" y="612"/>
      <point x="419" y="612" type="curve" smooth="yes"/>
      <point x="486" y="612"/>
      <point x="524" y="588"/>
      <point x="514" y="531" type="curve" smooth="yes"/>
      <point x="501" y="450"/>
      <point x="473" y="402"/>
      <point x="378" y="304" type="curve"/>
      <point x="313" y="240"/>
      <point x="303" y="236"/>
      <point x="239" y="184" type="curve" smooth="yes"/>
      <point x="227" y="173"/>
      <point x="233" y="161"/>
      <point x="245" y="167" type="curve"/>
      <point x="258" y="171"/>
      <point x="267" y="173"/>
      <point x="293" y="173" type="curve" smooth="yes"/>
      <point x="318" y="173"/>
      <point x="336" y="164"/>
      <point x="351" y="154" type="curve" smooth="yes"/>
      <point x="360" y="147"/>
      <point x="381" y="135"/>
      <point x="404" y="135" type="curve" smooth="yes"/>
      <point x="426" y="135"/>
      <point x="446" y="146"/>
      <point x="457" y="172" type="curve" smooth="yes"/>
      <point x="460" y="179"/>
      <point x="471" y="200"/>
      <point x="492" y="200" type="curve" smooth="yes"/>
      <point x="508" y="200"/>
      <point x="515" y="184"/>
      <point x="515" y="169" type="curve" smooth="yes"/>
      <point x="515" y="120"/>
      <point x="434" y="-12"/>
      <point x="339" y="-12" type="curve" smooth="yes"/>
      <point x="315" y="-12"/>
      <point x="309" y="-8"/>
      <point x="295" y="5" type="curve" smooth="yes"/>
      <point x="263" y="32"/>
      <point x="230" y="44"/>
      <point x="194" y="44" type="curve" smooth="yes"/>
      <point x="137" y="44"/>
      <point x="85" y="35"/>
      <point x="51" y="8" type="curve" smooth="yes"/>
      <point x="36" y="-3"/>
      <point x="3" y="-16"/>
      <point x="-10" y="-3" type="curve" smooth="yes"/>
      <point x="-22" y="9"/>
      <point x="-15" y="24"/>
      <point x="-8" y="44" type="curve"/>
      <point x="9" y="85"/>
      <point x="50" y="143"/>
      <point x="87" y="153" type="curve" smooth="yes"/>
      <point x="123" y="163"/>
      <point x="137" y="173"/>
      <point x="170" y="199" type="curve" smooth="yes"/>
      <point x="242" y="254"/>
      <point x="375" y="350"/>
      <point x="375" y="437" type="curve" smooth="yes"/>
      <point x="375" y="461"/>
      <point x="360" y="476"/>
      <point x="335" y="476" type="curve" smooth="yes"/>
      <point x="288" y="476"/>
      <point x="242" y="449"/>
      <point x="186" y="449" type="curve" smooth="yes"/>
      <point x="149" y="449"/>
      <point x="136" y="490"/>
      <point x="145" y="535" type="curve" smooth="yes"/>
      <point x="152" y="572"/>
      <point x="189" y="624"/>
      <point x="202" y="638" type="curve" smooth="yes"/>
      <point x="214" y="652"/>
      <point x="230" y="661"/>
    </contour>
  </outline>
</glyph>
<glyph name="three" format="1">
  <advance width="503"/>
  <unicode hex="0033"/>
  <outline>
    <contour>
      <point x="117" y="-7" type="curve" smooth="yes"/>
      <point x="45" y="-7"/>
      <point x="3" y="20"/>
      <point x="3" y="66" type="curve" smooth="yes"/>
      <point x="3" y="112"/>
      <point x="56" y="169"/>
      <point x="99" y="182" type="curve"/>
      <point x="110" y="184"/>
      <point x="122" y="184"/>
      <point x="128" y="178" type="curve" smooth="yes"/>
      <point x="132" y="174"/>
      <point x="133" y="160"/>
      <point x="130" y="148" type="curve" smooth="yes"/>
      <point x="123" y="110"/>
      <point x="137" y="82"/>
      <point x="179" y="82" type="curve" smooth="yes"/>
      <point x="241" y="82"/>
      <point x="322" y="120"/>
      <point x="322" y="183" type="curve" smooth="yes"/>
      <point x="322" y="248"/>
      <point x="279" y="255"/>
      <point x="225" y="254" type="curve" smooth="yes"/>
      <point x="156" y="253"/>
      <point x="150" y="272"/>
      <point x="164" y="311" type="curve" smooth="yes"/>
      <point x="178" y="353"/>
      <point x="197" y="375"/>
      <point x="224" y="379" type="curve"/>
      <point x="297" y="386"/>
      <point x="348" y="412"/>
      <point x="348" y="454" type="curve" smooth="yes"/>
      <point x="348" y="475"/>
      <point x="340" y="489"/>
      <point x="313" y="489" type="curve" smooth="yes"/>
      <point x="261" y="489"/>
      <point x="237" y="471"/>
      <point x="184" y="471" type="curve" smooth="yes"/>
      <point x="129" y="471"/>
      <point x="109" y="497"/>
      <point x="112" y="551" type="curve" smooth="yes"/>
      <point x="114" y="578"/>
      <point x="131" y="615"/>
      <point x="156" y="644" type="curve"/>
      <point x="165" y="656"/>
      <point x="185" y="668"/>
      <point x="199" y="664" type="curve"/>
      <point x="214" y="661"/>
      <point x="218" y="639"/>
      <point x="212" y="635" type="curve"/>
      <point x="189" y="593"/>
      <point x="214" y="593"/>
      <point x="226" y="593" type="curve" smooth="yes"/>
      <point x="242" y="593"/>
      <point x="268" y="597"/>
      <point x="295" y="604" type="curve"/>
      <point x="328" y="614"/>
      <point x="356" y="614"/>
      <point x="379" y="614" type="curve" smooth="yes"/>
      <point x="455" y="614"/>
      <point x="476" y="560"/>
      <point x="471" y="529" type="curve" smooth="yes"/>
      <point x="459" y="458"/>
      <point x="419" y="415"/>
      <point x="375" y="385" type="curve" smooth="yes"/>
      <point x="338" y="359"/>
      <point x="349" y="356"/>
      <point x="373" y="354" type="curve" smooth="yes"/>
      <point x="435" y="347"/>
      <point x="448" y="285"/>
      <point x="445" y="236" type="curve" smooth="yes"/>
      <point x="439" y="127"/>
      <point x="286" y="-7"/>
    </contour>
  </outline>
</glyph>
<glyph name="four" format="1">
  <advance width="610"/>
  <unicode hex="0034"/>
  <outline>
    <contour>
      <point x="506" y="613" type="curve"/>
      <point x="549" y="615"/>
      <point x="552" y="589"/>
      <point x="531" y="539" type="curve" smooth="yes"/>
      <point x="524" y="520"/>
      <point x="471" y="334"/>
      <point x="460" y="266" type="curve"/>
      <point x="460" y="256"/>
      <point x="465" y="256"/>
      <point x="495" y="256" type="curve" smooth="yes"/>
      <point x="516" y="256"/>
      <point x="535" y="270"/>
      <point x="551" y="291" type="curve" smooth="yes"/>
      <point x="560" y="303"/>
      <point x="574" y="309"/>
      <point x="585" y="305" type="curve" smooth="yes"/>
      <point x="594" y="301"/>
      <point x="600" y="290"/>
      <point x="598" y="281" type="curve"/>
      <point x="585" y="245"/>
      <point x="564" y="193"/>
      <point x="539" y="167" type="curve" smooth="yes"/>
      <point x="529" y="157"/>
      <point x="520" y="146"/>
      <point x="504" y="146" type="curve" smooth="yes"/>
      <point x="489" y="146"/>
      <point x="474" y="152"/>
      <point x="460" y="152" type="curve" smooth="yes"/>
      <point x="443" y="152"/>
      <point x="436" y="142"/>
      <point x="428" y="114" type="curve"/>
      <point x="422" y="89"/>
      <point x="418" y="65"/>
      <point x="418" y="42" type="curve"/>
      <point x="420" y="19"/>
      <point x="413" y="1"/>
      <point x="399" y="-10" type="curve" smooth="yes"/>
      <point x="375" y="-31"/>
      <point x="279" y="-40"/>
      <point x="263" y="-40" type="curve" smooth="yes"/>
      <point x="247" y="-40"/>
      <point x="241" y="-34"/>
      <point x="241" y="-17" type="curve" smooth="yes"/>
      <point x="241" y="-5"/>
      <point x="258" y="40"/>
      <point x="267" y="54" type="curve"/>
      <point x="279" y="83"/>
      <point x="283" y="104"/>
      <point x="291" y="142" type="curve"/>
      <point x="295" y="168"/>
      <point x="258" y="169"/>
      <point x="218" y="169" type="curve" smooth="yes"/>
      <point x="160" y="169"/>
      <point x="131" y="153"/>
      <point x="74" y="153" type="curve" smooth="yes"/>
      <point x="39" y="153"/>
      <point x="37" y="173"/>
      <point x="37" y="184" type="curve" smooth="yes"/>
      <point x="37" y="221"/>
      <point x="59" y="258"/>
      <point x="88" y="287" type="curve"/>
      <point x="125" y="320"/>
      <point x="302" y="481"/>
      <point x="335" y="512" type="curve"/>
      <point x="344" y="523"/>
      <point x="369" y="548"/>
      <point x="378" y="567" type="curve" smooth="yes"/>
      <point x="395" y="600"/>
      <point x="468" y="610"/>
    </contour>
    <contour>
      <point x="363" y="428" type="curve" smooth="yes"/>
      <point x="367" y="448"/>
      <point x="353" y="446"/>
      <point x="338" y="434" type="curve" smooth="yes"/>
      <point x="281" y="386"/>
      <point x="233" y="348"/>
      <point x="177" y="290" type="curve" smooth="yes"/>
      <point x="162" y="274"/>
      <point x="174" y="273"/>
      <point x="188" y="273" type="curve" smooth="yes"/>
      <point x="206" y="273"/>
      <point x="220" y="279"/>
      <point x="237" y="279" type="curve" smooth="yes"/>
      <point x="258" y="279"/>
      <point x="274" y="279"/>
      <point x="293" y="273" type="curve" smooth="yes"/>
      <point x="307" y="269"/>
      <point x="312" y="271"/>
      <point x="320" y="290" type="curve"/>
      <point x="338" y="340"/>
      <point x="351" y="375"/>
    </contour>
  </outline>
</glyph>
<glyph name="five" format="1">
  <advance width="488"/>
  <unicode hex="0035"/>
  <outline>
    <contour>
      <point x="456" y="650" type="curve" smooth="yes"/>
      <point x="465" y="647"/>
      <point x="475" y="629"/>
      <point x="469" y="610" type="curve" smooth="yes"/>
      <point x="466" y="600"/>
      <point x="429" y="511"/>
      <point x="423" y="500" type="curve" smooth="yes"/>
      <point x="404" y="467"/>
      <point x="374" y="461"/>
      <point x="338" y="461" type="curve" smooth="yes"/>
      <point x="304" y="461"/>
      <point x="268" y="476"/>
      <point x="243" y="490" type="curve"/>
      <point x="222" y="499"/>
      <point x="211" y="497"/>
      <point x="204" y="482" type="curve" smooth="yes"/>
      <point x="199" y="472"/>
      <point x="194" y="461"/>
      <point x="189" y="444" type="curve" smooth="yes"/>
      <point x="185" y="430"/>
      <point x="189" y="420"/>
      <point x="210" y="417" type="curve"/>
      <point x="253" y="407"/>
      <point x="300" y="392"/>
      <point x="322" y="384" type="curve"/>
      <point x="393" y="354"/>
      <point x="451" y="315"/>
      <point x="451" y="233" type="curve" smooth="yes"/>
      <point x="451" y="125"/>
      <point x="318" y="-12"/>
      <point x="154" y="-12" type="curve" smooth="yes"/>
      <point x="66" y="-12"/>
      <point x="18" y="14"/>
      <point x="18" y="63" type="curve" smooth="yes"/>
      <point x="18" y="97"/>
      <point x="50" y="140"/>
      <point x="100" y="168" type="curve" smooth="yes"/>
      <point x="125" y="183"/>
      <point x="138" y="179"/>
      <point x="145" y="175" type="curve" smooth="yes"/>
      <point x="152" y="171"/>
      <point x="156" y="165"/>
      <point x="152" y="141" type="curve" smooth="yes"/>
      <point x="147" y="107"/>
      <point x="150" y="65"/>
      <point x="201" y="65" type="curve" smooth="yes"/>
      <point x="245" y="65"/>
      <point x="330" y="90"/>
      <point x="330" y="181" type="curve" smooth="yes"/>
      <point x="330" y="212"/>
      <point x="317" y="238"/>
      <point x="274" y="259" type="curve" smooth="yes"/>
      <point x="220" y="284"/>
      <point x="164" y="298"/>
      <point x="90" y="315" type="curve"/>
      <point x="72" y="318"/>
      <point x="65" y="340"/>
      <point x="76" y="359" type="curve" smooth="yes"/>
      <point x="101" y="401"/>
      <point x="159" y="536"/>
      <point x="184" y="583" type="curve"/>
      <point x="193" y="606"/>
      <point x="199" y="611"/>
      <point x="234" y="611" type="curve" smooth="yes"/>
      <point x="260" y="611"/>
      <point x="279" y="604"/>
      <point x="306" y="597" type="curve" smooth="yes"/>
      <point x="322" y="592"/>
      <point x="342" y="589"/>
      <point x="357" y="589" type="curve" smooth="yes"/>
      <point x="386" y="589"/>
      <point x="403" y="596"/>
      <point x="417" y="630" type="curve"/>
      <point x="423" y="648"/>
      <point x="439" y="654"/>
    </contour>
  </outline>
</glyph>
<glyph name="six" format="1">
  <advance width="511"/>
  <unicode hex="0036"/>
  <outline>
    <contour>
      <point x="458" y="609" type="curve" smooth="yes"/>
      <point x="468" y="598"/>
      <point x="459" y="572"/>
      <point x="409" y="552" type="curve"/>
      <point x="275" y="503"/>
      <point x="190" y="382"/>
      <point x="181" y="228" type="curve"/>
      <point x="174" y="126"/>
      <point x="194" y="70"/>
      <point x="240" y="70" type="curve" smooth="yes"/>
      <point x="286" y="70"/>
      <point x="322" y="142"/>
      <point x="328" y="228" type="curve" smooth="yes"/>
      <point x="333" y="290"/>
      <point x="325" y="319"/>
      <point x="299" y="319" type="curve" smooth="yes"/>
      <point x="290" y="319"/>
      <point x="279" y="318"/>
      <point x="272" y="315" type="curve" smooth="yes"/>
      <point x="258" y="309"/>
      <point x="242" y="311"/>
      <point x="237" y="322" type="curve" smooth="yes"/>
      <point x="232" y="335"/>
      <point x="242" y="349"/>
      <point x="260" y="364" type="curve" smooth="yes"/>
      <point x="282" y="383"/>
      <point x="314" y="398"/>
      <point x="357" y="398" type="curve" smooth="yes"/>
      <point x="428" y="398"/>
      <point x="466" y="341"/>
      <point x="466" y="273" type="curve"/>
      <point x="463" y="79"/>
      <point x="295" y="-13"/>
      <point x="205" y="-13" type="curve" smooth="yes"/>
      <point x="118" y="-13"/>
      <point x="42" y="63"/>
      <point x="45" y="187" type="curve"/>
      <point x="47" y="391"/>
      <point x="226" y="550"/>
      <point x="385" y="607" type="curve" smooth="yes"/>
      <point x="414" y="618"/>
      <point x="449" y="620"/>
    </contour>
  </outline>
</glyph>
<glyph name="seven" format="1">
  <advance width="443"/>
  <unicode hex="0037"/>
  <outline>
    <contour>
      <point x="104" y="-33" type="curve" smooth="yes"/>
      <point x="83" y="-36"/>
      <point x="66" y="-27"/>
      <point x="66" y="8" type="curve" smooth="yes"/>
      <point x="66" y="110"/>
      <point x="269" y="380"/>
      <point x="325" y="452" type="curve" smooth="yes"/>
      <point x="342" y="474"/>
      <point x="332" y="487"/>
      <point x="297" y="477" type="curve"/>
      <point x="237" y="462"/>
      <point x="199" y="451"/>
      <point x="150" y="451" type="curve" smooth="yes"/>
      <point x="102" y="451"/>
      <point x="86" y="480"/>
      <point x="86" y="523" type="curve" smooth="yes"/>
      <point x="86" y="558"/>
      <point x="112" y="609"/>
      <point x="139" y="642" type="curve" smooth="yes"/>
      <point x="148" y="654"/>
      <point x="168" y="665"/>
      <point x="180" y="661" type="curve" smooth="yes"/>
      <point x="192" y="657"/>
      <point x="194" y="643"/>
      <point x="192" y="633" type="curve" smooth="yes"/>
      <point x="183" y="600"/>
      <point x="185" y="586"/>
      <point x="283" y="586" type="curve" smooth="yes"/>
      <point x="354" y="586"/>
      <point x="382" y="597"/>
      <point x="468" y="614" type="curve"/>
      <point x="504" y="623"/>
      <point x="519" y="592"/>
      <point x="503" y="575" type="curve" smooth="yes"/>
      <point x="378" y="446"/>
      <point x="232" y="208"/>
      <point x="235" y="72" type="curve" smooth="yes"/>
      <point x="236" y="23"/>
      <point x="228" y="16"/>
      <point x="207" y="2" type="curve" smooth="yes"/>
      <point x="189" y="-11"/>
      <point x="128" y="-29"/>
    </contour>
  </outline>
</glyph>
<glyph name="eight" format="1">
  <advance width="511"/>
  <unicode hex="0038"/>
  <outline>
    <contour>
      <point x="204" y="-16" type="curve" smooth="yes"/>
      <point x="104" y="-16"/>
      <point x="27" y="33"/>
      <point x="27" y="123" type="curve" smooth="yes"/>
      <point x="27" y="202"/>
      <point x="61" y="252"/>
      <point x="130" y="287" type="curve" smooth="yes"/>
      <point x="146" y="295"/>
      <point x="169" y="305"/>
      <point x="145" y="324" type="curve" smooth="yes"/>
      <point x="131" y="335"/>
      <point x="111" y="368"/>
      <point x="113" y="412" type="curve" smooth="yes"/>
      <point x="116" y="528"/>
      <point x="253" y="609"/>
      <point x="352" y="609" type="curve" smooth="yes"/>
      <point x="427" y="609"/>
      <point x="497" y="573"/>
      <point x="497" y="496" type="curve" smooth="yes"/>
      <point x="497" y="426"/>
      <point x="465" y="395"/>
      <point x="412" y="362" type="curve" smooth="yes"/>
      <point x="392" y="349"/>
      <point x="390" y="345"/>
      <point x="411" y="331" type="curve" smooth="yes"/>
      <point x="450" y="306"/>
      <point x="471" y="267"/>
      <point x="466" y="205" type="curve" smooth="yes"/>
      <point x="457" y="73"/>
      <point x="327" y="-16"/>
    </contour>
    <contour>
      <point x="253" y="66" type="curve" smooth="yes"/>
      <point x="283" y="66"/>
      <point x="355" y="80"/>
      <point x="355" y="154" type="curve" smooth="yes"/>
      <point x="355" y="221"/>
      <point x="303" y="234"/>
      <point x="237" y="263" type="curve" smooth="yes"/>
      <point x="220" y="270"/>
      <point x="210" y="272"/>
      <point x="196" y="261" type="curve" smooth="yes"/>
      <point x="181" y="249"/>
      <point x="145" y="226"/>
      <point x="145" y="164" type="curve" smooth="yes"/>
      <point x="145" y="106"/>
      <point x="198" y="66"/>
    </contour>
    <contour>
      <point x="361" y="396" type="curve"/>
      <point x="377" y="411"/>
      <point x="387" y="438"/>
      <point x="387" y="463" type="curve" smooth="yes"/>
      <point x="387" y="497"/>
      <point x="354" y="529"/>
      <point x="308" y="529" type="curve" smooth="yes"/>
      <point x="257" y="529"/>
      <point x="226" y="504"/>
      <point x="226" y="461" type="curve" smooth="yes"/>
      <point x="226" y="421"/>
      <point x="273" y="402"/>
      <point x="312" y="385" type="curve" smooth="yes"/>
      <point x="343" y="371"/>
      <point x="346" y="380"/>
    </contour>
  </outline>
</glyph>
<glyph name="nine" format="1">
  <advance width="511"/>
  <unicode hex="0039"/>
  <outline>
    <contour>
      <point x="64" y="-14" type="curve" smooth="yes"/>
      <point x="54" y="-3"/>
      <point x="63" y="24"/>
      <point x="113" y="43" type="curve" smooth="yes"/>
      <point x="247" y="92"/>
      <point x="339" y="220"/>
      <point x="348" y="374" type="curve"/>
      <point x="355" y="476"/>
      <point x="345" y="532"/>
      <point x="295" y="532" type="curve" smooth="yes"/>
      <point x="243" y="532"/>
      <point x="207" y="460"/>
      <point x="200" y="374" type="curve" smooth="yes"/>
      <point x="195" y="312"/>
      <point x="205" y="283"/>
      <point x="231" y="283" type="curve" smooth="yes"/>
      <point x="240" y="283"/>
      <point x="250" y="284"/>
      <point x="258" y="287" type="curve" smooth="yes"/>
      <point x="271" y="293"/>
      <point x="287" y="291"/>
      <point x="292" y="279" type="curve" smooth="yes"/>
      <point x="297" y="267"/>
      <point x="288" y="253"/>
      <point x="269" y="237" type="curve" smooth="yes"/>
      <point x="247" y="219"/>
      <point x="215" y="204"/>
      <point x="173" y="204" type="curve" smooth="yes"/>
      <point x="102" y="204"/>
      <point x="63" y="261"/>
      <point x="63" y="329" type="curve"/>
      <point x="66" y="523"/>
      <point x="231" y="615"/>
      <point x="321" y="615" type="curve" smooth="yes"/>
      <point x="408" y="615"/>
      <point x="487" y="539"/>
      <point x="485" y="415" type="curve" smooth="yes"/>
      <point x="482" y="200"/>
      <point x="282" y="40"/>
      <point x="137" y="-12" type="curve" smooth="yes"/>
      <point x="108" y="-23"/>
      <point x="72" y="-24"/>
    </contour>
  </outline>
</glyph>
<glyph name="colon" format="1">
  <advance width="267"/>
  <unicode hex="003A"/>
  <outline>
    <contour>
      <point x="107" y="122" type="curve" smooth="yes"/>
      <point x="140" y="124"/>
      <point x="179" y="107"/>
      <point x="179" y="72" type="curve" smooth="yes"/>
      <point x="179" y="15"/>
      <point x="134" y="-3"/>
      <point x="104" y="-8" type="curve"/>
      <point x="48" y="-13"/>
      <point x="25" y="19"/>
      <point x="25" y="50" type="curve" smooth="yes"/>
      <point x="25" y="93"/>
      <point x="69" y="119"/>
    </contour>
    <contour>
      <point x="166" y="421" type="curve" smooth="yes"/>
      <point x="199" y="423"/>
      <point x="238" y="406"/>
      <point x="238" y="370" type="curve" smooth="yes"/>
      <point x="238" y="314"/>
      <point x="193" y="296"/>
      <point x="162" y="291" type="curve"/>
      <point x="107" y="286"/>
      <point x="84" y="317"/>
      <point x="84" y="348" type="curve" smooth="yes"/>
      <point x="84" y="392"/>
      <point x="128" y="418"/>
    </contour>
  </outline>
</glyph>
<glyph name="semicolon" format="1">
  <advance width="267"/>
  <unicode hex="003B"/>
  <outline>
    <contour>
      <point x="163" y="421" type="curve" smooth="yes"/>
      <point x="196" y="423"/>
      <point x="236" y="406"/>
      <point x="236" y="370" type="curve" smooth="yes"/>
      <point x="236" y="314"/>
      <point x="190" y="296"/>
      <point x="160" y="291" type="curve"/>
      <point x="104" y="286"/>
      <point x="82" y="317"/>
      <point x="82" y="348" type="curve" smooth="yes"/>
      <point x="82" y="392"/>
      <point x="125" y="418"/>
    </contour>
    <contour>
      <point x="-15" y="-165" type="curve" smooth="yes"/>
      <point x="30" y="-134"/>
      <point x="60" y="-87"/>
      <point x="67" y="-53" type="curve" smooth="yes"/>
      <point x="72" y="-32"/>
      <point x="66" y="0"/>
      <point x="44" y="3" type="curve"/>
      <point x="35" y="3"/>
      <point x="24" y="3"/>
      <point x="21" y="9" type="curve" smooth="yes"/>
      <point x="17" y="17"/>
      <point x="18" y="27"/>
      <point x="21" y="34" type="curve" smooth="yes"/>
      <point x="35" y="59"/>
      <point x="85" y="109"/>
      <point x="116" y="109" type="curve" smooth="yes"/>
      <point x="165" y="109"/>
      <point x="183" y="56"/>
      <point x="168" y="5" type="curve"/>
      <point x="141" y="-80"/>
      <point x="83" y="-147"/>
      <point x="9" y="-202" type="curve" smooth="yes"/>
      <point x="-4" y="-211"/>
      <point x="-22" y="-207"/>
      <point x="-28" y="-197" type="curve" smooth="yes"/>
      <point x="-33" y="-188"/>
      <point x="-24" y="-171"/>
    </contour>
  </outline>
</glyph>
<glyph name="less" format="1">
  <advance width="362"/>
  <unicode hex="003C"/>
  <outline>
    <contour>
      <point x="66" y="257" type="curve" smooth="yes"/>
      <point x="120" y="284"/>
      <point x="245" y="346"/>
      <point x="281" y="368" type="curve"/>
      <point x="290" y="372"/>
      <point x="316" y="392"/>
      <point x="326" y="400" type="curve" smooth="yes"/>
      <point x="336" y="409"/>
      <point x="350" y="415"/>
      <point x="350" y="400" type="curve"/>
      <point x="352" y="388"/>
      <point x="340" y="348"/>
      <point x="336" y="341" type="curve"/>
      <point x="328" y="332"/>
      <point x="315" y="318"/>
      <point x="289" y="306" type="curve" smooth="yes"/>
      <point x="236" y="282"/>
      <point x="175" y="257"/>
      <point x="130" y="234" type="curve" smooth="yes"/>
      <point x="126" y="231"/>
      <point x="119" y="225"/>
      <point x="125" y="217" type="curve"/>
      <point x="136" y="206"/>
      <point x="240" y="141"/>
      <point x="266" y="125" type="curve" smooth="yes"/>
      <point x="285" y="114"/>
      <point x="283" y="93"/>
      <point x="267" y="82" type="curve" smooth="yes"/>
      <point x="255" y="74"/>
      <point x="239" y="72"/>
      <point x="232" y="77" type="curve" smooth="yes"/>
      <point x="215" y="89"/>
      <point x="83" y="167"/>
      <point x="37" y="195" type="curve" smooth="yes"/>
      <point x="29" y="199"/>
      <point x="30" y="210"/>
      <point x="35" y="221" type="curve" smooth="yes"/>
      <point x="43" y="237"/>
      <point x="46" y="246"/>
    </contour>
  </outline>
</glyph>
<glyph name="equal" format="1">
  <advance width="488"/>
  <unicode hex="003D"/>
  <outline>
    <contour>
      <point x="105" y="277" type="curve" smooth="yes"/>
      <point x="83" y="277"/>
      <point x="64" y="281"/>
      <point x="85" y="306" type="curve" smooth="yes"/>
      <point x="97" y="321"/>
      <point x="109" y="331"/>
      <point x="131" y="331" type="curve" smooth="yes"/>
      <point x="263" y="333"/>
      <point x="324" y="337"/>
      <point x="423" y="344" type="curve"/>
      <point x="449" y="348"/>
      <point x="471" y="354"/>
      <point x="465" y="336" type="curve"/>
      <point x="464" y="328"/>
      <point x="449" y="295"/>
      <point x="430" y="286" type="curve" smooth="yes"/>
      <point x="417" y="279"/>
      <point x="403" y="279"/>
      <point x="390" y="279" type="curve" smooth="yes"/>
      <point x="342" y="279"/>
      <point x="152" y="277"/>
    </contour>
    <contour>
      <point x="63" y="112" type="curve" smooth="yes"/>
      <point x="41" y="112"/>
      <point x="22" y="116"/>
      <point x="43" y="141" type="curve" smooth="yes"/>
      <point x="55" y="156"/>
      <point x="67" y="166"/>
      <point x="89" y="166" type="curve" smooth="yes"/>
      <point x="221" y="168"/>
      <point x="282" y="172"/>
      <point x="380" y="179" type="curve"/>
      <point x="407" y="183"/>
      <point x="429" y="189"/>
      <point x="423" y="171" type="curve"/>
      <point x="422" y="163"/>
      <point x="407" y="130"/>
      <point x="388" y="121" type="curve" smooth="yes"/>
      <point x="375" y="114"/>
      <point x="361" y="114"/>
      <point x="348" y="114" type="curve" smooth="yes"/>
      <point x="300" y="114"/>
      <point x="109" y="112"/>
    </contour>
  </outline>
</glyph>
<glyph name="greater" format="1">
  <advance width="362"/>
  <unicode hex="003E"/>
  <outline>
    <contour>
      <point x="302" y="230" type="curve" smooth="yes"/>
      <point x="249" y="203"/>
      <point x="124" y="141"/>
      <point x="88" y="119" type="curve" smooth="yes"/>
      <point x="78" y="114"/>
      <point x="53" y="94"/>
      <point x="43" y="87" type="curve"/>
      <point x="33" y="77"/>
      <point x="19" y="72"/>
      <point x="19" y="87" type="curve"/>
      <point x="17" y="98"/>
      <point x="29" y="138"/>
      <point x="33" y="146" type="curve"/>
      <point x="40" y="155"/>
      <point x="54" y="168"/>
      <point x="80" y="180" type="curve" smooth="yes"/>
      <point x="133" y="205"/>
      <point x="194" y="230"/>
      <point x="238" y="253" type="curve" smooth="yes"/>
      <point x="242" y="255"/>
      <point x="250" y="262"/>
      <point x="243" y="269" type="curve" smooth="yes"/>
      <point x="233" y="280"/>
      <point x="129" y="346"/>
      <point x="103" y="361" type="curve" smooth="yes"/>
      <point x="84" y="373"/>
      <point x="86" y="393"/>
      <point x="102" y="404" type="curve" smooth="yes"/>
      <point x="114" y="412"/>
      <point x="130" y="415"/>
      <point x="136" y="410" type="curve" smooth="yes"/>
      <point x="153" y="397"/>
      <point x="285" y="320"/>
      <point x="332" y="291" type="curve" smooth="yes"/>
      <point x="339" y="287"/>
      <point x="338" y="276"/>
      <point x="333" y="265" type="curve" smooth="yes"/>
      <point x="326" y="250"/>
      <point x="322" y="241"/>
    </contour>
  </outline>
</glyph>
<glyph name="question" format="1">
  <advance width="465"/>
  <unicode hex="003F"/>
  <outline>
    <contour>
      <point x="204" y="167" type="curve"/>
      <point x="183" y="162"/>
      <point x="173" y="180"/>
      <point x="174" y="192" type="curve" smooth="yes"/>
      <point x="180" y="237"/>
      <point x="209" y="279"/>
      <point x="257" y="311" type="curve" smooth="yes"/>
      <point x="338" y="364"/>
      <point x="366" y="407"/>
      <point x="370" y="487" type="curve"/>
      <point x="370" y="511"/>
      <point x="349" y="547"/>
      <point x="311" y="547" type="curve" smooth="yes"/>
      <point x="258" y="547"/>
      <point x="221" y="518"/>
      <point x="221" y="477" type="curve" smooth="yes"/>
      <point x="221" y="454"/>
      <point x="226" y="443"/>
      <point x="236" y="436" type="curve" smooth="yes"/>
      <point x="252" y="425"/>
      <point x="256" y="426"/>
      <point x="258" y="416" type="curve" smooth="yes"/>
      <point x="260" y="410"/>
      <point x="258" y="403"/>
      <point x="244" y="393" type="curve" smooth="yes"/>
      <point x="228" y="381"/>
      <point x="199" y="371"/>
      <point x="178" y="371" type="curve" smooth="yes"/>
      <point x="133" y="371"/>
      <point x="92" y="392"/>
      <point x="92" y="448" type="curve" smooth="yes"/>
      <point x="92" y="515"/>
      <point x="199" y="617"/>
      <point x="332" y="617" type="curve" smooth="yes"/>
      <point x="497" y="617"/>
      <point x="507" y="529"/>
      <point x="507" y="497" type="curve" smooth="yes"/>
      <point x="508" y="418"/>
      <point x="452" y="355"/>
      <point x="341" y="291" type="curve" smooth="yes"/>
      <point x="280" y="256"/>
      <point x="241" y="218"/>
      <point x="237" y="192" type="curve"/>
      <point x="236" y="178"/>
      <point x="219" y="169"/>
    </contour>
    <contour>
      <point x="184" y="122" type="curve" smooth="yes"/>
      <point x="216" y="124"/>
      <point x="256" y="107"/>
      <point x="256" y="72" type="curve" smooth="yes"/>
      <point x="256" y="15"/>
      <point x="210" y="-3"/>
      <point x="180" y="-8" type="curve"/>
      <point x="125" y="-13"/>
      <point x="102" y="19"/>
      <point x="102" y="50" type="curve" smooth="yes"/>
      <point x="102" y="93"/>
      <point x="146" y="119"/>
    </contour>
  </outline>
</glyph>
<glyph name="B" format="1">
  <advance width="640"/>
  <unicode hex="0042"/>
  <outline>
    <contour>
      <point x="192" y="460" type="curve"/>
      <point x="197" y="487"/>
      <point x="199" y="513"/>
      <point x="194" y="527" type="curve" smooth="yes"/>
      <point x="189" y="540"/>
      <point x="168" y="543"/>
      <point x="144" y="542" type="curve" smooth="yes"/>
      <point x="126" y="541"/>
      <point x="118" y="555"/>
      <point x="118" y="566" type="curve" smooth="yes"/>
      <point x="118" y="577"/>
      <point x="126" y="596"/>
      <point x="150" y="598" type="curve"/>
      <point x="195" y="604"/>
      <point x="329" y="610"/>
      <point x="363" y="610" type="curve" smooth="yes"/>
      <point x="446" y="610"/>
      <point x="636" y="610"/>
      <point x="625" y="500" type="curve" smooth="yes"/>
      <point x="621" y="450"/>
      <point x="582" y="412"/>
      <point x="511" y="383" type="curve" smooth="yes"/>
      <point x="492" y="375"/>
      <point x="496" y="359"/>
      <point x="520" y="359" type="curve" smooth="yes"/>
      <point x="586" y="358"/>
      <point x="615" y="306"/>
      <point x="615" y="249" type="curve"/>
      <point x="613" y="146"/>
      <point x="492" y="-11"/>
      <point x="321" y="-11" type="curve" smooth="yes"/>
      <point x="269" y="-11"/>
      <point x="159" y="-3"/>
      <point x="115" y="32" type="curve"/>
      <point x="97" y="44"/>
      <point x="98" y="72"/>
      <point x="108" y="109" type="curve"/>
      <point x="137" y="234"/>
      <point x="162" y="330"/>
    </contour>
    <contour>
      <point x="262" y="118" type="curve" smooth="yes"/>
      <point x="257" y="85"/>
      <point x="257" y="52"/>
      <point x="322" y="52" type="curve" smooth="yes"/>
      <point x="398" y="52"/>
      <point x="444" y="124"/>
      <point x="454" y="225" type="curve" smooth="yes"/>
      <point x="459" y="280"/>
      <point x="444" y="309"/>
      <point x="387" y="307" type="curve" smooth="yes"/>
      <point x="345" y="306"/>
      <point x="337" y="313"/>
      <point x="351" y="344" type="curve" smooth="yes"/>
      <point x="357" y="358"/>
      <point x="362" y="369"/>
      <point x="396" y="373" type="curve" smooth="yes"/>
      <point x="427" y="376"/>
      <point x="455" y="411"/>
      <point x="465" y="475" type="curve"/>
      <point x="474" y="541"/>
      <point x="440" y="555"/>
      <point x="393" y="555" type="curve" smooth="yes"/>
      <point x="364" y="555"/>
      <point x="359" y="540"/>
      <point x="352" y="514" type="curve" smooth="yes"/>
      <point x="311" y="365"/>
      <point x="289" y="279"/>
    </contour>
  </outline>
</glyph>
<glyph name="C" format="1">
  <advance width="560"/>
  <unicode hex="0043"/>
  <outline>
    <contour>
      <point x="260" y="-11" type="curve" smooth="yes"/>
      <point x="110" y="-11"/>
      <point x="67" y="117"/>
      <point x="69" y="205" type="curve" smooth="yes"/>
      <point x="73" y="434"/>
      <point x="260" y="615"/>
      <point x="428" y="615" type="curve" smooth="yes"/>
      <point x="553" y="615"/>
      <point x="572" y="572"/>
      <point x="566" y="529" type="curve"/>
      <point x="561" y="485"/>
      <point x="529" y="437"/>
      <point x="471" y="414" type="curve" smooth="yes"/>
      <point x="459" y="409"/>
      <point x="441" y="405"/>
      <point x="430" y="410" type="curve" smooth="yes"/>
      <point x="423" y="413"/>
      <point x="420" y="430"/>
      <point x="427" y="442" type="curve" smooth="yes"/>
      <point x="443" y="471"/>
      <point x="436" y="535"/>
      <point x="390" y="535" type="curve" smooth="yes"/>
      <point x="343" y="535"/>
      <point x="218" y="491"/>
      <point x="218" y="233" type="curve" smooth="yes"/>
      <point x="218" y="130"/>
      <point x="272" y="87"/>
      <point x="321" y="87" type="curve" smooth="yes"/>
      <point x="374" y="87"/>
      <point x="433" y="107"/>
      <point x="465" y="136" type="curve"/>
      <point x="478" y="150"/>
      <point x="504" y="150"/>
      <point x="513" y="144" type="curve" smooth="yes"/>
      <point x="524" y="137"/>
      <point x="522" y="119"/>
      <point x="511" y="107" type="curve" smooth="yes"/>
      <point x="437" y="29"/>
      <point x="357" y="-11"/>
    </contour>
  </outline>
</glyph>
<glyph name="D" format="1">
  <advance width="671"/>
  <unicode hex="0044"/>
  <outline>
    <contour>
      <point x="120" y="569" type="curve" smooth="yes"/>
      <point x="120" y="580"/>
      <point x="136" y="598"/>
      <point x="158" y="600" type="curve" smooth="yes"/>
      <point x="205" y="605"/>
      <point x="330" y="609"/>
      <point x="363" y="609" type="curve" smooth="yes"/>
      <point x="406" y="609"/>
      <point x="445" y="608"/>
      <point x="481" y="604" type="curve" smooth="yes"/>
      <point x="577" y="592"/>
      <point x="653" y="519"/>
      <point x="653" y="399" type="curve" smooth="yes"/>
      <point x="653" y="194"/>
      <point x="481" y="-10"/>
      <point x="300" y="-10" type="curve" smooth="yes"/>
      <point x="247" y="-10"/>
      <point x="156" y="1"/>
      <point x="115" y="33" type="curve"/>
      <point x="96" y="45"/>
      <point x="98" y="72"/>
      <point x="108" y="109" type="curve"/>
      <point x="137" y="233"/>
      <point x="162" y="328"/>
      <point x="193" y="457" type="curve"/>
      <point x="202" y="501"/>
      <point x="209" y="545"/>
      <point x="157" y="543" type="curve" smooth="yes"/>
      <point x="132" y="542"/>
      <point x="120" y="558"/>
    </contour>
    <contour>
      <point x="353" y="513" type="curve" smooth="yes"/>
      <point x="312" y="365"/>
      <point x="287" y="274"/>
      <point x="261" y="115" type="curve" smooth="yes"/>
      <point x="257" y="89"/>
      <point x="257" y="59"/>
      <point x="312" y="59" type="curve" smooth="yes"/>
      <point x="425" y="59"/>
      <point x="482" y="213"/>
      <point x="504" y="370" type="curve" smooth="yes"/>
      <point x="523" y="504"/>
      <point x="467" y="546"/>
      <point x="392" y="546" type="curve"/>
      <point x="364" y="545"/>
      <point x="359" y="538"/>
    </contour>
  </outline>
</glyph>
<glyph name="E" format="1">
  <advance width="511"/>
  <unicode hex="0045"/>
  <outline>
    <contour>
      <point x="224" y="-8" type="curve" smooth="yes"/>
      <point x="97" y="-8"/>
      <point x="37" y="41"/>
      <point x="40" y="139" type="curve"/>
      <point x="42" y="239"/>
      <point x="109" y="306"/>
      <point x="199" y="330" type="curve" smooth="yes"/>
      <point x="209" y="332"/>
      <point x="217" y="339"/>
      <point x="217" y="343" type="curve" smooth="yes"/>
      <point x="217" y="348"/>
      <point x="213" y="354"/>
      <point x="201" y="357" type="curve" smooth="yes"/>
      <point x="151" y="366"/>
      <point x="125" y="402"/>
      <point x="128" y="456" type="curve" smooth="yes"/>
      <point x="135" y="556"/>
      <point x="270" y="614"/>
      <point x="386" y="614" type="curve" smooth="yes"/>
      <point x="438" y="614"/>
      <point x="536" y="605"/>
      <point x="531" y="543" type="curve" smooth="yes"/>
      <point x="529" y="508"/>
      <point x="495" y="467"/>
      <point x="444" y="450" type="curve" smooth="yes"/>
      <point x="427" y="444"/>
      <point x="412" y="440"/>
      <point x="401" y="446" type="curve" smooth="yes"/>
      <point x="396" y="449"/>
      <point x="391" y="462"/>
      <point x="398" y="472" type="curve" smooth="yes"/>
      <point x="406" y="485"/>
      <point x="410" y="499"/>
      <point x="411" y="518" type="curve" smooth="yes"/>
      <point x="412" y="537"/>
      <point x="403" y="557"/>
      <point x="364" y="557" type="curve" smooth="yes"/>
      <point x="318" y="557"/>
      <point x="271" y="531"/>
      <point x="265" y="465" type="curve" smooth="yes"/>
      <point x="260" y="403"/>
      <point x="295" y="373"/>
      <point x="331" y="371" type="curve" smooth="yes"/>
      <point x="341" y="370"/>
      <point x="363" y="369"/>
      <point x="369" y="370" type="curve" smooth="yes"/>
      <point x="385" y="371"/>
      <point x="396" y="356"/>
      <point x="382" y="331" type="curve" smooth="yes"/>
      <point x="376" y="319"/>
      <point x="364" y="303"/>
      <point x="345" y="301" type="curve" smooth="yes"/>
      <point x="255" y="296"/>
      <point x="187" y="250"/>
      <point x="187" y="162" type="curve" smooth="yes"/>
      <point x="187" y="114"/>
      <point x="216" y="77"/>
      <point x="262" y="77" type="curve" smooth="yes"/>
      <point x="326" y="77"/>
      <point x="370" y="112"/>
      <point x="404" y="146" type="curve" smooth="yes"/>
      <point x="410" y="152"/>
      <point x="434" y="163"/>
      <point x="449" y="154" type="curve" smooth="yes"/>
      <point x="461" y="147"/>
      <point x="462" y="132"/>
      <point x="454" y="121" type="curve" smooth="yes"/>
      <point x="405" y="45"/>
      <point x="296" y="-8"/>
    </contour>
  </outline>
</glyph>
<glyph name="F" format="1">
  <advance width="618"/>
  <unicode hex="0046"/>
  <outline>
    <contour>
      <point x="135" y="587" type="curve"/>
      <point x="136" y="595"/>
      <point x="147" y="613"/>
      <point x="179" y="609" type="curve" smooth="yes"/>
      <point x="194" y="608"/>
      <point x="284" y="607"/>
      <point x="327" y="607" type="curve" smooth="yes"/>
      <point x="407" y="607"/>
      <point x="607" y="615"/>
      <point x="630" y="615" type="curve" smooth="yes"/>
      <point x="689" y="615"/>
      <point x="697" y="586"/>
      <point x="694" y="562" type="curve" smooth="yes"/>
      <point x="690" y="534"/>
      <point x="669" y="478"/>
      <point x="636" y="450" type="curve"/>
      <point x="627" y="444"/>
      <point x="604" y="428"/>
      <point x="593" y="432" type="curve" smooth="yes"/>
      <point x="577" y="437"/>
      <point x="579" y="446"/>
      <point x="582" y="457" type="curve" smooth="yes"/>
      <point x="594" y="511"/>
      <point x="563" y="550"/>
      <point x="523" y="552" type="curve" smooth="yes"/>
      <point x="468" y="556"/>
      <point x="401" y="556"/>
      <point x="387" y="552" type="curve" smooth="yes"/>
      <point x="369" y="547"/>
      <point x="365" y="542"/>
      <point x="361" y="529" type="curve" smooth="yes"/>
      <point x="343" y="477"/>
      <point x="332" y="435"/>
      <point x="324" y="395" type="curve" smooth="yes"/>
      <point x="316" y="354"/>
      <point x="312" y="344"/>
      <point x="354" y="344" type="curve" smooth="yes"/>
      <point x="388" y="344"/>
      <point x="448" y="351"/>
      <point x="473" y="414" type="curve" smooth="yes"/>
      <point x="479" y="428"/>
      <point x="497" y="434"/>
      <point x="505" y="432" type="curve" smooth="yes"/>
      <point x="519" y="429"/>
      <point x="524" y="417"/>
      <point x="520" y="403" type="curve"/>
      <point x="499" y="345"/>
      <point x="485" y="280"/>
      <point x="471" y="224" type="curve" smooth="yes"/>
      <point x="469" y="213"/>
      <point x="456" y="202"/>
      <point x="441" y="202" type="curve" smooth="yes"/>
      <point x="428" y="202"/>
      <point x="417" y="210"/>
      <point x="419" y="223" type="curve"/>
      <point x="428" y="259"/>
      <point x="390" y="288"/>
      <point x="332" y="288" type="curve" smooth="yes"/>
      <point x="308" y="288"/>
      <point x="303" y="281"/>
      <point x="298" y="263" type="curve" smooth="yes"/>
      <point x="282" y="210"/>
      <point x="267" y="137"/>
      <point x="265" y="125" type="curve" smooth="yes"/>
      <point x="261" y="92"/>
      <point x="269" y="71"/>
      <point x="294" y="61" type="curve" smooth="yes"/>
      <point x="310" y="54"/>
      <point x="327" y="43"/>
      <point x="325" y="24" type="curve" smooth="yes"/>
      <point x="323" y="13"/>
      <point x="306" y="-3"/>
      <point x="284" y="0" type="curve" smooth="yes"/>
      <point x="219" y="8"/>
      <point x="35" y="-1"/>
      <point x="12" y="-2" type="curve" smooth="yes"/>
      <point x="2" y="-3"/>
      <point x="-5" y="8"/>
      <point x="-4" y="19" type="curve"/>
      <point x="-4" y="37"/>
      <point x="29" y="54"/>
      <point x="43" y="56" type="curve" smooth="yes"/>
      <point x="78" y="61"/>
      <point x="99" y="93"/>
      <point x="112" y="124" type="curve" smooth="yes"/>
      <point x="128" y="162"/>
      <point x="197" y="458"/>
      <point x="203" y="489" type="curve"/>
      <point x="211" y="545"/>
      <point x="160" y="556"/>
      <point x="144" y="559" type="curve" smooth="yes"/>
      <point x="131" y="561"/>
      <point x="133" y="581"/>
    </contour>
  </outline>
</glyph>
<glyph name="H" format="1">
  <advance width="810"/>
  <unicode hex="0048"/>
  <outline>
    <contour>
      <point x="624" y="487" type="curve" smooth="yes"/>
      <point x="629" y="543"/>
      <point x="581" y="554"/>
      <point x="565" y="557" type="curve" smooth="yes"/>
      <point x="552" y="560"/>
      <point x="554" y="579"/>
      <point x="556" y="585" type="curve"/>
      <point x="557" y="593"/>
      <point x="568" y="611"/>
      <point x="600" y="608" type="curve"/>
      <point x="630" y="604"/>
      <point x="800" y="604"/>
      <point x="855" y="608" type="curve" smooth="yes"/>
      <point x="876" y="609"/>
      <point x="882" y="597"/>
      <point x="879" y="582" type="curve"/>
      <point x="875" y="572"/>
      <point x="864" y="558"/>
      <point x="850" y="556" type="curve" smooth="yes"/>
      <point x="804" y="547"/>
      <point x="787" y="527"/>
      <point x="771" y="483" type="curve" smooth="yes"/>
      <point x="765" y="467"/>
      <point x="694" y="186"/>
      <point x="686" y="125" type="curve" smooth="yes"/>
      <point x="682" y="92"/>
      <point x="689" y="71"/>
      <point x="715" y="61" type="curve" smooth="yes"/>
      <point x="731" y="54"/>
      <point x="748" y="43"/>
      <point x="746" y="24" type="curve" smooth="yes"/>
      <point x="744" y="13"/>
      <point x="726" y="-3"/>
      <point x="705" y="0" type="curve" smooth="yes"/>
      <point x="640" y="8"/>
      <point x="456" y="-1"/>
      <point x="433" y="-2" type="curve" smooth="yes"/>
      <point x="423" y="-3"/>
      <point x="416" y="8"/>
      <point x="417" y="19" type="curve"/>
      <point x="417" y="37"/>
      <point x="449" y="54"/>
      <point x="464" y="56" type="curve" smooth="yes"/>
      <point x="499" y="61"/>
      <point x="520" y="93"/>
      <point x="533" y="124" type="curve" smooth="yes"/>
      <point x="540" y="140"/>
      <point x="556" y="205"/>
      <point x="574" y="277" type="curve" smooth="yes"/>
      <point x="581" y="304"/>
      <point x="577" y="308"/>
      <point x="555" y="308" type="curve" smooth="yes"/>
      <point x="332" y="308" type="line" smooth="yes"/>
      <point x="317" y="308"/>
      <point x="305" y="306"/>
      <point x="297" y="277" type="curve" smooth="yes"/>
      <point x="281" y="211"/>
      <point x="268" y="149"/>
      <point x="265" y="125" type="curve" smooth="yes"/>
      <point x="261" y="92"/>
      <point x="269" y="71"/>
      <point x="294" y="61" type="curve" smooth="yes"/>
      <point x="310" y="54"/>
      <point x="327" y="43"/>
      <point x="325" y="24" type="curve" smooth="yes"/>
      <point x="323" y="13"/>
      <point x="306" y="-3"/>
      <point x="284" y="0" type="curve" smooth="yes"/>
      <point x="219" y="8"/>
      <point x="35" y="-1"/>
      <point x="12" y="-2" type="curve" smooth="yes"/>
      <point x="2" y="-3"/>
      <point x="-5" y="8"/>
      <point x="-4" y="19" type="curve"/>
      <point x="-4" y="37"/>
      <point x="29" y="54"/>
      <point x="43" y="56" type="curve" smooth="yes"/>
      <point x="78" y="61"/>
      <point x="99" y="93"/>
      <point x="112" y="124" type="curve" smooth="yes"/>
      <point x="128" y="162"/>
      <point x="197" y="456"/>
      <point x="203" y="487" type="curve"/>
      <point x="211" y="543"/>
      <point x="160" y="554"/>
      <point x="144" y="557" type="curve" smooth="yes"/>
      <point x="131" y="560"/>
      <point x="133" y="579"/>
      <point x="135" y="585" type="curve"/>
      <point x="136" y="593"/>
      <point x="147" y="611"/>
      <point x="179" y="608" type="curve"/>
      <point x="209" y="604"/>
      <point x="379" y="604"/>
      <point x="434" y="608" type="curve" smooth="yes"/>
      <point x="455" y="609"/>
      <point x="461" y="597"/>
      <point x="458" y="582" type="curve" smooth="yes"/>
      <point x="455" y="572"/>
      <point x="444" y="558"/>
      <point x="429" y="556" type="curve" smooth="yes"/>
      <point x="383" y="547"/>
      <point x="367" y="526"/>
      <point x="350" y="483" type="curve" smooth="yes"/>
      <point x="343" y="464"/>
      <point x="338" y="444"/>
      <point x="327" y="398" type="curve"/>
      <point x="322" y="372"/>
      <point x="333" y="370"/>
      <point x="352" y="370" type="curve" smooth="yes"/>
      <point x="565" y="370" type="line" smooth="yes"/>
      <point x="590" y="370"/>
      <point x="598" y="379"/>
      <point x="605" y="407" type="curve" smooth="yes"/>
      <point x="616" y="447"/>
      <point x="623" y="478"/>
    </contour>
  </outline>
</glyph>
<glyph name="I" format="1">
  <advance width="388"/>
  <unicode hex="0049"/>
  <outline>
    <contour>
      <point x="434" y="606" type="curve" smooth="yes"/>
      <point x="455" y="607"/>
      <point x="460" y="595"/>
      <point x="457" y="580" type="curve"/>
      <point x="454" y="571"/>
      <point x="443" y="556"/>
      <point x="428" y="554" type="curve" smooth="yes"/>
      <point x="382" y="545"/>
      <point x="365" y="525"/>
      <point x="349" y="481" type="curve" smooth="yes"/>
      <point x="342" y="459"/>
      <point x="273" y="185"/>
      <point x="265" y="125" type="curve" smooth="yes"/>
      <point x="261" y="92"/>
      <point x="269" y="71"/>
      <point x="294" y="61" type="curve" smooth="yes"/>
      <point x="310" y="54"/>
      <point x="327" y="43"/>
      <point x="325" y="24" type="curve" smooth="yes"/>
      <point x="323" y="13"/>
      <point x="306" y="-3"/>
      <point x="284" y="0" type="curve" smooth="yes"/>
      <point x="219" y="8"/>
      <point x="35" y="-1"/>
      <point x="12" y="-2" type="curve" smooth="yes"/>
      <point x="2" y="-3"/>
      <point x="-5" y="8"/>
      <point x="-4" y="19" type="curve"/>
      <point x="-4" y="37"/>
      <point x="29" y="54"/>
      <point x="43" y="56" type="curve" smooth="yes"/>
      <point x="78" y="61"/>
      <point x="99" y="93"/>
      <point x="112" y="124" type="curve" smooth="yes"/>
      <point x="125" y="157"/>
      <point x="198" y="444"/>
      <point x="202" y="486" type="curve" smooth="yes"/>
      <point x="208" y="542"/>
      <point x="159" y="552"/>
      <point x="143" y="556" type="curve"/>
      <point x="130" y="558"/>
      <point x="132" y="577"/>
      <point x="134" y="583" type="curve" smooth="yes"/>
      <point x="136" y="592"/>
      <point x="146" y="609"/>
      <point x="178" y="606" type="curve" smooth="yes"/>
      <point x="208" y="603"/>
      <point x="378" y="603"/>
    </contour>
  </outline>
</glyph>
<glyph name="J" format="1">
  <advance width="366"/>
  <unicode hex="004A"/>
  <outline>
    <contour>
      <point x="173" y="606" type="curve" smooth="yes"/>
      <point x="203" y="603"/>
      <point x="373" y="603"/>
      <point x="428" y="606" type="curve" smooth="yes"/>
      <point x="449" y="607"/>
      <point x="455" y="595"/>
      <point x="452" y="580" type="curve"/>
      <point x="449" y="571"/>
      <point x="438" y="556"/>
      <point x="423" y="554" type="curve" smooth="yes"/>
      <point x="377" y="545"/>
      <point x="360" y="525"/>
      <point x="344" y="481" type="curve" smooth="yes"/>
      <point x="340" y="470"/>
      <point x="309" y="322"/>
      <point x="279" y="219" type="curve" smooth="yes"/>
      <point x="264" y="169"/>
      <point x="246" y="122"/>
      <point x="224" y="70" type="curve" smooth="yes"/>
      <point x="146" y="-112"/>
      <point x="8" y="-237"/>
      <point x="-94" y="-237" type="curve" smooth="yes"/>
      <point x="-162" y="-237"/>
      <point x="-206" y="-210"/>
      <point x="-205" y="-161" type="curve" smooth="yes"/>
      <point x="-205" y="-118"/>
      <point x="-172" y="-81"/>
      <point x="-140" y="-59" type="curve" smooth="yes"/>
      <point x="-108" y="-37"/>
      <point x="-82" y="-36"/>
      <point x="-76" y="-39" type="curve"/>
      <point x="-62" y="-43"/>
      <point x="-57" y="-64"/>
      <point x="-65" y="-80" type="curve" smooth="yes"/>
      <point x="-81" y="-113"/>
      <point x="-77" y="-152"/>
      <point x="-38" y="-148" type="curve"/>
      <point x="-6" y="-146"/>
      <point x="29" y="-128"/>
      <point x="76" y="13" type="curve" smooth="yes"/>
      <point x="98" y="76"/>
      <point x="114" y="136"/>
      <point x="129" y="194" type="curve" smooth="yes"/>
      <point x="156" y="296"/>
      <point x="193" y="462"/>
      <point x="197" y="486" type="curve" smooth="yes"/>
      <point x="205" y="541"/>
      <point x="154" y="552"/>
      <point x="138" y="556" type="curve"/>
      <point x="125" y="558"/>
      <point x="127" y="577"/>
      <point x="129" y="583" type="curve"/>
      <point x="130" y="592"/>
      <point x="141" y="609"/>
    </contour>
  </outline>
</glyph>
<glyph name="M" format="1">
  <advance width="1023"/>
  <unicode hex="004D"/>
  <outline>
    <contour>
      <point x="187" y="585" type="curve"/>
      <point x="189" y="597"/>
      <point x="210" y="607"/>
      <point x="223" y="607" type="curve"/>
      <point x="220" y="607"/>
      <point x="342" y="609"/>
      <point x="372" y="603" type="curve" smooth="yes"/>
      <point x="410" y="595"/>
      <point x="441" y="561"/>
      <point x="445" y="524" type="curve" smooth="yes"/>
      <point x="451" y="472"/>
      <point x="488" y="237"/>
      <point x="494" y="178" type="curve" smooth="yes"/>
      <point x="495" y="169"/>
      <point x="510" y="163"/>
      <point x="519" y="178" type="curve" smooth="yes"/>
      <point x="591" y="288"/>
      <point x="689" y="476"/>
      <point x="702" y="500" type="curve" smooth="yes"/>
      <point x="743" y="574"/>
      <point x="801" y="603"/>
      <point x="864" y="606" type="curve" smooth="yes"/>
      <point x="891" y="608"/>
      <point x="963" y="608"/>
      <point x="979" y="608" type="curve" smooth="yes"/>
      <point x="993" y="608"/>
      <point x="998" y="592"/>
      <point x="997" y="581" type="curve"/>
      <point x="995" y="572"/>
      <point x="980" y="556"/>
      <point x="973" y="554" type="curve" smooth="yes"/>
      <point x="921" y="541"/>
      <point x="909" y="520"/>
      <point x="907" y="481" type="curve"/>
      <point x="897" y="352"/>
      <point x="900" y="249"/>
      <point x="902" y="119" type="curve" smooth="yes"/>
      <point x="902" y="77"/>
      <point x="910" y="63"/>
      <point x="947" y="53" type="curve" smooth="yes"/>
      <point x="959" y="50"/>
      <point x="976" y="36"/>
      <point x="974" y="20" type="curve" smooth="yes"/>
      <point x="973" y="8"/>
      <point x="960" y="-5"/>
      <point x="940" y="-2" type="curve" smooth="yes"/>
      <point x="880" y="7"/>
      <point x="742" y="4"/>
      <point x="690" y="0" type="curve" smooth="yes"/>
      <point x="670" y="-2"/>
      <point x="656" y="11"/>
      <point x="656" y="23" type="curve" smooth="yes"/>
      <point x="656" y="32"/>
      <point x="659" y="47"/>
      <point x="679" y="53" type="curve" smooth="yes"/>
      <point x="702" y="61"/>
      <point x="742" y="76"/>
      <point x="747" y="122" type="curve"/>
      <point x="756" y="244"/>
      <point x="754" y="300"/>
      <point x="753" y="418" type="curve" smooth="yes"/>
      <point x="753" y="439"/>
      <point x="738" y="431"/>
      <point x="731" y="418" type="curve"/>
      <point x="715" y="393"/>
      <point x="581" y="161"/>
      <point x="523" y="42" type="curve"/>
      <point x="523" y="42"/>
      <point x="512" y="22"/>
      <point x="501" y="16" type="curve" smooth="yes"/>
      <point x="481" y="5"/>
      <point x="418" y="-12"/>
      <point x="386" y="-12" type="curve" smooth="yes"/>
      <point x="354" y="-12"/>
      <point x="360" y="29"/>
      <point x="360" y="54" type="curve" smooth="yes"/>
      <point x="360" y="141"/>
      <point x="341" y="298"/>
      <point x="318" y="412" type="curve" smooth="yes"/>
      <point x="316" y="423"/>
      <point x="311" y="442"/>
      <point x="293" y="412" type="curve"/>
      <point x="258" y="334"/>
      <point x="222" y="269"/>
      <point x="187" y="182" type="curve" smooth="yes"/>
      <point x="175" y="152"/>
      <point x="168" y="129"/>
      <point x="171" y="99" type="curve" smooth="yes"/>
      <point x="173" y="78"/>
      <point x="183" y="61"/>
      <point x="211" y="53" type="curve" smooth="yes"/>
      <point x="235" y="46"/>
      <point x="236" y="32"/>
      <point x="237" y="21" type="curve" smooth="yes"/>
      <point x="237" y="11"/>
      <point x="221" y="-3"/>
      <point x="204" y="-2" type="curve" smooth="yes"/>
      <point x="158" y="3"/>
      <point x="70" y="3"/>
      <point x="31" y="0" type="curve" smooth="yes"/>
      <point x="11" y="-2"/>
      <point x="-1" y="3"/>
      <point x="-4" y="13" type="curve" smooth="yes"/>
      <point x="-8" y="29"/>
      <point x="25" y="58"/>
      <point x="45" y="87" type="curve" smooth="yes"/>
      <point x="96" y="160"/>
      <point x="219" y="379"/>
      <point x="249" y="460" type="curve" smooth="yes"/>
      <point x="269" y="516"/>
      <point x="255" y="547"/>
      <point x="205" y="553" type="curve" smooth="yes"/>
      <point x="191" y="555"/>
      <point x="183" y="572"/>
    </contour>
  </outline>
</glyph>
<glyph name="O" format="1">
  <advance width="692"/>
  <unicode hex="004F"/>
  <outline>
    <contour>
      <point x="428" y="614" type="curve" smooth="yes"/>
      <point x="601" y="614"/>
      <point x="674" y="490"/>
      <point x="671" y="369" type="curve" smooth="yes"/>
      <point x="666" y="183"/>
      <point x="519" y="-17"/>
      <point x="322" y="-17" type="curve" smooth="yes"/>
      <point x="120" y="-17"/>
      <point x="75" y="139"/>
      <point x="75" y="236" type="curve" smooth="yes"/>
      <point x="75" y="418"/>
      <point x="242" y="614"/>
    </contour>
    <contour>
      <point x="224" y="260" type="curve" smooth="yes"/>
      <point x="211" y="121"/>
      <point x="267" y="61"/>
      <point x="330" y="61" type="curve" smooth="yes"/>
      <point x="397" y="61"/>
      <point x="506" y="126"/>
      <point x="523" y="349" type="curve" smooth="yes"/>
      <point x="531" y="455"/>
      <point x="494" y="535"/>
      <point x="411" y="535" type="curve" smooth="yes"/>
      <point x="349" y="535"/>
      <point x="241" y="455"/>
    </contour>
  </outline>
</glyph>
<glyph name="P" format="1">
  <advance width="633"/>
  <unicode hex="0050"/>
  <outline>
    <contour>
      <point x="178" y="609" type="curve" smooth="yes"/>
      <point x="190" y="607"/>
      <point x="258" y="604"/>
      <point x="302" y="604" type="curve" smooth="yes"/>
      <point x="367" y="604"/>
      <point x="424" y="606"/>
      <point x="498" y="607" type="curve" smooth="yes"/>
      <point x="593" y="608"/>
      <point x="662" y="548"/>
      <point x="656" y="464" type="curve" smooth="yes"/>
      <point x="646" y="322"/>
      <point x="500" y="246"/>
      <point x="373" y="246" type="curve" smooth="yes"/>
      <point x="352" y="246"/>
      <point x="341" y="264"/>
      <point x="347" y="279" type="curve" smooth="yes"/>
      <point x="354" y="295"/>
      <point x="367" y="306"/>
      <point x="385" y="306" type="curve" smooth="yes"/>
      <point x="446" y="306"/>
      <point x="487" y="348"/>
      <point x="502" y="439" type="curve" smooth="yes"/>
      <point x="512" y="501"/>
      <point x="497" y="550"/>
      <point x="422" y="550" type="curve" smooth="yes"/>
      <point x="380" y="550"/>
      <point x="366" y="541"/>
      <point x="358" y="513" type="curve" smooth="yes"/>
      <point x="332" y="423"/>
      <point x="272" y="179"/>
      <point x="265" y="125" type="curve" smooth="yes"/>
      <point x="261" y="92"/>
      <point x="269" y="71"/>
      <point x="294" y="61" type="curve" smooth="yes"/>
      <point x="310" y="54"/>
      <point x="327" y="43"/>
      <point x="325" y="24" type="curve" smooth="yes"/>
      <point x="323" y="13"/>
      <point x="306" y="-3"/>
      <point x="284" y="0" type="curve" smooth="yes"/>
      <point x="219" y="8"/>
      <point x="35" y="-1"/>
      <point x="12" y="-2" type="curve" smooth="yes"/>
      <point x="2" y="-3"/>
      <point x="-5" y="8"/>
      <point x="-4" y="19" type="curve"/>
      <point x="-4" y="39"/>
      <point x="23" y="53"/>
      <point x="43" y="56" type="curve" smooth="yes"/>
      <point x="78" y="61"/>
      <point x="99" y="93"/>
      <point x="112" y="124" type="curve" smooth="yes"/>
      <point x="128" y="162"/>
      <point x="196" y="457"/>
      <point x="202" y="488" type="curve"/>
      <point x="210" y="544"/>
      <point x="163" y="555"/>
      <point x="147" y="558" type="curve" smooth="yes"/>
      <point x="135" y="561"/>
      <point x="132" y="580"/>
      <point x="134" y="586" type="curve" smooth="yes"/>
      <point x="136" y="594"/>
      <point x="146" y="612"/>
    </contour>
  </outline>
</glyph>
<glyph name="Q" format="1">
  <advance width="688"/>
  <unicode hex="0051"/>
  <outline>
    <contour>
      <point x="423" y="614" type="curve" smooth="yes"/>
      <point x="597" y="614"/>
      <point x="670" y="490"/>
      <point x="667" y="369" type="curve" smooth="yes"/>
      <point x="662" y="183"/>
      <point x="514" y="-17"/>
      <point x="318" y="-17" type="curve" smooth="yes"/>
      <point x="272" y="-17"/>
      <point x="282" y="-14"/>
      <point x="249" y="-47" type="curve" smooth="yes"/>
      <point x="240" y="-56"/>
      <point x="242" y="-65"/>
      <point x="256" y="-67" type="curve" smooth="yes"/>
      <point x="331" y="-81"/>
      <point x="348" y="-95"/>
      <point x="416" y="-120" type="curve" smooth="yes"/>
      <point x="443" y="-129"/>
      <point x="458" y="-132"/>
      <point x="484" y="-132" type="curve" smooth="yes"/>
      <point x="536" y="-132"/>
      <point x="570" y="-102"/>
      <point x="598" y="-68" type="curve" smooth="yes"/>
      <point x="614" y="-48"/>
      <point x="634" y="-45"/>
      <point x="644" y="-48" type="curve" smooth="yes"/>
      <point x="658" y="-51"/>
      <point x="659" y="-76"/>
      <point x="653" y="-86" type="curve" smooth="yes"/>
      <point x="630" y="-129"/>
      <point x="590" y="-185"/>
      <point x="551" y="-220" type="curve" smooth="yes"/>
      <point x="524" y="-243"/>
      <point x="501" y="-259"/>
      <point x="473" y="-259" type="curve" smooth="yes"/>
      <point x="412" y="-259"/>
      <point x="351" y="-231"/>
      <point x="301" y="-212" type="curve" smooth="yes"/>
      <point x="263" y="-198"/>
      <point x="203" y="-178"/>
      <point x="140" y="-181" type="curve" smooth="yes"/>
      <point x="120" y="-182"/>
      <point x="81" y="-197"/>
      <point x="18" y="-205" type="curve" smooth="yes"/>
      <point x="-18" y="-209"/>
      <point x="-72" y="-213"/>
      <point x="-72" y="-182" type="curve" smooth="yes"/>
      <point x="-72" y="-168"/>
      <point x="-40" y="-111"/>
      <point x="-29" y="-98" type="curve" smooth="yes"/>
      <point x="-17" y="-83"/>
      <point x="-13" y="-78"/>
      <point x="9" y="-74" type="curve" smooth="yes"/>
      <point x="35" y="-69"/>
      <point x="74" y="-63"/>
      <point x="96" y="-61" type="curve" smooth="yes"/>
      <point x="126" y="-59"/>
      <point x="153" y="-48"/>
      <point x="160" y="-45" type="curve" smooth="yes"/>
      <point x="177" y="-36"/>
      <point x="184" y="-29"/>
      <point x="190" y="-22" type="curve" smooth="yes"/>
      <point x="213" y="1"/>
      <point x="215" y="-2"/>
      <point x="186" y="13" type="curve" smooth="yes"/>
      <point x="94" y="63"/>
      <point x="71" y="165"/>
      <point x="71" y="236" type="curve" smooth="yes"/>
      <point x="71" y="418"/>
      <point x="238" y="614"/>
    </contour>
    <contour>
      <point x="220" y="260" type="curve" smooth="yes"/>
      <point x="213" y="181"/>
      <point x="235" y="106"/>
      <point x="253" y="88" type="curve" smooth="yes"/>
      <point x="269" y="72"/>
      <point x="274" y="72"/>
      <point x="285" y="89" type="curve" smooth="yes"/>
      <point x="302" y="113"/>
      <point x="313" y="138"/>
      <point x="327" y="166" type="curve" smooth="yes"/>
      <point x="334" y="182"/>
      <point x="345" y="193"/>
      <point x="364" y="189" type="curve" smooth="yes"/>
      <point x="376" y="186"/>
      <point x="386" y="168"/>
      <point x="379" y="156" type="curve" smooth="yes"/>
      <point x="366" y="131"/>
      <point x="356" y="104"/>
      <point x="338" y="80" type="curve" smooth="yes"/>
      <point x="327" y="65"/>
      <point x="336" y="61"/>
      <point x="351" y="65" type="curve" smooth="yes"/>
      <point x="417" y="82"/>
      <point x="503" y="157"/>
      <point x="519" y="349" type="curve" smooth="yes"/>
      <point x="527" y="455"/>
      <point x="490" y="532"/>
      <point x="407" y="532" type="curve" smooth="yes"/>
      <point x="345" y="532"/>
      <point x="237" y="455"/>
    </contour>
  </outline>
</glyph>
<glyph name="R" format="1">
  <advance width="698"/>
  <unicode hex="0052"/>
  <outline>
    <contour>
      <point x="174" y="609" type="curve" smooth="yes"/>
      <point x="186" y="608"/>
      <point x="253" y="604"/>
      <point x="298" y="604" type="curve" smooth="yes"/>
      <point x="363" y="604"/>
      <point x="420" y="607"/>
      <point x="494" y="608" type="curve" smooth="yes"/>
      <point x="588" y="609"/>
      <point x="657" y="549"/>
      <point x="652" y="465" type="curve"/>
      <point x="644" y="356"/>
      <point x="561" y="320"/>
      <point x="489" y="292" type="curve" smooth="yes"/>
      <point x="471" y="285"/>
      <point x="471" y="279"/>
      <point x="475" y="256" type="curve" smooth="yes"/>
      <point x="500" y="137"/>
      <point x="570" y="90"/>
      <point x="621" y="99" type="curve" smooth="yes"/>
      <point x="649" y="104"/>
      <point x="662" y="98"/>
      <point x="667" y="92" type="curve"/>
      <point x="672" y="84"/>
      <point x="674" y="67"/>
      <point x="662" y="60" type="curve" smooth="yes"/>
      <point x="631" y="42"/>
      <point x="586" y="16"/>
      <point x="541" y="4" type="curve" smooth="yes"/>
      <point x="497" y="-7"/>
      <point x="458" y="-4"/>
      <point x="429" y="27" type="curve" smooth="yes"/>
      <point x="372" y="89"/>
      <point x="334" y="194"/>
      <point x="334" y="277" type="curve" smooth="yes"/>
      <point x="334" y="293"/>
      <point x="344" y="301"/>
      <point x="359" y="305" type="curve"/>
      <point x="425" y="317"/>
      <point x="485" y="360"/>
      <point x="497" y="440" type="curve"/>
      <point x="508" y="502"/>
      <point x="492" y="551"/>
      <point x="418" y="551" type="curve" smooth="yes"/>
      <point x="376" y="551"/>
      <point x="362" y="542"/>
      <point x="354" y="513" type="curve" smooth="yes"/>
      <point x="327" y="424"/>
      <point x="268" y="179"/>
      <point x="261" y="125" type="curve" smooth="yes"/>
      <point x="257" y="92"/>
      <point x="264" y="71"/>
      <point x="290" y="61" type="curve" smooth="yes"/>
      <point x="306" y="54"/>
      <point x="323" y="43"/>
      <point x="321" y="24" type="curve" smooth="yes"/>
      <point x="319" y="13"/>
      <point x="301" y="-3"/>
      <point x="279" y="0" type="curve" smooth="yes"/>
      <point x="215" y="8"/>
      <point x="31" y="-1"/>
      <point x="8" y="-2" type="curve" smooth="yes"/>
      <point x="-3" y="-3"/>
      <point x="-9" y="8"/>
      <point x="-8" y="19" type="curve"/>
      <point x="-8" y="39"/>
      <point x="19" y="53"/>
      <point x="39" y="56" type="curve" smooth="yes"/>
      <point x="74" y="61"/>
      <point x="95" y="93"/>
      <point x="108" y="124" type="curve" smooth="yes"/>
      <point x="124" y="162"/>
      <point x="192" y="458"/>
      <point x="198" y="489" type="curve"/>
      <point x="206" y="545"/>
      <point x="159" y="556"/>
      <point x="143" y="559" type="curve" smooth="yes"/>
      <point x="130" y="561"/>
      <point x="128" y="581"/>
      <point x="130" y="587" type="curve"/>
      <point x="131" y="595"/>
      <point x="142" y="613"/>
    </contour>
  </outline>
</glyph>
<glyph name="V" format="1">
  <advance width="673"/>
  <unicode hex="0056"/>
  <outline>
    <contour>
      <point x="109" y="581" type="curve" smooth="yes"/>
      <point x="109" y="587"/>
      <point x="118" y="612"/>
      <point x="146" y="608" type="curve" smooth="yes"/>
      <point x="176" y="604"/>
      <point x="323" y="601"/>
      <point x="363" y="608" type="curve" smooth="yes"/>
      <point x="395" y="613"/>
      <point x="403" y="595"/>
      <point x="404" y="587" type="curve" smooth="yes"/>
      <point x="405" y="575"/>
      <point x="389" y="558"/>
      <point x="373" y="554" type="curve"/>
      <point x="341" y="543"/>
      <point x="324" y="532"/>
      <point x="332" y="480" type="curve" smooth="yes"/>
      <point x="345" y="401"/>
      <point x="354" y="318"/>
      <point x="368" y="175" type="curve" smooth="yes"/>
      <point x="370" y="158"/>
      <point x="381" y="156"/>
      <point x="396" y="181" type="curve" smooth="yes"/>
      <point x="435" y="243"/>
      <point x="441" y="253"/>
      <point x="485" y="308" type="curve"/>
      <point x="529" y="366"/>
      <point x="572" y="415"/>
      <point x="576" y="465" type="curve"/>
      <point x="577" y="496"/>
      <point x="561" y="513"/>
      <point x="522" y="503" type="curve" smooth="yes"/>
      <point x="507" y="499"/>
      <point x="496" y="508"/>
      <point x="493" y="521" type="curve" smooth="yes"/>
      <point x="489" y="540"/>
      <point x="529" y="573"/>
      <point x="544" y="582" type="curve" smooth="yes"/>
      <point x="580" y="604"/>
      <point x="614" y="616"/>
      <point x="643" y="616" type="curve" smooth="yes"/>
      <point x="682" y="615"/>
      <point x="726" y="588"/>
      <point x="721" y="538" type="curve"/>
      <point x="716" y="444"/>
      <point x="676" y="428"/>
      <point x="551" y="294" type="curve" smooth="yes"/>
      <point x="514" y="254"/>
      <point x="458" y="177"/>
      <point x="436" y="141" type="curve" smooth="yes"/>
      <point x="423" y="120"/>
      <point x="407" y="93"/>
      <point x="400" y="66" type="curve" smooth="yes"/>
      <point x="394" y="42"/>
      <point x="387" y="33"/>
      <point x="365" y="18" type="curve" smooth="yes"/>
      <point x="354" y="10"/>
      <point x="313" y="-1"/>
      <point x="285" y="-4" type="curve" smooth="yes"/>
      <point x="244" y="-8"/>
      <point x="240" y="8"/>
      <point x="237" y="63" type="curve" smooth="yes"/>
      <point x="230" y="205"/>
      <point x="212" y="370"/>
      <point x="188" y="488" type="curve"/>
      <point x="180" y="534"/>
      <point x="158" y="549"/>
      <point x="130" y="556" type="curve" smooth="yes"/>
      <point x="121" y="558"/>
      <point x="109" y="571"/>
    </contour>
  </outline>
</glyph>
<glyph name="W" format="1">
  <advance width="989"/>
  <unicode hex="0057"/>
  <outline>
    <contour>
      <point x="432" y="581" type="curve" smooth="yes"/>
      <point x="432" y="587"/>
      <point x="440" y="612"/>
      <point x="468" y="608" type="curve" smooth="yes"/>
      <point x="498" y="604"/>
      <point x="633" y="601"/>
      <point x="673" y="608" type="curve" smooth="yes"/>
      <point x="705" y="613"/>
      <point x="713" y="595"/>
      <point x="714" y="587" type="curve" smooth="yes"/>
      <point x="715" y="575"/>
      <point x="705" y="559"/>
      <point x="689" y="554" type="curve" smooth="yes"/>
      <point x="665" y="545"/>
      <point x="647" y="526"/>
      <point x="655" y="480" type="curve" smooth="yes"/>
      <point x="668" y="401"/>
      <point x="671" y="318"/>
      <point x="684" y="175" type="curve" smooth="yes"/>
      <point x="686" y="158"/>
      <point x="698" y="156"/>
      <point x="713" y="181" type="curve" smooth="yes"/>
      <point x="752" y="243"/>
      <point x="758" y="253"/>
      <point x="801" y="308" type="curve" smooth="yes"/>
      <point x="846" y="366"/>
      <point x="889" y="415"/>
      <point x="892" y="465" type="curve" smooth="yes"/>
      <point x="894" y="496"/>
      <point x="877" y="513"/>
      <point x="838" y="503" type="curve" smooth="yes"/>
      <point x="823" y="499"/>
      <point x="812" y="508"/>
      <point x="810" y="521" type="curve" smooth="yes"/>
      <point x="806" y="540"/>
      <point x="845" y="573"/>
      <point x="860" y="582" type="curve" smooth="yes"/>
      <point x="896" y="604"/>
      <point x="930" y="616"/>
      <point x="960" y="616" type="curve" smooth="yes"/>
      <point x="998" y="615"/>
      <point x="1042" y="588"/>
      <point x="1038" y="538" type="curve"/>
      <point x="1033" y="444"/>
      <point x="992" y="428"/>
      <point x="867" y="294" type="curve" smooth="yes"/>
      <point x="831" y="254"/>
      <point x="774" y="177"/>
      <point x="753" y="141" type="curve" smooth="yes"/>
      <point x="740" y="120"/>
      <point x="723" y="93"/>
      <point x="716" y="66" type="curve" smooth="yes"/>
      <point x="710" y="42"/>
      <point x="704" y="33"/>
      <point x="682" y="18" type="curve" smooth="yes"/>
      <point x="670" y="10"/>
      <point x="630" y="-1"/>
      <point x="601" y="-4" type="curve" smooth="yes"/>
      <point x="561" y="-8"/>
      <point x="556" y="8"/>
      <point x="553" y="63" type="curve" smooth="yes"/>
      <point x="550" y="119"/>
      <point x="549" y="178"/>
      <point x="543" y="238" type="curve" smooth="yes"/>
      <point x="540" y="263"/>
      <point x="538" y="263"/>
      <point x="522" y="243" type="curve" smooth="yes"/>
      <point x="489" y="203"/>
      <point x="460" y="157"/>
      <point x="449" y="141" type="curve"/>
      <point x="437" y="120"/>
      <point x="420" y="93"/>
      <point x="413" y="66" type="curve" smooth="yes"/>
      <point x="407" y="42"/>
      <point x="401" y="33"/>
      <point x="379" y="18" type="curve" smooth="yes"/>
      <point x="367" y="10"/>
      <point x="327" y="-1"/>
      <point x="298" y="-4" type="curve" smooth="yes"/>
      <point x="258" y="-8"/>
      <point x="253" y="8"/>
      <point x="250" y="63" type="curve" smooth="yes"/>
      <point x="243" y="205"/>
      <point x="226" y="370"/>
      <point x="201" y="488" type="curve"/>
      <point x="194" y="534"/>
      <point x="158" y="549"/>
      <point x="130" y="556" type="curve" smooth="yes"/>
      <point x="121" y="558"/>
      <point x="109" y="571"/>
      <point x="109" y="581" type="curve" smooth="yes"/>
      <point x="109" y="587"/>
      <point x="118" y="612"/>
      <point x="146" y="608" type="curve" smooth="yes"/>
      <point x="176" y="604"/>
      <point x="317" y="601"/>
      <point x="357" y="608" type="curve" smooth="yes"/>
      <point x="389" y="613"/>
      <point x="397" y="595"/>
      <point x="398" y="587" type="curve" smooth="yes"/>
      <point x="399" y="575"/>
      <point x="383" y="558"/>
      <point x="367" y="554" type="curve"/>
      <point x="346" y="546"/>
      <point x="338" y="530"/>
      <point x="346" y="480" type="curve" smooth="yes"/>
      <point x="359" y="401"/>
      <point x="368" y="318"/>
      <point x="381" y="175" type="curve" smooth="yes"/>
      <point x="383" y="158"/>
      <point x="396" y="154"/>
      <point x="411" y="179" type="curve" smooth="yes"/>
      <point x="444" y="231"/>
      <point x="482" y="274"/>
      <point x="513" y="318" type="curve" smooth="yes"/>
      <point x="524" y="334"/>
      <point x="528" y="347"/>
      <point x="526" y="367" type="curve" smooth="yes"/>
      <point x="522" y="413"/>
      <point x="518" y="451"/>
      <point x="510" y="488" type="curve"/>
      <point x="503" y="534"/>
      <point x="481" y="546"/>
      <point x="452" y="556" type="curve" smooth="yes"/>
      <point x="444" y="558"/>
      <point x="431" y="571"/>
    </contour>
  </outline>
</glyph>
<glyph name="X" format="1">
  <advance width="801"/>
  <unicode hex="0058"/>
  <outline>
    <contour>
      <point x="-7" y="13" type="curve"/>
      <point x="-8" y="24"/>
      <point x="-5" y="37"/>
      <point x="29" y="54" type="curve" smooth="yes"/>
      <point x="107" y="93"/>
      <point x="196" y="145"/>
      <point x="323" y="290" type="curve" smooth="yes"/>
      <point x="338" y="308"/>
      <point x="337" y="321"/>
      <point x="334" y="340" type="curve" smooth="yes"/>
      <point x="325" y="385"/>
      <point x="296" y="433"/>
      <point x="276" y="473" type="curve" smooth="yes"/>
      <point x="247" y="529"/>
      <point x="224" y="545"/>
      <point x="163" y="545" type="curve" smooth="yes"/>
      <point x="151" y="545"/>
      <point x="125" y="556"/>
      <point x="125" y="568" type="curve" smooth="yes"/>
      <point x="125" y="580"/>
      <point x="140" y="604"/>
      <point x="194" y="607" type="curve"/>
      <point x="256" y="609"/>
      <point x="333" y="609"/>
      <point x="359" y="607" type="curve"/>
      <point x="405" y="601"/>
      <point x="405" y="578"/>
      <point x="406" y="569" type="curve" smooth="yes"/>
      <point x="416" y="502"/>
      <point x="423" y="480"/>
      <point x="444" y="418" type="curve"/>
      <point x="450" y="404"/>
      <point x="458" y="404"/>
      <point x="469" y="413" type="curve" smooth="yes"/>
      <point x="508" y="448"/>
      <point x="543" y="492"/>
      <point x="558" y="528" type="curve" smooth="yes"/>
      <point x="588" y="598"/>
      <point x="614" y="609"/>
      <point x="667" y="607" type="curve" smooth="yes"/>
      <point x="692" y="606"/>
      <point x="755" y="606"/>
      <point x="779" y="607" type="curve" smooth="yes"/>
      <point x="804" y="609"/>
      <point x="810" y="594"/>
      <point x="811" y="587" type="curve"/>
      <point x="811" y="575"/>
      <point x="797" y="561"/>
      <point x="773" y="555" type="curve" smooth="yes"/>
      <point x="682" y="531"/>
      <point x="563" y="430"/>
      <point x="497" y="354" type="curve" smooth="yes"/>
      <point x="481" y="335"/>
      <point x="478" y="333"/>
      <point x="484" y="308" type="curve" smooth="yes"/>
      <point x="499" y="251"/>
      <point x="547" y="167"/>
      <point x="587" y="122" type="curve" smooth="yes"/>
      <point x="616" y="89"/>
      <point x="661" y="74"/>
      <point x="716" y="88" type="curve"/>
      <point x="737" y="92"/>
      <point x="749" y="82"/>
      <point x="753" y="67" type="curve"/>
      <point x="757" y="56"/>
      <point x="753" y="45"/>
      <point x="726" y="30" type="curve"/>
      <point x="686" y="12"/>
      <point x="604" y="-10"/>
      <point x="556" y="-10" type="curve"/>
      <point x="524" y="-8"/>
      <point x="496" y="3"/>
      <point x="469" y="43" type="curve" smooth="yes"/>
      <point x="414" y="124"/>
      <point x="412" y="136"/>
      <point x="381" y="218" type="curve" smooth="yes"/>
      <point x="376" y="231"/>
      <point x="367" y="238"/>
      <point x="349" y="221" type="curve"/>
      <point x="325" y="196"/>
      <point x="271" y="142"/>
      <point x="251" y="82" type="curve" smooth="yes"/>
      <point x="242" y="56"/>
      <point x="239" y="43"/>
      <point x="239" y="18" type="curve" smooth="yes"/>
      <point x="239" y="4"/>
      <point x="228" y="-7"/>
      <point x="188" y="-1" type="curve" smooth="yes"/>
      <point x="123" y="8"/>
      <point x="66" y="3"/>
      <point x="20" y="-3" type="curve" smooth="yes"/>
      <point x="10" y="-4"/>
      <point x="-5" y="3"/>
    </contour>
  </outline>
</glyph>
<glyph name="bracketleft" format="1">
  <advance width="328"/>
  <unicode hex="005B"/>
  <outline>
    <contour>
      <point x="388" y="637" type="curve" smooth="yes"/>
      <point x="402" y="637"/>
      <point x="405" y="618"/>
      <point x="403" y="609" type="curve" smooth="yes"/>
      <point x="400" y="598"/>
      <point x="385" y="585"/>
      <point x="374" y="585" type="curve"/>
      <point x="363" y="583"/>
      <point x="321" y="580"/>
      <point x="303" y="578" type="curve" smooth="yes"/>
      <point x="286" y="577"/>
      <point x="282" y="572"/>
      <point x="276" y="552" type="curve" smooth="yes"/>
      <point x="260" y="497"/>
      <point x="152" y="66"/>
      <point x="132" y="-17" type="curve" smooth="yes"/>
      <point x="128" y="-30"/>
      <point x="128" y="-35"/>
      <point x="143" y="-36" type="curve" smooth="yes"/>
      <point x="149" y="-37"/>
      <point x="204" y="-43"/>
      <point x="215" y="-43" type="curve" smooth="yes"/>
      <point x="226" y="-43"/>
      <point x="237" y="-56"/>
      <point x="234" y="-68" type="curve" smooth="yes"/>
      <point x="232" y="-75"/>
      <point x="220" y="-95"/>
      <point x="202" y="-95" type="curve" smooth="yes"/>
      <point x="191" y="-95"/>
      <point x="24" y="-93"/>
      <point x="9" y="-93" type="curve" smooth="yes"/>
      <point x="-7" y="-93"/>
      <point x="-19" y="-80"/>
      <point x="-14" y="-62" type="curve" smooth="yes"/>
      <point x="36" y="133"/>
      <point x="92" y="334"/>
      <point x="157" y="600" type="curve"/>
      <point x="160" y="617"/>
      <point x="172" y="636"/>
      <point x="194" y="636" type="curve" smooth="yes"/>
      <point x="204" y="636"/>
      <point x="378" y="637"/>
    </contour>
  </outline>
</glyph>
<glyph name="backslash" format="1">
  <advance width="418"/>
  <unicode hex="005C"/>
  <outline>
    <contour>
      <point x="138" y="626" type="curve"/>
      <point x="151" y="627"/>
      <point x="170" y="622"/>
      <point x="183" y="585" type="curve" smooth="yes"/>
      <point x="340" y="121" type="line"/>
      <point x="349" y="98"/>
      <point x="369" y="72"/>
      <point x="367" y="45" type="curve"/>
      <point x="364" y="24"/>
      <point x="332" y="-6"/>
      <point x="322" y="-16" type="curve" smooth="yes"/>
      <point x="299" y="-37"/>
      <point x="282" y="47"/>
      <point x="279" y="61" type="curve" smooth="yes"/>
      <point x="260" y="138"/>
      <point x="149" y="486"/>
      <point x="123" y="561" type="curve" smooth="yes"/>
      <point x="107" y="608"/>
      <point x="115" y="622"/>
    </contour>
  </outline>
</glyph>
<glyph name="bracketright" format="1">
  <advance width="328"/>
  <unicode hex="005D"/>
  <outline>
    <contour>
      <point x="-7" y="-95" type="curve" smooth="yes"/>
      <point x="-21" y="-95"/>
      <point x="-24" y="-76"/>
      <point x="-22" y="-66" type="curve" smooth="yes"/>
      <point x="-19" y="-56"/>
      <point x="-3" y="-43"/>
      <point x="8" y="-43" type="curve"/>
      <point x="19" y="-41"/>
      <point x="61" y="-38"/>
      <point x="78" y="-36" type="curve" smooth="yes"/>
      <point x="95" y="-35"/>
      <point x="99" y="-30"/>
      <point x="105" y="-10" type="curve" smooth="yes"/>
      <point x="121" y="45"/>
      <point x="229" y="476"/>
      <point x="249" y="559" type="curve" smooth="yes"/>
      <point x="253" y="572"/>
      <point x="253" y="577"/>
      <point x="238" y="578" type="curve" smooth="yes"/>
      <point x="232" y="579"/>
      <point x="178" y="585"/>
      <point x="166" y="585" type="curve" smooth="yes"/>
      <point x="156" y="585"/>
      <point x="145" y="598"/>
      <point x="147" y="610" type="curve" smooth="yes"/>
      <point x="149" y="617"/>
      <point x="162" y="637"/>
      <point x="179" y="637" type="curve" smooth="yes"/>
      <point x="190" y="637"/>
      <point x="357" y="635"/>
      <point x="372" y="635" type="curve" smooth="yes"/>
      <point x="388" y="635"/>
      <point x="400" y="622"/>
      <point x="396" y="604" type="curve" smooth="yes"/>
      <point x="345" y="409"/>
      <point x="290" y="208"/>
      <point x="224" y="-58" type="curve"/>
      <point x="221" y="-75"/>
      <point x="210" y="-93"/>
      <point x="187" y="-93" type="curve" smooth="yes"/>
      <point x="178" y="-93"/>
      <point x="3" y="-95"/>
    </contour>
  </outline>
</glyph>
<glyph name="asciicircum" format="1">
  <advance width="488"/>
  <unicode hex="005E"/>
  <outline>
    <contour>
      <point x="266" y="530" type="curve" smooth="yes"/>
      <point x="253" y="514"/>
      <point x="144" y="381"/>
      <point x="124" y="354" type="curve" smooth="yes"/>
      <point x="113" y="340"/>
      <point x="101" y="337"/>
      <point x="82" y="340" type="curve" smooth="yes"/>
      <point x="59" y="344"/>
      <point x="69" y="366"/>
      <point x="97" y="402" type="curve"/>
      <point x="114" y="420"/>
      <point x="226" y="559"/>
      <point x="266" y="612" type="curve" smooth="yes"/>
      <point x="272" y="620"/>
      <point x="280" y="628"/>
      <point x="297" y="632" type="curve" smooth="yes"/>
      <point x="312" y="636"/>
      <point x="314" y="628"/>
      <point x="319" y="610" type="curve"/>
      <point x="340" y="548"/>
      <point x="370" y="485"/>
      <point x="377" y="467" type="curve" smooth="yes"/>
      <point x="384" y="446"/>
      <point x="403" y="414"/>
      <point x="402" y="394" type="curve" smooth="yes"/>
      <point x="402" y="377"/>
      <point x="387" y="349"/>
      <point x="375" y="338" type="curve"/>
      <point x="369" y="331"/>
      <point x="354" y="333"/>
      <point x="351" y="343" type="curve" smooth="yes"/>
      <point x="336" y="394" type="line" smooth="yes"/>
      <point x="328" y="422"/>
      <point x="314" y="471"/>
      <point x="290" y="533" type="curve" smooth="yes"/>
      <point x="286" y="541"/>
      <point x="274" y="539"/>
    </contour>
  </outline>
</glyph>
<glyph name="underscore" format="1">
  <advance width="448"/>
  <unicode hex="005F"/>
  <outline>
    <contour>
      <point x="-3" y="-76" type="curve" smooth="yes"/>
      <point x="-25" y="-76"/>
      <point x="-34" y="-66"/>
      <point x="-27" y="-53" type="curve"/>
      <point x="-17" y="-39"/>
      <point x="-4" y="-31"/>
      <point x="19" y="-31" type="curve" smooth="yes"/>
      <point x="148" y="-29"/>
      <point x="243" y="-25"/>
      <point x="341" y="-16" type="curve" smooth="yes"/>
      <point x="368" y="-13"/>
      <point x="387" y="-7"/>
      <point x="386" y="-26" type="curve" smooth="yes"/>
      <point x="386" y="-33"/>
      <point x="371" y="-57"/>
      <point x="355" y="-67" type="curve" smooth="yes"/>
      <point x="343" y="-74"/>
      <point x="330" y="-74"/>
      <point x="316" y="-74" type="curve" smooth="yes"/>
      <point x="268" y="-75"/>
      <point x="43" y="-76"/>
    </contour>
  </outline>
</glyph>
<glyph name="grave" format="1">
  <advance width="488"/>
  <unicode hex="0060"/>
  <outline>
    <contour>
      <point x="304" y="511" type="curve" smooth="yes"/>
      <point x="256" y="545"/>
      <point x="200" y="595"/>
      <point x="182" y="623" type="curve" smooth="yes"/>
      <point x="176" y="633"/>
      <point x="174" y="652"/>
      <point x="188" y="659" type="curve" smooth="yes"/>
      <point x="197" y="664"/>
      <point x="258" y="673"/>
      <point x="280" y="675" type="curve" smooth="yes"/>
      <point x="296" y="676"/>
      <point x="305" y="657"/>
      <point x="306" y="649" type="curve" smooth="yes"/>
      <point x="311" y="607"/>
      <point x="330" y="558"/>
      <point x="345" y="527" type="curve" smooth="yes"/>
      <point x="348" y="521"/>
      <point x="346" y="508"/>
      <point x="337" y="503" type="curve"/>
      <point x="328" y="500"/>
      <point x="310" y="507"/>
    </contour>
  </outline>
</glyph>
<glyph name="b" format="1">
  <advance width="487"/>
  <unicode hex="0062"/>
  <outline>
    <contour>
      <point x="98" y="670" type="curve" smooth="yes"/>
      <point x="148" y="689"/>
      <point x="204" y="699"/>
      <point x="269" y="701" type="curve" smooth="yes"/>
      <point x="295" y="702"/>
      <point x="305" y="684"/>
      <point x="303" y="664" type="curve" smooth="yes"/>
      <point x="301" y="637"/>
      <point x="300" y="620"/>
      <point x="284" y="561" type="curve" smooth="yes"/>
      <point x="267" y="497"/>
      <point x="241" y="407"/>
      <point x="214" y="326" type="curve"/>
      <point x="215" y="327" type="line"/>
      <point x="210" y="313"/>
      <point x="209" y="306"/>
      <point x="213" y="304" type="curve" smooth="yes"/>
      <point x="216" y="302"/>
      <point x="225" y="298"/>
      <point x="237" y="313" type="curve" smooth="yes"/>
      <point x="259" y="343"/>
      <point x="318" y="406"/>
      <point x="351" y="426" type="curve" smooth="yes"/>
      <point x="402" y="458"/>
      <point x="464" y="431"/>
      <point x="464" y="365" type="curve" smooth="yes"/>
      <point x="464" y="296"/>
      <point x="439" y="217"/>
      <point x="407" y="160" type="curve"/>
      <point x="359" y="71"/>
      <point x="258" y="-8"/>
      <point x="184" y="-7" type="curve"/>
      <point x="75" y="-7"/>
      <point x="33" y="87"/>
      <point x="55" y="184" type="curve" smooth="yes"/>
      <point x="85" y="319"/>
      <point x="119" y="428"/>
      <point x="147" y="561" type="curve" smooth="yes"/>
      <point x="152" y="584"/>
      <point x="160" y="610"/>
      <point x="138" y="616" type="curve" smooth="yes"/>
      <point x="126" y="620"/>
      <point x="118" y="614"/>
      <point x="94" y="614" type="curve"/>
      <point x="75" y="613"/>
      <point x="70" y="628"/>
      <point x="70" y="637" type="curve" smooth="yes"/>
      <point x="70" y="651"/>
      <point x="80" y="663"/>
    </contour>
    <contour>
      <point x="279" y="284" type="curve"/>
      <point x="239" y="251"/>
      <point x="189" y="189"/>
      <point x="174" y="127" type="curve" smooth="yes"/>
      <point x="166" y="93"/>
      <point x="176" y="71"/>
      <point x="209" y="67" type="curve" smooth="yes"/>
      <point x="231" y="65"/>
      <point x="248" y="81"/>
      <point x="265" y="106" type="curve" smooth="yes"/>
      <point x="295" y="151"/>
      <point x="323" y="212"/>
      <point x="329" y="265" type="curve" smooth="yes"/>
      <point x="334" y="308"/>
      <point x="311" y="309"/>
    </contour>
  </outline>
</glyph>
<glyph name="d" format="1">
  <advance width="532"/>
  <unicode hex="0064"/>
  <outline>
    <contour>
      <point x="399" y="162" type="curve" smooth="yes"/>
      <point x="395" y="136"/>
      <point x="399" y="125"/>
      <point x="410" y="125" type="curve" smooth="yes"/>
      <point x="423" y="126"/>
      <point x="435" y="130"/>
      <point x="458" y="150" type="curve" smooth="yes"/>
      <point x="469" y="159"/>
      <point x="483" y="156"/>
      <point x="492" y="146" type="curve"/>
      <point x="497" y="138"/>
      <point x="494" y="120"/>
      <point x="485" y="109" type="curve" smooth="yes"/>
      <point x="450" y="65"/>
      <point x="373" y="-11"/>
      <point x="312" y="-11" type="curve" smooth="yes"/>
      <point x="236" y="-11"/>
      <point x="249" y="58"/>
      <point x="263" y="104" type="curve" smooth="yes"/>
      <point x="268" y="117"/>
      <point x="269" y="124"/>
      <point x="265" y="126" type="curve" smooth="yes"/>
      <point x="262" y="128"/>
      <point x="254" y="131"/>
      <point x="242" y="117" type="curve" smooth="yes"/>
      <point x="219" y="90"/>
      <point x="153" y="26"/>
      <point x="122" y="6" type="curve" smooth="yes"/>
      <point x="72" y="-27"/>
      <point x="19" y="-1"/>
      <point x="19" y="65" type="curve" smooth="yes"/>
      <point x="19" y="134"/>
      <point x="38" y="211"/>
      <point x="69" y="269" type="curve" smooth="yes"/>
      <point x="109" y="342"/>
      <point x="178" y="402"/>
      <point x="236" y="427" type="curve" smooth="yes"/>
      <point x="250" y="433"/>
      <point x="286" y="441"/>
      <point x="313" y="437" type="curve"/>
      <point x="336" y="432"/>
      <point x="341" y="423"/>
      <point x="350" y="444" type="curve" smooth="yes"/>
      <point x="368" y="484"/>
      <point x="381" y="523"/>
      <point x="386" y="561" type="curve" smooth="yes"/>
      <point x="390" y="584"/>
      <point x="391" y="610"/>
      <point x="370" y="616" type="curve" smooth="yes"/>
      <point x="358" y="620"/>
      <point x="349" y="614"/>
      <point x="326" y="614" type="curve"/>
      <point x="306" y="613"/>
      <point x="301" y="628"/>
      <point x="301" y="637" type="curve" smooth="yes"/>
      <point x="301" y="651"/>
      <point x="311" y="663"/>
      <point x="330" y="670" type="curve" smooth="yes"/>
      <point x="380" y="689"/>
      <point x="435" y="699"/>
      <point x="501" y="701" type="curve" smooth="yes"/>
      <point x="527" y="702"/>
      <point x="544" y="684"/>
      <point x="542" y="664" type="curve" smooth="yes"/>
      <point x="540" y="637"/>
      <point x="536" y="620"/>
      <point x="519" y="561" type="curve"/>
      <point x="497" y="492"/>
      <point x="463" y="391"/>
      <point x="437" y="306" type="curve" smooth="yes"/>
      <point x="423" y="262"/>
      <point x="407" y="212"/>
    </contour>
    <contour>
      <point x="203" y="145" type="curve" smooth="yes"/>
      <point x="228" y="168"/>
      <point x="244" y="188"/>
      <point x="272" y="231" type="curve" smooth="yes"/>
      <point x="290" y="258"/>
      <point x="297" y="279"/>
      <point x="309" y="318" type="curve" smooth="yes"/>
      <point x="315" y="340"/>
      <point x="314" y="351"/>
      <point x="302" y="359" type="curve" smooth="yes"/>
      <point x="294" y="365"/>
      <point x="284" y="371"/>
      <point x="270" y="372" type="curve" smooth="yes"/>
      <point x="248" y="373"/>
      <point x="226" y="358"/>
      <point x="210" y="332" type="curve" smooth="yes"/>
      <point x="183" y="288"/>
      <point x="162" y="224"/>
      <point x="158" y="171" type="curve"/>
      <point x="157" y="138"/>
      <point x="178" y="122"/>
    </contour>
  </outline>
</glyph>
<glyph name="f" format="1">
  <advance width="353"/>
  <unicode hex="0066"/>
  <outline>
    <contour>
      <point x="-104" y="-80" type="curve" smooth="yes"/>
      <point x="-98" y="-83"/>
      <point x="-94" y="-87"/>
      <point x="-97" y="-104" type="curve"/>
      <point x="-100" y="-136"/>
      <point x="-101" y="-164"/>
      <point x="-72" y="-164" type="curve" smooth="yes"/>
      <point x="-24" y="-164"/>
      <point x="21" y="-107"/>
      <point x="49" y="-22" type="curve"/>
      <point x="82" y="98"/>
      <point x="105" y="218"/>
      <point x="123" y="327" type="curve" smooth="yes"/>
      <point x="126" y="347"/>
      <point x="124" y="365"/>
      <point x="103" y="368" type="curve" smooth="yes"/>
      <point x="97" y="369"/>
      <point x="88" y="368"/>
      <point x="76" y="369" type="curve" smooth="yes"/>
      <point x="66" y="370"/>
      <point x="61" y="385"/>
      <point x="70" y="406" type="curve" smooth="yes"/>
      <point x="75" y="416"/>
      <point x="82" y="430"/>
      <point x="109" y="431" type="curve" smooth="yes"/>
      <point x="125" y="432"/>
      <point x="143" y="428"/>
      <point x="151" y="447" type="curve" smooth="yes"/>
      <point x="237" y="681"/>
      <point x="363" y="710"/>
      <point x="420" y="710" type="curve" smooth="yes"/>
      <point x="516" y="710"/>
      <point x="524" y="670"/>
      <point x="523" y="641" type="curve" smooth="yes"/>
      <point x="523" y="614"/>
      <point x="490" y="555"/>
      <point x="429" y="526" type="curve" smooth="yes"/>
      <point x="407" y="515"/>
      <point x="394" y="520"/>
      <point x="388" y="524" type="curve"/>
      <point x="383" y="526"/>
      <point x="380" y="544"/>
      <point x="386" y="555" type="curve" smooth="yes"/>
      <point x="399" y="577"/>
      <point x="408" y="635"/>
      <point x="377" y="635" type="curve" smooth="yes"/>
      <point x="326" y="635"/>
      <point x="295" y="549"/>
      <point x="276" y="460" type="curve" smooth="yes"/>
      <point x="274" y="446"/>
      <point x="270" y="434"/>
      <point x="291" y="434" type="curve"/>
      <point x="308" y="433"/>
      <point x="361" y="436"/>
      <point x="370" y="437" type="curve" smooth="yes"/>
      <point x="389" y="438"/>
      <point x="407" y="442"/>
      <point x="415" y="440" type="curve" smooth="yes"/>
      <point x="423" y="439"/>
      <point x="429" y="429"/>
      <point x="427" y="422" type="curve" smooth="yes"/>
      <point x="423" y="410"/>
      <point x="413" y="382"/>
      <point x="400" y="370" type="curve"/>
      <point x="391" y="364"/>
      <point x="383" y="354"/>
      <point x="361" y="358" type="curve"/>
      <point x="342" y="360"/>
      <point x="296" y="366"/>
      <point x="284" y="366" type="curve" smooth="yes"/>
      <point x="279" y="366"/>
      <point x="267" y="360"/>
      <point x="263" y="348" type="curve" smooth="yes"/>
      <point x="247" y="290"/>
      <point x="213" y="152"/>
      <point x="199" y="105" type="curve" smooth="yes"/>
      <point x="161" y="-16"/>
      <point x="112" y="-133"/>
      <point x="-9" y="-226" type="curve" smooth="yes"/>
      <point x="-57" y="-262"/>
      <point x="-98" y="-279"/>
      <point x="-151" y="-279" type="curve" smooth="yes"/>
      <point x="-196" y="-279"/>
      <point x="-226" y="-247"/>
      <point x="-226" y="-209" type="curve"/>
      <point x="-227" y="-173"/>
      <point x="-202" y="-125"/>
      <point x="-162" y="-94" type="curve"/>
      <point x="-142" y="-80"/>
      <point x="-114" y="-73"/>
    </contour>
  </outline>
</glyph>
<glyph name="i" format="1">
  <advance width="343"/>
  <unicode hex="0069"/>
  <outline>
    <contour>
      <point x="306" y="146" type="curve" smooth="yes"/>
      <point x="312" y="139"/>
      <point x="309" y="120"/>
      <point x="300" y="109" type="curve" smooth="yes"/>
      <point x="265" y="66"/>
      <point x="182" y="-11"/>
      <point x="121" y="-11" type="curve" smooth="yes"/>
      <point x="63" y="-11"/>
      <point x="56" y="29"/>
      <point x="61" y="67" type="curve" smooth="yes"/>
      <point x="73" y="149"/>
      <point x="97" y="184"/>
      <point x="121" y="272" type="curve" smooth="yes"/>
      <point x="127" y="294"/>
      <point x="122" y="306"/>
      <point x="110" y="306" type="curve" smooth="yes"/>
      <point x="100" y="306"/>
      <point x="90" y="306"/>
      <point x="69" y="290" type="curve" smooth="yes"/>
      <point x="53" y="279"/>
      <point x="40" y="285"/>
      <point x="31" y="290" type="curve" smooth="yes"/>
      <point x="24" y="295"/>
      <point x="25" y="318"/>
      <point x="34" y="327" type="curve" smooth="yes"/>
      <point x="94" y="387"/>
      <point x="170" y="427"/>
      <point x="209" y="439" type="curve" smooth="yes"/>
      <point x="247" y="450"/>
      <point x="295" y="435"/>
      <point x="280" y="375" type="curve" smooth="yes"/>
      <point x="262" y="301"/>
      <point x="221" y="235"/>
      <point x="208" y="163" type="curve" smooth="yes"/>
      <point x="203" y="138"/>
      <point x="208" y="123"/>
      <point x="219" y="124" type="curve" smooth="yes"/>
      <point x="232" y="125"/>
      <point x="244" y="129"/>
      <point x="267" y="148" type="curve" smooth="yes"/>
      <point x="278" y="157"/>
      <point x="298" y="157"/>
    </contour>
    <contour>
      <point x="373" y="581" type="curve" smooth="yes"/>
      <point x="370" y="540"/>
      <point x="315" y="507"/>
      <point x="270" y="507" type="curve" smooth="yes"/>
      <point x="244" y="507"/>
      <point x="228" y="524"/>
      <point x="231" y="550" type="curve" smooth="yes"/>
      <point x="235" y="598"/>
      <point x="274" y="634"/>
      <point x="322" y="634" type="curve" smooth="yes"/>
      <point x="353" y="634"/>
      <point x="375" y="614"/>
    </contour>
  </outline>
</glyph>
<glyph name="j" format="1">
  <advance width="328"/>
  <unicode hex="006A"/>
  <outline>
    <contour>
      <point x="52" y="328" type="curve" smooth="yes"/>
      <point x="112" y="389"/>
      <point x="183" y="427"/>
      <point x="221" y="439" type="curve" smooth="yes"/>
      <point x="258" y="450"/>
      <point x="307" y="435"/>
      <point x="294" y="375" type="curve"/>
      <point x="279" y="311"/>
      <point x="259" y="253"/>
      <point x="240" y="195" type="curve" smooth="yes"/>
      <point x="223" y="146"/>
      <point x="198" y="77"/>
      <point x="175" y="16" type="curve" smooth="yes"/>
      <point x="100" y="-185"/>
      <point x="-24" y="-279"/>
      <point x="-113" y="-279" type="curve" smooth="yes"/>
      <point x="-168" y="-279"/>
      <point x="-210" y="-251"/>
      <point x="-214" y="-204" type="curve" smooth="yes"/>
      <point x="-217" y="-161"/>
      <point x="-184" y="-124"/>
      <point x="-152" y="-102" type="curve" smooth="yes"/>
      <point x="-120" y="-80"/>
      <point x="-94" y="-79"/>
      <point x="-88" y="-82" type="curve"/>
      <point x="-74" y="-86"/>
      <point x="-69" y="-107"/>
      <point x="-77" y="-123" type="curve" smooth="yes"/>
      <point x="-85" y="-140"/>
      <point x="-90" y="-153"/>
      <point x="-90" y="-166" type="curve" smooth="yes"/>
      <point x="-90" y="-188"/>
      <point x="-73" y="-195"/>
      <point x="-56" y="-194" type="curve"/>
      <point x="-24" y="-190"/>
      <point x="-2" y="-171"/>
      <point x="45" y="-30" type="curve"/>
      <point x="82" y="73"/>
      <point x="109" y="165"/>
      <point x="136" y="272" type="curve" smooth="yes"/>
      <point x="141" y="294"/>
      <point x="136" y="308"/>
      <point x="125" y="308" type="curve" smooth="yes"/>
      <point x="114" y="308"/>
      <point x="109" y="309"/>
      <point x="88" y="294" type="curve" smooth="yes"/>
      <point x="72" y="282"/>
      <point x="58" y="286"/>
      <point x="50" y="291" type="curve" smooth="yes"/>
      <point x="42" y="296"/>
      <point x="44" y="320"/>
    </contour>
    <contour>
      <point x="383" y="581" type="curve" smooth="yes"/>
      <point x="380" y="540"/>
      <point x="326" y="507"/>
      <point x="281" y="507" type="curve" smooth="yes"/>
      <point x="255" y="507"/>
      <point x="239" y="524"/>
      <point x="242" y="550" type="curve"/>
      <point x="245" y="598"/>
      <point x="283" y="634"/>
      <point x="332" y="634" type="curve" smooth="yes"/>
      <point x="362" y="634"/>
      <point x="385" y="614"/>
    </contour>
  </outline>
</glyph>
<glyph name="m" format="1">
  <advance width="843"/>
  <unicode hex="006D"/>
  <outline>
    <contour>
      <point x="35" y="327" type="curve" smooth="yes"/>
      <point x="95" y="387"/>
      <point x="172" y="427"/>
      <point x="210" y="439" type="curve" smooth="yes"/>
      <point x="248" y="450"/>
      <point x="297" y="435"/>
      <point x="282" y="375" type="curve" smooth="yes"/>
      <point x="272" y="336"/>
      <point x="268" y="332"/>
      <point x="254" y="297" type="curve" smooth="yes"/>
      <point x="247" y="277"/>
      <point x="261" y="269"/>
      <point x="274" y="285" type="curve" smooth="yes"/>
      <point x="311" y="332"/>
      <point x="407" y="444"/>
      <point x="486" y="439" type="curve" smooth="yes"/>
      <point x="513" y="438"/>
      <point x="528" y="417"/>
      <point x="524" y="381" type="curve"/>
      <point x="520" y="356"/>
      <point x="513" y="324"/>
      <point x="499" y="288" type="curve"/>
      <point x="498" y="274"/>
      <point x="510" y="271"/>
      <point x="522" y="285" type="curve" smooth="yes"/>
      <point x="560" y="332"/>
      <point x="657" y="443"/>
      <point x="737" y="440" type="curve" smooth="yes"/>
      <point x="765" y="439"/>
      <point x="781" y="417"/>
      <point x="776" y="382" type="curve" smooth="yes"/>
      <point x="768" y="328"/>
      <point x="725" y="237"/>
      <point x="706" y="163" type="curve" smooth="yes"/>
      <point x="699" y="138"/>
      <point x="705" y="126"/>
      <point x="715" y="127" type="curve" smooth="yes"/>
      <point x="729" y="128"/>
      <point x="741" y="130"/>
      <point x="763" y="150" type="curve" smooth="yes"/>
      <point x="774" y="159"/>
      <point x="795" y="157"/>
      <point x="803" y="146" type="curve" smooth="yes"/>
      <point x="809" y="139"/>
      <point x="806" y="120"/>
      <point x="796" y="109" type="curve"/>
      <point x="762" y="66"/>
      <point x="673" y="-11"/>
      <point x="613" y="-11" type="curve" smooth="yes"/>
      <point x="555" y="-11"/>
      <point x="546" y="29"/>
      <point x="552" y="67" type="curve" smooth="yes"/>
      <point x="563" y="143"/>
      <point x="588" y="182"/>
      <point x="609" y="252" type="curve"/>
      <point x="623" y="295"/>
      <point x="597" y="292"/>
      <point x="567" y="268" type="curve" smooth="yes"/>
      <point x="509" y="220"/>
      <point x="468" y="138"/>
      <point x="434" y="46" type="curve" smooth="yes"/>
      <point x="422" y="15"/>
      <point x="358" y="-6"/>
      <point x="327" y="-10" type="curve" smooth="yes"/>
      <point x="303" y="-13"/>
      <point x="283" y="-3"/>
      <point x="295" y="29" type="curve" smooth="yes"/>
      <point x="320" y="99"/>
      <point x="346" y="177"/>
      <point x="366" y="252" type="curve" smooth="yes"/>
      <point x="378" y="295"/>
      <point x="354" y="293"/>
      <point x="323" y="268" type="curve" smooth="yes"/>
      <point x="258" y="214"/>
      <point x="222" y="129"/>
      <point x="187" y="46" type="curve" smooth="yes"/>
      <point x="173" y="15"/>
      <point x="111" y="-6"/>
      <point x="80" y="-10" type="curve" smooth="yes"/>
      <point x="56" y="-13"/>
      <point x="38" y="-3"/>
      <point x="51" y="29" type="curve" smooth="yes"/>
      <point x="86" y="120"/>
      <point x="108" y="197"/>
      <point x="123" y="272" type="curve" smooth="yes"/>
      <point x="127" y="294"/>
      <point x="121" y="307"/>
      <point x="109" y="307" type="curve" smooth="yes"/>
      <point x="99" y="307"/>
      <point x="88" y="304"/>
      <point x="70" y="291" type="curve"/>
      <point x="53" y="280"/>
      <point x="40" y="283"/>
      <point x="32" y="290" type="curve" smooth="yes"/>
      <point x="23" y="297"/>
      <point x="26" y="318"/>
    </contour>
  </outline>
</glyph>
<glyph name="o" format="1">
  <advance width="404"/>
  <unicode hex="006F"/>
  <outline>
    <contour>
      <point x="131" y="-8" type="curve" smooth="yes"/>
      <point x="42" y="-8"/>
      <point x="17" y="61"/>
      <point x="20" y="125" type="curve"/>
      <point x="21" y="175"/>
      <point x="46" y="248"/>
      <point x="72" y="291" type="curve" smooth="yes"/>
      <point x="132" y="394"/>
      <point x="218" y="442"/>
      <point x="270" y="442" type="curve" smooth="yes"/>
      <point x="330" y="442"/>
      <point x="374" y="402"/>
      <point x="372" y="301" type="curve"/>
      <point x="370" y="254"/>
      <point x="347" y="185"/>
      <point x="321" y="141" type="curve" smooth="yes"/>
      <point x="284" y="77"/>
      <point x="195" y="-8"/>
    </contour>
    <contour>
      <point x="215" y="341" type="curve" smooth="yes"/>
      <point x="193" y="340"/>
      <point x="155" y="288"/>
      <point x="149" y="193" type="curve" smooth="yes"/>
      <point x="144" y="117"/>
      <point x="163" y="96"/>
      <point x="183" y="97" type="curve" smooth="yes"/>
      <point x="216" y="98"/>
      <point x="237" y="153"/>
      <point x="247" y="250" type="curve" smooth="yes"/>
      <point x="252" y="304"/>
      <point x="245" y="342"/>
    </contour>
  </outline>
</glyph>
<glyph name="p" format="1">
  <advance width="540"/>
  <unicode hex="0070"/>
  <outline>
    <contour>
      <point x="401" y="430" type="curve" smooth="yes"/>
      <point x="451" y="463"/>
      <point x="504" y="434"/>
      <point x="509" y="369" type="curve" smooth="yes"/>
      <point x="514" y="300"/>
      <point x="484" y="210"/>
      <point x="454" y="153" type="curve" smooth="yes"/>
      <point x="415" y="81"/>
      <point x="351" y="31"/>
      <point x="292" y="7" type="curve" smooth="yes"/>
      <point x="277" y="1"/>
      <point x="244" y="-9"/>
      <point x="221" y="-3" type="curve" smooth="yes"/>
      <point x="201" y="2"/>
      <point x="193" y="-2"/>
      <point x="187" y="-23" type="curve" smooth="yes"/>
      <point x="176" y="-57"/>
      <point x="170" y="-79"/>
      <point x="146" y="-138" type="curve" smooth="yes"/>
      <point x="139" y="-153"/>
      <point x="129" y="-177"/>
      <point x="93" y="-208" type="curve" smooth="yes"/>
      <point x="55" y="-242"/>
      <point x="11" y="-274"/>
      <point x="-8" y="-280" type="curve"/>
      <point x="-26" y="-288"/>
      <point x="-33" y="-275"/>
      <point x="-35" y="-268" type="curve" smooth="yes"/>
      <point x="-39" y="-255"/>
      <point x="-28" y="-234"/>
      <point x="-21" y="-224" type="curve" smooth="yes"/>
      <point x="3" y="-189"/>
      <point x="26" y="-134"/>
      <point x="36" y="-104" type="curve" smooth="yes"/>
      <point x="77" y="15"/>
      <point x="108" y="133"/>
      <point x="132" y="267" type="curve" smooth="yes"/>
      <point x="136" y="289"/>
      <point x="127" y="308"/>
      <point x="115" y="308" type="curve" smooth="yes"/>
      <point x="105" y="308"/>
      <point x="93" y="306"/>
      <point x="72" y="291" type="curve" smooth="yes"/>
      <point x="56" y="279"/>
      <point x="43" y="287"/>
      <point x="35" y="292" type="curve" smooth="yes"/>
      <point x="27" y="297"/>
      <point x="29" y="321"/>
      <point x="37" y="329" type="curve" smooth="yes"/>
      <point x="98" y="390"/>
      <point x="169" y="428"/>
      <point x="208" y="440" type="curve" smooth="yes"/>
      <point x="246" y="452"/>
      <point x="295" y="438"/>
      <point x="280" y="377" type="curve" smooth="yes"/>
      <point x="276" y="361"/>
      <point x="269" y="345"/>
      <point x="264" y="330" type="curve" smooth="yes"/>
      <point x="259" y="316"/>
      <point x="259" y="310"/>
      <point x="263" y="307" type="curve"/>
      <point x="267" y="306"/>
      <point x="274" y="302"/>
      <point x="287" y="316" type="curve" smooth="yes"/>
      <point x="310" y="343"/>
      <point x="370" y="410"/>
    </contour>
    <contour>
      <point x="324" y="287" type="curve" smooth="yes"/>
      <point x="299" y="264"/>
      <point x="282" y="246"/>
      <point x="257" y="203" type="curve" smooth="yes"/>
      <point x="240" y="175"/>
      <point x="233" y="154"/>
      <point x="221" y="114" type="curve" smooth="yes"/>
      <point x="215" y="93"/>
      <point x="215" y="80"/>
      <point x="226" y="72" type="curve" smooth="yes"/>
      <point x="235" y="66"/>
      <point x="247" y="61"/>
      <point x="260" y="61" type="curve" smooth="yes"/>
      <point x="282" y="62"/>
      <point x="297" y="76"/>
      <point x="313" y="101" type="curve" smooth="yes"/>
      <point x="341" y="146"/>
      <point x="366" y="209"/>
      <point x="370" y="262" type="curve"/>
      <point x="371" y="307"/>
      <point x="349" y="311"/>
    </contour>
  </outline>
</glyph>
<glyph name="q" format="1">
  <advance width="492"/>
  <unicode hex="0071"/>
  <outline>
    <contour>
      <point x="238" y="427" type="curve" smooth="yes"/>
      <point x="253" y="434"/>
      <point x="288" y="441"/>
      <point x="315" y="437" type="curve" smooth="yes"/>
      <point x="341" y="433"/>
      <point x="359" y="426"/>
      <point x="376" y="418" type="curve"/>
      <point x="385" y="415"/>
      <point x="396" y="418"/>
      <point x="413" y="428" type="curve" smooth="yes"/>
      <point x="422" y="433"/>
      <point x="441" y="444"/>
      <point x="460" y="460" type="curve"/>
      <point x="475" y="471"/>
      <point x="493" y="480"/>
      <point x="504" y="475" type="curve" smooth="yes"/>
      <point x="512" y="471"/>
      <point x="522" y="463"/>
      <point x="513" y="448" type="curve" smooth="yes"/>
      <point x="493" y="417"/>
      <point x="472" y="373"/>
      <point x="460" y="346" type="curve" smooth="yes"/>
      <point x="407" y="231"/>
      <point x="333" y="-29"/>
      <point x="320" y="-142" type="curve" smooth="yes"/>
      <point x="317" y="-161"/>
      <point x="328" y="-170"/>
      <point x="338" y="-170" type="curve" smooth="yes"/>
      <point x="351" y="-170"/>
      <point x="367" y="-168"/>
      <point x="380" y="-161" type="curve" smooth="yes"/>
      <point x="392" y="-154"/>
      <point x="412" y="-156"/>
      <point x="420" y="-166" type="curve" smooth="yes"/>
      <point x="428" y="-176"/>
      <point x="424" y="-193"/>
      <point x="411" y="-205" type="curve" smooth="yes"/>
      <point x="365" y="-244"/>
      <point x="298" y="-278"/>
      <point x="237" y="-278" type="curve" smooth="yes"/>
      <point x="172" y="-278"/>
      <point x="177" y="-221"/>
      <point x="181" y="-171" type="curve" smooth="yes"/>
      <point x="184" y="-128"/>
      <point x="236" y="42"/>
      <point x="263" y="104" type="curve" smooth="yes"/>
      <point x="269" y="117"/>
      <point x="269" y="124"/>
      <point x="265" y="126" type="curve" smooth="yes"/>
      <point x="262" y="128"/>
      <point x="254" y="131"/>
      <point x="242" y="117" type="curve" smooth="yes"/>
      <point x="219" y="90"/>
      <point x="159" y="26"/>
      <point x="128" y="6" type="curve" smooth="yes"/>
      <point x="77" y="-27"/>
      <point x="20" y="-1"/>
      <point x="20" y="65" type="curve" smooth="yes"/>
      <point x="20" y="134"/>
      <point x="43" y="211"/>
      <point x="75" y="268" type="curve" smooth="yes"/>
      <point x="115" y="338"/>
      <point x="181" y="398"/>
    </contour>
    <contour>
      <point x="201" y="145" type="curve" smooth="yes"/>
      <point x="226" y="168"/>
      <point x="244" y="188"/>
      <point x="272" y="231" type="curve" smooth="yes"/>
      <point x="290" y="258"/>
      <point x="297" y="279"/>
      <point x="309" y="318" type="curve" smooth="yes"/>
      <point x="315" y="340"/>
      <point x="314" y="351"/>
      <point x="302" y="359" type="curve" smooth="yes"/>
      <point x="294" y="365"/>
      <point x="284" y="371"/>
      <point x="270" y="372" type="curve" smooth="yes"/>
      <point x="248" y="373"/>
      <point x="222" y="355"/>
      <point x="207" y="330" type="curve" smooth="yes"/>
      <point x="180" y="285"/>
      <point x="160" y="219"/>
      <point x="157" y="166" type="curve" smooth="yes"/>
      <point x="155" y="133"/>
      <point x="177" y="122"/>
    </contour>
  </outline>
</glyph>
<glyph name="r" format="1">
  <advance width="449"/>
  <unicode hex="0072"/>
  <outline>
    <contour>
      <point x="208" y="439" type="curve" smooth="yes"/>
      <point x="246" y="450"/>
      <point x="289" y="435"/>
      <point x="274" y="375" type="curve"/>
      <point x="263" y="336"/>
      <point x="264" y="332"/>
      <point x="250" y="297" type="curve" smooth="yes"/>
      <point x="242" y="277"/>
      <point x="261" y="269"/>
      <point x="272" y="287" type="curve" smooth="yes"/>
      <point x="305" y="342"/>
      <point x="362" y="442"/>
      <point x="416" y="442" type="curve" smooth="yes"/>
      <point x="457" y="442"/>
      <point x="467" y="409"/>
      <point x="467" y="389" type="curve" smooth="yes"/>
      <point x="467" y="341"/>
      <point x="451" y="284"/>
      <point x="429" y="255" type="curve" smooth="yes"/>
      <point x="416" y="237"/>
      <point x="402" y="227"/>
      <point x="386" y="230" type="curve" smooth="yes"/>
      <point x="376" y="231"/>
      <point x="372" y="239"/>
      <point x="375" y="254" type="curve" smooth="yes"/>
      <point x="379" y="279"/>
      <point x="369" y="289"/>
      <point x="356" y="289" type="curve" smooth="yes"/>
      <point x="338" y="289"/>
      <point x="318" y="282"/>
      <point x="285" y="239" type="curve" smooth="yes"/>
      <point x="242" y="184"/>
      <point x="221" y="127"/>
      <point x="196" y="46" type="curve" smooth="yes"/>
      <point x="186" y="14"/>
      <point x="123" y="-6"/>
      <point x="92" y="-10" type="curve" smooth="yes"/>
      <point x="68" y="-13"/>
      <point x="51" y="-3"/>
      <point x="62" y="29" type="curve" smooth="yes"/>
      <point x="95" y="120"/>
      <point x="113" y="197"/>
      <point x="123" y="272" type="curve" smooth="yes"/>
      <point x="126" y="294"/>
      <point x="121" y="304"/>
      <point x="109" y="304" type="curve" smooth="yes"/>
      <point x="99" y="304"/>
      <point x="88" y="301"/>
      <point x="70" y="289" type="curve" smooth="yes"/>
      <point x="53" y="278"/>
      <point x="40" y="283"/>
      <point x="32" y="290" type="curve" smooth="yes"/>
      <point x="23" y="297"/>
      <point x="26" y="318"/>
      <point x="35" y="327" type="curve" smooth="yes"/>
      <point x="95" y="387"/>
      <point x="169" y="427"/>
    </contour>
  </outline>
</glyph>
<glyph name="t" format="1">
  <advance width="337"/>
  <unicode hex="0074"/>
  <outline>
    <contour>
      <point x="104" y="-8" type="curve" smooth="yes"/>
      <point x="51" y="-8"/>
      <point x="40" y="45"/>
      <point x="46" y="93" type="curve" smooth="yes"/>
      <point x="56" y="168"/>
      <point x="83" y="258"/>
      <point x="110" y="337" type="curve" smooth="yes"/>
      <point x="117" y="356"/>
      <point x="116" y="364"/>
      <point x="102" y="366" type="curve" smooth="yes"/>
      <point x="96" y="367"/>
      <point x="83" y="366"/>
      <point x="72" y="367" type="curve" smooth="yes"/>
      <point x="62" y="368"/>
      <point x="55" y="380"/>
      <point x="65" y="402" type="curve" smooth="yes"/>
      <point x="70" y="412"/>
      <point x="82" y="430"/>
      <point x="109" y="431" type="curve" smooth="yes"/>
      <point x="125" y="432"/>
      <point x="144" y="434"/>
      <point x="159" y="449" type="curve" smooth="yes"/>
      <point x="193" y="481"/>
      <point x="225" y="526"/>
      <point x="242" y="558" type="curve" smooth="yes"/>
      <point x="247" y="567"/>
      <point x="264" y="580"/>
      <point x="277" y="578" type="curve" smooth="yes"/>
      <point x="287" y="577"/>
      <point x="297" y="562"/>
      <point x="295" y="556" type="curve" smooth="yes"/>
      <point x="290" y="542"/>
      <point x="267" y="473"/>
      <point x="262" y="453" type="curve" smooth="yes"/>
      <point x="259" y="444"/>
      <point x="257" y="434"/>
      <point x="275" y="434" type="curve"/>
      <point x="292" y="433"/>
      <point x="307" y="433"/>
      <point x="316" y="434" type="curve"/>
      <point x="335" y="434"/>
      <point x="343" y="437"/>
      <point x="357" y="435" type="curve" smooth="yes"/>
      <point x="365" y="434"/>
      <point x="367" y="423"/>
      <point x="365" y="416" type="curve" smooth="yes"/>
      <point x="361" y="399"/>
      <point x="353" y="381"/>
      <point x="337" y="370" type="curve" smooth="yes"/>
      <point x="328" y="363"/>
      <point x="319" y="356"/>
      <point x="298" y="359" type="curve" smooth="yes"/>
      <point x="279" y="362"/>
      <point x="269" y="364"/>
      <point x="257" y="364" type="curve" smooth="yes"/>
      <point x="248" y="364"/>
      <point x="242" y="358"/>
      <point x="236" y="346" type="curve" smooth="yes"/>
      <point x="221" y="314"/>
      <point x="198" y="242"/>
      <point x="186" y="180" type="curve" smooth="yes"/>
      <point x="172" y="104"/>
      <point x="205" y="116"/>
      <point x="211" y="118" type="curve" smooth="yes"/>
      <point x="222" y="121"/>
      <point x="241" y="131"/>
      <point x="258" y="142" type="curve"/>
      <point x="271" y="152"/>
      <point x="288" y="146"/>
      <point x="292" y="141" type="curve" smooth="yes"/>
      <point x="301" y="130"/>
      <point x="294" y="113"/>
      <point x="288" y="105" type="curve" smooth="yes"/>
      <point x="259" y="72"/>
      <point x="163" y="-8"/>
    </contour>
  </outline>
</glyph>
<glyph name="v" format="1">
  <advance width="492"/>
  <unicode hex="0076"/>
  <outline>
    <contour>
      <point x="33" y="327" type="curve" smooth="yes"/>
      <point x="93" y="387"/>
      <point x="169" y="427"/>
      <point x="208" y="439" type="curve" smooth="yes"/>
      <point x="246" y="450"/>
      <point x="291" y="435"/>
      <point x="276" y="375" type="curve" smooth="yes"/>
      <point x="255" y="293"/>
      <point x="222" y="236"/>
      <point x="209" y="155" type="curve" smooth="yes"/>
      <point x="204" y="127"/>
      <point x="209" y="94"/>
      <point x="241" y="94" type="curve" smooth="yes"/>
      <point x="290" y="94"/>
      <point x="356" y="205"/>
      <point x="369" y="261" type="curve" smooth="yes"/>
      <point x="374" y="284"/>
      <point x="367" y="320"/>
      <point x="343" y="322" type="curve" smooth="yes"/>
      <point x="333" y="323"/>
      <point x="321" y="323"/>
      <point x="317" y="330" type="curve" smooth="yes"/>
      <point x="312" y="339"/>
      <point x="313" y="350"/>
      <point x="316" y="358" type="curve"/>
      <point x="333" y="386"/>
      <point x="388" y="441"/>
      <point x="423" y="441" type="curve" smooth="yes"/>
      <point x="477" y="441"/>
      <point x="497" y="383"/>
      <point x="481" y="326" type="curve"/>
      <point x="450" y="224"/>
      <point x="385" y="139"/>
      <point x="326" y="74" type="curve" smooth="yes"/>
      <point x="301" y="46"/>
      <point x="242" y="-8"/>
      <point x="173" y="-8" type="curve" smooth="yes"/>
      <point x="100" y="-8"/>
      <point x="61" y="56"/>
      <point x="85" y="150" type="curve" smooth="yes"/>
      <point x="93" y="182"/>
      <point x="108" y="226"/>
      <point x="120" y="272" type="curve" smooth="yes"/>
      <point x="126" y="294"/>
      <point x="121" y="305"/>
      <point x="109" y="305" type="curve" smooth="yes"/>
      <point x="99" y="305"/>
      <point x="88" y="302"/>
      <point x="68" y="290" type="curve" smooth="yes"/>
      <point x="51" y="279"/>
      <point x="36" y="283"/>
      <point x="30" y="290" type="curve" smooth="yes"/>
      <point x="24" y="296"/>
      <point x="24" y="318"/>
    </contour>
  </outline>
</glyph>
<glyph name="w" format="1">
  <advance width="750"/>
  <unicode hex="0077"/>
  <outline>
    <contour>
      <point x="207" y="436" type="curve" smooth="yes"/>
      <point x="245" y="448"/>
      <point x="291" y="433"/>
      <point x="279" y="372" type="curve" smooth="yes"/>
      <point x="266" y="301"/>
      <point x="248" y="254"/>
      <point x="227" y="183" type="curve" smooth="yes"/>
      <point x="221" y="161"/>
      <point x="221" y="109"/>
      <point x="264" y="149" type="curve" smooth="yes"/>
      <point x="324" y="203"/>
      <point x="369" y="317"/>
      <point x="392" y="385" type="curve" smooth="yes"/>
      <point x="403" y="416"/>
      <point x="459" y="437"/>
      <point x="490" y="441" type="curve" smooth="yes"/>
      <point x="513" y="444"/>
      <point x="549" y="431"/>
      <point x="534" y="402" type="curve" smooth="yes"/>
      <point x="513" y="363"/>
      <point x="481" y="253"/>
      <point x="465" y="162" type="curve" smooth="yes"/>
      <point x="460" y="134"/>
      <point x="468" y="100"/>
      <point x="500" y="100" type="curve" smooth="yes"/>
      <point x="550" y="100"/>
      <point x="613" y="207"/>
      <point x="625" y="263" type="curve" smooth="yes"/>
      <point x="630" y="286"/>
      <point x="625" y="322"/>
      <point x="600" y="325" type="curve" smooth="yes"/>
      <point x="591" y="326"/>
      <point x="578" y="326"/>
      <point x="575" y="332" type="curve" smooth="yes"/>
      <point x="570" y="342"/>
      <point x="571" y="353"/>
      <point x="574" y="360" type="curve" smooth="yes"/>
      <point x="591" y="389"/>
      <point x="646" y="444"/>
      <point x="682" y="444" type="curve" smooth="yes"/>
      <point x="736" y="444"/>
      <point x="755" y="386"/>
      <point x="738" y="328" type="curve" smooth="yes"/>
      <point x="708" y="226"/>
      <point x="641" y="139"/>
      <point x="582" y="74" type="curve"/>
      <point x="558" y="46"/>
      <point x="498" y="-8"/>
      <point x="430" y="-8" type="curve" smooth="yes"/>
      <point x="359" y="-8"/>
      <point x="324" y="54"/>
      <point x="339" y="137" type="curve" smooth="yes"/>
      <point x="343" y="156"/>
      <point x="330" y="162"/>
      <point x="318" y="146" type="curve" smooth="yes"/>
      <point x="285" y="105"/>
      <point x="272" y="86"/>
      <point x="217" y="35" type="curve" smooth="yes"/>
      <point x="136" y="-40"/>
      <point x="61" y="-13"/>
      <point x="70" y="60" type="curve" smooth="yes"/>
      <point x="78" y="130"/>
      <point x="109" y="204"/>
      <point x="122" y="269" type="curve" smooth="yes"/>
      <point x="126" y="291"/>
      <point x="123" y="301"/>
      <point x="111" y="301" type="curve" smooth="yes"/>
      <point x="101" y="301"/>
      <point x="91" y="301"/>
      <point x="70" y="286" type="curve" smooth="yes"/>
      <point x="54" y="274"/>
      <point x="40" y="282"/>
      <point x="32" y="287" type="curve" smooth="yes"/>
      <point x="24" y="292"/>
      <point x="25" y="316"/>
      <point x="34" y="324" type="curve" smooth="yes"/>
      <point x="93" y="385"/>
      <point x="168" y="424"/>
    </contour>
  </outline>
</glyph>
<glyph name="x" format="1">
  <advance width="547"/>
  <unicode hex="0078"/>
  <outline>
    <contour>
      <point x="58" y="290" type="curve" smooth="yes"/>
      <point x="51" y="295"/>
      <point x="52" y="315"/>
      <point x="63" y="328" type="curve" smooth="yes"/>
      <point x="93" y="365"/>
      <point x="144" y="409"/>
      <point x="182" y="428" type="curve" smooth="yes"/>
      <point x="199" y="436"/>
      <point x="220" y="434"/>
      <point x="234" y="425" type="curve" smooth="yes"/>
      <point x="266" y="407"/>
      <point x="294" y="355"/>
      <point x="289" y="312" type="curve" smooth="yes"/>
      <point x="287" y="297"/>
      <point x="290" y="294"/>
      <point x="295" y="294" type="curve" smooth="yes"/>
      <point x="299" y="294"/>
      <point x="305" y="301"/>
      <point x="312" y="312" type="curve" smooth="yes"/>
      <point x="345" y="364"/>
      <point x="415" y="437"/>
      <point x="481" y="437" type="curve" smooth="yes"/>
      <point x="508" y="437"/>
      <point x="535" y="418"/>
      <point x="535" y="382" type="curve" smooth="yes"/>
      <point x="535" y="359"/>
      <point x="515" y="323"/>
      <point x="499" y="308" type="curve" smooth="yes"/>
      <point x="490" y="300"/>
      <point x="479" y="290"/>
      <point x="470" y="293" type="curve" smooth="yes"/>
      <point x="462" y="295"/>
      <point x="458" y="304"/>
      <point x="456" y="311" type="curve" smooth="yes"/>
      <point x="455" y="317"/>
      <point x="444" y="326"/>
      <point x="431" y="326" type="curve" smooth="yes"/>
      <point x="391" y="326"/>
      <point x="343" y="279"/>
      <point x="332" y="222" type="curve" smooth="yes"/>
      <point x="322" y="169"/>
      <point x="356" y="111"/>
      <point x="401" y="111" type="curve" smooth="yes"/>
      <point x="427" y="111"/>
      <point x="441" y="124"/>
      <point x="457" y="137" type="curve"/>
      <point x="465" y="145"/>
      <point x="480" y="150"/>
      <point x="491" y="144" type="curve" smooth="yes"/>
      <point x="497" y="141"/>
      <point x="502" y="125"/>
      <point x="496" y="116" type="curve" smooth="yes"/>
      <point x="471" y="80"/>
      <point x="428" y="37"/>
      <point x="376" y="7" type="curve" smooth="yes"/>
      <point x="340" y="-14"/>
      <point x="301" y="-9"/>
      <point x="270" y="14" type="curve" smooth="yes"/>
      <point x="251" y="29"/>
      <point x="235" y="69"/>
      <point x="243" y="116" type="curve" smooth="yes"/>
      <point x="245" y="125"/>
      <point x="242" y="138"/>
      <point x="237" y="138" type="curve" smooth="yes"/>
      <point x="230" y="138"/>
      <point x="226" y="130"/>
      <point x="221" y="120" type="curve" smooth="yes"/>
      <point x="196" y="74"/>
      <point x="121" y="-8"/>
      <point x="45" y="-8" type="curve" smooth="yes"/>
      <point x="14" y="-8"/>
      <point x="-6" y="13"/>
      <point x="-7" y="44" type="curve" smooth="yes"/>
      <point x="-8" y="73"/>
      <point x="14" y="111"/>
      <point x="40" y="133" type="curve" smooth="yes"/>
      <point x="45" y="138"/>
      <point x="55" y="142"/>
      <point x="62" y="139" type="curve" smooth="yes"/>
      <point x="69" y="136"/>
      <point x="71" y="125"/>
      <point x="72" y="118" type="curve" smooth="yes"/>
      <point x="75" y="106"/>
      <point x="82" y="93"/>
      <point x="105" y="93" type="curve" smooth="yes"/>
      <point x="144" y="93"/>
      <point x="186" y="138"/>
      <point x="193" y="203" type="curve" smooth="yes"/>
      <point x="199" y="257"/>
      <point x="170" y="304"/>
      <point x="125" y="304" type="curve" smooth="yes"/>
      <point x="116" y="304"/>
      <point x="107" y="300"/>
      <point x="96" y="291" type="curve" smooth="yes"/>
      <point x="82" y="279"/>
      <point x="62" y="287"/>
    </contour>
  </outline>
</glyph>
<glyph name="z" format="1">
  <advance width="498"/>
  <unicode hex="007A"/>
  <outline>
    <contour>
      <point x="8" y="8" type="curve" smooth="yes"/>
      <point x="8" y="64"/>
      <point x="82" y="138"/>
      <point x="126" y="150" type="curve" smooth="yes"/>
      <point x="142" y="154"/>
      <point x="157" y="161"/>
      <point x="167" y="168" type="curve" smooth="yes"/>
      <point x="230" y="214"/>
      <point x="215" y="203"/>
      <point x="281" y="265" type="curve" smooth="yes"/>
      <point x="290" y="274"/>
      <point x="284" y="284"/>
      <point x="276" y="283" type="curve" smooth="yes"/>
      <point x="251" y="281"/>
      <point x="233" y="284"/>
      <point x="213" y="295" type="curve" smooth="yes"/>
      <point x="197" y="303"/>
      <point x="191" y="306"/>
      <point x="175" y="306" type="curve" smooth="yes"/>
      <point x="155" y="306"/>
      <point x="141" y="295"/>
      <point x="114" y="260" type="curve" smooth="yes"/>
      <point x="104" y="247"/>
      <point x="88" y="244"/>
      <point x="78" y="247" type="curve" smooth="yes"/>
      <point x="62" y="252"/>
      <point x="59" y="269"/>
      <point x="62" y="279" type="curve" smooth="yes"/>
      <point x="81" y="327"/>
      <point x="148" y="434"/>
      <point x="195" y="434" type="curve" smooth="yes"/>
      <point x="217" y="434"/>
      <point x="237" y="423"/>
      <point x="253" y="412" type="curve" smooth="yes"/>
      <point x="275" y="396"/>
      <point x="300" y="380"/>
      <point x="327" y="380" type="curve" smooth="yes"/>
      <point x="383" y="380"/>
      <point x="407" y="396"/>
      <point x="430" y="418" type="curve"/>
      <point x="444" y="433"/>
      <point x="465" y="443"/>
      <point x="475" y="439" type="curve" smooth="yes"/>
      <point x="482" y="437"/>
      <point x="494" y="423"/>
      <point x="485" y="407" type="curve" smooth="yes"/>
      <point x="465" y="375"/>
      <point x="442" y="341"/>
      <point x="412" y="313" type="curve" smooth="yes"/>
      <point x="371" y="276"/>
      <point x="292" y="206"/>
      <point x="257" y="177" type="curve" smooth="yes"/>
      <point x="242" y="165"/>
      <point x="252" y="162"/>
      <point x="261" y="160" type="curve" smooth="yes"/>
      <point x="285" y="156"/>
      <point x="293" y="148"/>
      <point x="305" y="140" type="curve" smooth="yes"/>
      <point x="320" y="130"/>
      <point x="343" y="122"/>
      <point x="357" y="122" type="curve" smooth="yes"/>
      <point x="391" y="122"/>
      <point x="401" y="133"/>
      <point x="427" y="163" type="curve" smooth="yes"/>
      <point x="435" y="173"/>
      <point x="451" y="178"/>
      <point x="461" y="175" type="curve" smooth="yes"/>
      <point x="469" y="173"/>
      <point x="481" y="153"/>
      <point x="472" y="143" type="curve"/>
      <point x="460" y="114"/>
      <point x="405" y="47"/>
      <point x="370" y="19" type="curve" smooth="yes"/>
      <point x="343" y="-2"/>
      <point x="331" y="-11"/>
      <point x="309" y="-11" type="curve" smooth="yes"/>
      <point x="285" y="-11"/>
      <point x="262" y="8"/>
      <point x="246" y="22" type="curve"/>
      <point x="222" y="40"/>
      <point x="203" y="55"/>
      <point x="155" y="55" type="curve" smooth="yes"/>
      <point x="142" y="55"/>
      <point x="111" y="45"/>
      <point x="70" y="5" type="curve" smooth="yes"/>
      <point x="58" y="-6"/>
      <point x="40" y="-19"/>
      <point x="26" y="-17" type="curve"/>
      <point x="14" y="-14"/>
      <point x="8" y="-2"/>
    </contour>
  </outline>
</glyph>
<glyph name="braceleft" format="1">
  <advance width="285"/>
  <unicode hex="007B"/>
  <outline>
    <contour>
      <point x="315" y="646" type="curve" smooth="yes"/>
      <point x="338" y="646"/>
      <point x="337" y="627"/>
      <point x="337" y="620" type="curve"/>
      <point x="334" y="614"/>
      <point x="325" y="602"/>
      <point x="301" y="593" type="curve" smooth="yes"/>
      <point x="289" y="588"/>
      <point x="269" y="577"/>
      <point x="258" y="535" type="curve"/>
      <point x="247" y="487"/>
      <point x="274" y="427"/>
      <point x="259" y="364" type="curve" smooth="yes"/>
      <point x="250" y="327"/>
      <point x="218" y="320"/>
      <point x="215" y="306" type="curve"/>
      <point x="211" y="293"/>
      <point x="241" y="295"/>
      <point x="231" y="255" type="curve"/>
      <point x="221" y="207"/>
      <point x="168" y="139"/>
      <point x="152" y="86" type="curve" smooth="yes"/>
      <point x="137" y="36"/>
      <point x="152" y="28"/>
      <point x="158" y="22" type="curve" smooth="yes"/>
      <point x="170" y="10"/>
      <point x="183" y="3"/>
      <point x="181" y="-8" type="curve" smooth="yes"/>
      <point x="178" y="-20"/>
      <point x="166" y="-35"/>
      <point x="136" y="-35" type="curve" smooth="yes"/>
      <point x="74" y="-35"/>
      <point x="8" y="1"/>
      <point x="23" y="65" type="curve" smooth="yes"/>
      <point x="39" y="134"/>
      <point x="151" y="185"/>
      <point x="167" y="253" type="curve" smooth="yes"/>
      <point x="175" y="287"/>
      <point x="89" y="270"/>
      <point x="71" y="270" type="curve" smooth="yes"/>
      <point x="59" y="270"/>
      <point x="60" y="298"/>
      <point x="65" y="310" type="curve" smooth="yes"/>
      <point x="70" y="322"/>
      <point x="80" y="348"/>
      <point x="93" y="348" type="curve" smooth="yes"/>
      <point x="120" y="348"/>
      <point x="189" y="316"/>
      <point x="201" y="371" type="curve" smooth="yes"/>
      <point x="213" y="422"/>
      <point x="120" y="472"/>
      <point x="138" y="546" type="curve" smooth="yes"/>
      <point x="156" y="620"/>
      <point x="269" y="646"/>
    </contour>
  </outline>
</glyph>
<glyph name="bar" format="1">
  <advance width="275"/>
  <unicode hex="007C"/>
  <outline>
    <contour>
      <point x="122" y="-25" type="curve" smooth="yes"/>
      <point x="122" y="22"/>
      <point x="125" y="513"/>
      <point x="122" y="561" type="curve" smooth="yes"/>
      <point x="121" y="574"/>
      <point x="122" y="588"/>
      <point x="130" y="599" type="curve"/>
      <point x="138" y="615"/>
      <point x="178" y="628"/>
      <point x="186" y="628" type="curve" smooth="yes"/>
      <point x="205" y="628"/>
      <point x="199" y="608"/>
      <point x="197" y="582" type="curve" smooth="yes"/>
      <point x="188" y="486"/>
      <point x="183" y="152"/>
      <point x="181" y="-8" type="curve" smooth="yes"/>
      <point x="181" y="-30"/>
      <point x="165" y="-42"/>
      <point x="152" y="-50" type="curve" smooth="yes"/>
      <point x="130" y="-62"/>
      <point x="122" y="-48"/>
    </contour>
  </outline>
</glyph>
<glyph name="braceright" format="1">
  <advance width="285"/>
  <unicode hex="007D"/>
  <outline>
    <contour>
      <point x="41" y="-35" type="curve" smooth="yes"/>
      <point x="18" y="-35"/>
      <point x="18" y="-16"/>
      <point x="18" y="-9" type="curve"/>
      <point x="21" y="1"/>
      <point x="28" y="11"/>
      <point x="51" y="20" type="curve" smooth="yes"/>
      <point x="64" y="25"/>
      <point x="88" y="35"/>
      <point x="98" y="77" type="curve" smooth="yes"/>
      <point x="109" y="124"/>
      <point x="82" y="193"/>
      <point x="98" y="256" type="curve" smooth="yes"/>
      <point x="107" y="292"/>
      <point x="139" y="300"/>
      <point x="142" y="313" type="curve" smooth="yes"/>
      <point x="146" y="327"/>
      <point x="116" y="325"/>
      <point x="125" y="364" type="curve" smooth="yes"/>
      <point x="136" y="412"/>
      <point x="188" y="472"/>
      <point x="204" y="525" type="curve" smooth="yes"/>
      <point x="219" y="575"/>
      <point x="204" y="583"/>
      <point x="198" y="589" type="curve" smooth="yes"/>
      <point x="186" y="601"/>
      <point x="173" y="608"/>
      <point x="175" y="620" type="curve"/>
      <point x="178" y="631"/>
      <point x="190" y="646"/>
      <point x="220" y="646" type="curve" smooth="yes"/>
      <point x="282" y="646"/>
      <point x="348" y="610"/>
      <point x="333" y="546" type="curve" smooth="yes"/>
      <point x="317" y="477"/>
      <point x="206" y="434"/>
      <point x="190" y="366" type="curve" smooth="yes"/>
      <point x="182" y="332"/>
      <point x="268" y="349"/>
      <point x="286" y="349" type="curve" smooth="yes"/>
      <point x="298" y="349"/>
      <point x="297" y="322"/>
      <point x="292" y="310" type="curve" smooth="yes"/>
      <point x="287" y="298"/>
      <point x="277" y="271"/>
      <point x="263" y="271" type="curve" smooth="yes"/>
      <point x="237" y="271"/>
      <point x="168" y="303"/>
      <point x="156" y="248" type="curve"/>
      <point x="144" y="198"/>
      <point x="236" y="139"/>
      <point x="218" y="65" type="curve" smooth="yes"/>
      <point x="200" y="-8"/>
      <point x="88" y="-35"/>
    </contour>
  </outline>
</glyph>
<glyph name="asciitilde" format="1">
  <advance width="427"/>
  <unicode hex="007E"/>
  <outline>
    <contour>
      <point x="7" y="200" type="curve"/>
      <point x="-4" y="215"/>
      <point x="12" y="237"/>
      <point x="28" y="250" type="curve" smooth="yes"/>
      <point x="77" y="291"/>
      <point x="130" y="316"/>
      <point x="155" y="316" type="curve" smooth="yes"/>
      <point x="183" y="316"/>
      <point x="213" y="305"/>
      <point x="235" y="297" type="curve" smooth="yes"/>
      <point x="262" y="287"/>
      <point x="290" y="283"/>
      <point x="305" y="283" type="curve" smooth="yes"/>
      <point x="332" y="283"/>
      <point x="354" y="290"/>
      <point x="372" y="303" type="curve" smooth="yes"/>
      <point x="389" y="316"/>
      <point x="406" y="322"/>
      <point x="418" y="314" type="curve" smooth="yes"/>
      <point x="425" y="309"/>
      <point x="428" y="292"/>
      <point x="415" y="276" type="curve" smooth="yes"/>
      <point x="380" y="236"/>
      <point x="308" y="191"/>
      <point x="265" y="191" type="curve" smooth="yes"/>
      <point x="247" y="191"/>
      <point x="219" y="197"/>
      <point x="189" y="207" type="curve" smooth="yes"/>
      <point x="162" y="217"/>
      <point x="133" y="225"/>
      <point x="118" y="225" type="curve" smooth="yes"/>
      <point x="88" y="225"/>
      <point x="64" y="210"/>
      <point x="38" y="194" type="curve"/>
      <point x="26" y="189"/>
      <point x="12" y="191"/>
    </contour>
  </outline>
</glyph>
<glyph name="exclamdown" format="1">
  <advance width="314"/>
  <unicode hex="00A1"/>
  <outline>
    <contour>
      <point x="150" y="-151" type="curve" smooth="yes"/>
      <point x="146" y="-173"/>
      <point x="135" y="-180"/>
      <point x="120" y="-185" type="curve" smooth="yes"/>
      <point x="88" y="-195"/>
      <point x="21" y="-199"/>
      <point x="2" y="-198" type="curve" smooth="yes"/>
      <point x="-15" y="-197"/>
      <point x="-27" y="-185"/>
      <point x="-21" y="-163" type="curve" smooth="yes"/>
      <point x="-12" y="-134"/>
      <point x="51" y="-40"/>
      <point x="70" y="7" type="curve" smooth="yes"/>
      <point x="101" y="82"/>
      <point x="130" y="163"/>
      <point x="150" y="232" type="curve" smooth="yes"/>
      <point x="156" y="252"/>
      <point x="168" y="258"/>
      <point x="185" y="262" type="curve" smooth="yes"/>
      <point x="204" y="266"/>
      <point x="211" y="248"/>
      <point x="208" y="231" type="curve" smooth="yes"/>
      <point x="196" y="170"/>
      <point x="174" y="71"/>
      <point x="167" y="9" type="curve" smooth="yes"/>
      <point x="164" y="-10"/>
      <point x="152" y="-136"/>
    </contour>
    <contour>
      <point x="210" y="312" type="curve"/>
      <point x="177" y="311"/>
      <point x="137" y="327"/>
      <point x="137" y="363" type="curve" smooth="yes"/>
      <point x="137" y="419"/>
      <point x="183" y="437"/>
      <point x="213" y="442" type="curve"/>
      <point x="269" y="447"/>
      <point x="291" y="416"/>
      <point x="291" y="385" type="curve" smooth="yes"/>
      <point x="291" y="341"/>
      <point x="247" y="316"/>
    </contour>
  </outline>
</glyph>
<glyph name="cent" format="1">
  <advance width="395"/>
  <unicode hex="00A2"/>
  <outline>
    <contour>
      <point x="242" y="360" type="curve" smooth="yes"/>
      <point x="220" y="360"/>
      <point x="163" y="278"/>
      <point x="159" y="171" type="curve" smooth="yes"/>
      <point x="157" y="119"/>
      <point x="186" y="94"/>
      <point x="202" y="94" type="curve" smooth="yes"/>
      <point x="228" y="94"/>
      <point x="253" y="109"/>
      <point x="272" y="126" type="curve" smooth="yes"/>
      <point x="285" y="137"/>
      <point x="304" y="139"/>
      <point x="311" y="131" type="curve" smooth="yes"/>
      <point x="320" y="121"/>
      <point x="318" y="105"/>
      <point x="305" y="92" type="curve" smooth="yes"/>
      <point x="286" y="72"/>
      <point x="242" y="37"/>
      <point x="199" y="13" type="curve"/>
      <point x="178" y="0"/>
      <point x="175" y="0"/>
      <point x="165" y="-23" type="curve" smooth="yes"/>
      <point x="154" y="-50"/>
      <point x="144" y="-75"/>
      <point x="136" y="-100" type="curve" smooth="yes"/>
      <point x="130" y="-120"/>
      <point x="116" y="-126"/>
      <point x="99" y="-130" type="curve" smooth="yes"/>
      <point x="81" y="-134"/>
      <point x="74" y="-116"/>
      <point x="78" y="-99" type="curve" smooth="yes"/>
      <point x="82" y="-80"/>
      <point x="89" y="-56"/>
      <point x="96" y="-32" type="curve" smooth="yes"/>
      <point x="105" y="-3"/>
      <point x="98" y="-13"/>
      <point x="77" y="3" type="curve" smooth="yes"/>
      <point x="48" y="24"/>
      <point x="34" y="68"/>
      <point x="36" y="126" type="curve" smooth="yes"/>
      <point x="40" y="234"/>
      <point x="120" y="379"/>
      <point x="239" y="430" type="curve" smooth="yes"/>
      <point x="261" y="439"/>
      <point x="262" y="438"/>
      <point x="271" y="460" type="curve" smooth="yes"/>
      <point x="281" y="485"/>
      <point x="290" y="509"/>
      <point x="298" y="533" type="curve" smooth="yes"/>
      <point x="305" y="552"/>
      <point x="318" y="559"/>
      <point x="335" y="562" type="curve" smooth="yes"/>
      <point x="354" y="566"/>
      <point x="360" y="549"/>
      <point x="356" y="532" type="curve" smooth="yes"/>
      <point x="350" y="510"/>
      <point x="343" y="484"/>
      <point x="336" y="455" type="curve" smooth="yes"/>
      <point x="331" y="438"/>
      <point x="330" y="440"/>
      <point x="344" y="434" type="curve" smooth="yes"/>
      <point x="363" y="425"/>
      <point x="375" y="407"/>
      <point x="372" y="383" type="curve" smooth="yes"/>
      <point x="368" y="348"/>
      <point x="327" y="303"/>
      <point x="294" y="290" type="curve" smooth="yes"/>
      <point x="277" y="284"/>
      <point x="265" y="290"/>
      <point x="260" y="294" type="curve"/>
      <point x="253" y="302"/>
      <point x="262" y="319"/>
      <point x="261" y="331" type="curve"/>
      <point x="261" y="348"/>
      <point x="259" y="360"/>
    </contour>
  </outline>
</glyph>
<glyph name="sterling" format="1">
  <advance width="581"/>
  <unicode hex="00A3"/>
  <outline>
    <contour>
      <point x="226" y="273" type="curve" smooth="yes"/>
      <point x="176" y="273" type="line" smooth="yes"/>
      <point x="154" y="273"/>
      <point x="141" y="281"/>
      <point x="153" y="301" type="curve" smooth="yes"/>
      <point x="161" y="316"/>
      <point x="170" y="321"/>
      <point x="199" y="321" type="curve" smooth="yes"/>
      <point x="214" y="321"/>
      <point x="213" y="330"/>
      <point x="209" y="336" type="curve" smooth="yes"/>
      <point x="199" y="348"/>
      <point x="189" y="355"/>
      <point x="182" y="364" type="curve" smooth="yes"/>
      <point x="162" y="390"/>
      <point x="143" y="415"/>
      <point x="143" y="453" type="curve" smooth="yes"/>
      <point x="143" y="554"/>
      <point x="310" y="613"/>
      <point x="387" y="613" type="curve" smooth="yes"/>
      <point x="437" y="613"/>
      <point x="545" y="608"/>
      <point x="545" y="550" type="curve" smooth="yes"/>
      <point x="545" y="518"/>
      <point x="501" y="473"/>
      <point x="451" y="449" type="curve" smooth="yes"/>
      <point x="440" y="444"/>
      <point x="427" y="439"/>
      <point x="415" y="444" type="curve" smooth="yes"/>
      <point x="405" y="449"/>
      <point x="404" y="464"/>
      <point x="407" y="474" type="curve" smooth="yes"/>
      <point x="414" y="504"/>
      <point x="421" y="551"/>
      <point x="364" y="551" type="curve" smooth="yes"/>
      <point x="322" y="551"/>
      <point x="290" y="524"/>
      <point x="290" y="462" type="curve" smooth="yes"/>
      <point x="290" y="430"/>
      <point x="303" y="411"/>
      <point x="330" y="375" type="curve" smooth="yes"/>
      <point x="344" y="358"/>
      <point x="351" y="348"/>
      <point x="358" y="336" type="curve" smooth="yes"/>
      <point x="364" y="324"/>
      <point x="367" y="327"/>
      <point x="380" y="327" type="curve"/>
      <point x="399" y="329"/>
      <point x="403" y="331"/>
      <point x="439" y="334" type="curve" smooth="yes"/>
      <point x="467" y="337"/>
      <point x="487" y="344"/>
      <point x="486" y="324" type="curve" smooth="yes"/>
      <point x="486" y="316"/>
      <point x="472" y="292"/>
      <point x="455" y="284" type="curve"/>
      <point x="443" y="275"/>
      <point x="429" y="274"/>
      <point x="416" y="274" type="curve" smooth="yes"/>
      <point x="386" y="274" type="line"/>
      <point x="370" y="273"/>
      <point x="370" y="264"/>
      <point x="370" y="260" type="curve" smooth="yes"/>
      <point x="362" y="229"/>
      <point x="309" y="206"/>
      <point x="274" y="186" type="curve" smooth="yes"/>
      <point x="261" y="178"/>
      <point x="269" y="163"/>
      <point x="281" y="169" type="curve"/>
      <point x="294" y="173"/>
      <point x="303" y="176"/>
      <point x="329" y="176" type="curve" smooth="yes"/>
      <point x="355" y="176"/>
      <point x="367" y="167"/>
      <point x="382" y="157" type="curve" smooth="yes"/>
      <point x="391" y="150"/>
      <point x="407" y="137"/>
      <point x="429" y="137" type="curve" smooth="yes"/>
      <point x="451" y="137"/>
      <point x="472" y="149"/>
      <point x="483" y="174" type="curve" smooth="yes"/>
      <point x="487" y="182"/>
      <point x="499" y="204"/>
      <point x="521" y="204" type="curve" smooth="yes"/>
      <point x="537" y="204"/>
      <point x="542" y="187"/>
      <point x="542" y="172" type="curve" smooth="yes"/>
      <point x="542" y="122"/>
      <point x="467" y="-12"/>
      <point x="370" y="-12" type="curve" smooth="yes"/>
      <point x="346" y="-12"/>
      <point x="334" y="-8"/>
      <point x="320" y="5" type="curve" smooth="yes"/>
      <point x="288" y="33"/>
      <point x="265" y="45"/>
      <point x="230" y="45" type="curve" smooth="yes"/>
      <point x="172" y="45"/>
      <point x="119" y="35"/>
      <point x="83" y="8" type="curve" smooth="yes"/>
      <point x="69" y="-3"/>
      <point x="35" y="-16"/>
      <point x="22" y="-3" type="curve" smooth="yes"/>
      <point x="10" y="9"/>
      <point x="17" y="24"/>
      <point x="24" y="45" type="curve"/>
      <point x="42" y="87"/>
      <point x="82" y="146"/>
      <point x="120" y="156" type="curve" smooth="yes"/>
      <point x="157" y="166"/>
      <point x="172" y="173"/>
      <point x="205" y="198" type="curve" smooth="yes"/>
      <point x="221" y="209"/>
      <point x="242" y="228"/>
      <point x="242" y="254" type="curve" smooth="yes"/>
      <point x="242" y="260"/>
      <point x="242" y="273"/>
    </contour>
  </outline>
</glyph>
<glyph name="currency" format="1">
  <advance width="488"/>
  <unicode hex="00A4"/>
  <outline>
    <contour>
      <point x="122" y="438" type="curve" smooth="yes"/>
      <point x="132" y="431"/>
      <point x="143" y="423"/>
      <point x="153" y="418" type="curve" smooth="yes"/>
      <point x="157" y="415"/>
      <point x="162" y="414"/>
      <point x="169" y="418" type="curve" smooth="yes"/>
      <point x="205" y="439"/>
      <point x="245" y="448"/>
      <point x="276" y="448" type="curve" smooth="yes"/>
      <point x="319" y="448"/>
      <point x="353" y="439"/>
      <point x="381" y="421" type="curve" smooth="yes"/>
      <point x="387" y="417"/>
      <point x="391" y="418"/>
      <point x="400" y="421" type="curve" smooth="yes"/>
      <point x="409" y="425"/>
      <point x="418" y="431"/>
      <point x="430" y="438" type="curve" smooth="yes"/>
      <point x="446" y="447"/>
      <point x="465" y="444"/>
      <point x="471" y="439" type="curve"/>
      <point x="481" y="433"/>
      <point x="475" y="414"/>
      <point x="464" y="407" type="curve" smooth="yes"/>
      <point x="454" y="400"/>
      <point x="445" y="395"/>
      <point x="433" y="386" type="curve"/>
      <point x="426" y="382"/>
      <point x="425" y="376"/>
      <point x="428" y="370" type="curve" smooth="yes"/>
      <point x="432" y="361"/>
      <point x="440" y="329"/>
      <point x="438" y="303" type="curve"/>
      <point x="434" y="274"/>
      <point x="427" y="253"/>
      <point x="407" y="234" type="curve" smooth="yes"/>
      <point x="405" y="231"/>
      <point x="403" y="225"/>
      <point x="407" y="221" type="curve" smooth="yes"/>
      <point x="418" y="209"/>
      <point x="428" y="199"/>
      <point x="438" y="192" type="curve" smooth="yes"/>
      <point x="445" y="186"/>
      <point x="448" y="175"/>
      <point x="435" y="162" type="curve" smooth="yes"/>
      <point x="428" y="156"/>
      <point x="413" y="151"/>
      <point x="400" y="160" type="curve" smooth="yes"/>
      <point x="387" y="168"/>
      <point x="382" y="175"/>
      <point x="371" y="181" type="curve" smooth="yes"/>
      <point x="362" y="186"/>
      <point x="357" y="186"/>
      <point x="348" y="180" type="curve" smooth="yes"/>
      <point x="319" y="162"/>
      <point x="282" y="155"/>
      <point x="246" y="155" type="curve" smooth="yes"/>
      <point x="197" y="155"/>
      <point x="168" y="167"/>
      <point x="144" y="179" type="curve"/>
      <point x="137" y="184"/>
      <point x="132" y="182"/>
      <point x="124" y="179" type="curve" smooth="yes"/>
      <point x="114" y="175"/>
      <point x="101" y="167"/>
      <point x="88" y="160" type="curve" smooth="yes"/>
      <point x="73" y="151"/>
      <point x="57" y="158"/>
      <point x="51" y="164" type="curve" smooth="yes"/>
      <point x="42" y="173"/>
      <point x="46" y="186"/>
      <point x="57" y="194" type="curve" smooth="yes"/>
      <point x="67" y="202"/>
      <point x="81" y="210"/>
      <point x="94" y="221" type="curve" smooth="yes"/>
      <point x="101" y="226"/>
      <point x="101" y="230"/>
      <point x="98" y="236" type="curve"/>
      <point x="93" y="242"/>
      <point x="83" y="263"/>
      <point x="87" y="301" type="curve" smooth="yes"/>
      <point x="89" y="327"/>
      <point x="99" y="351"/>
      <point x="111" y="365" type="curve"/>
      <point x="116" y="373"/>
      <point x="116" y="379"/>
      <point x="112" y="383" type="curve" smooth="yes"/>
      <point x="102" y="393"/>
      <point x="92" y="398"/>
      <point x="85" y="405" type="curve"/>
      <point x="72" y="415"/>
      <point x="77" y="432"/>
      <point x="86" y="438" type="curve" smooth="yes"/>
      <point x="96" y="444"/>
      <point x="108" y="447"/>
    </contour>
    <contour>
      <point x="146" y="301" type="curve" smooth="yes"/>
      <point x="140" y="243"/>
      <point x="173" y="204"/>
      <point x="252" y="204" type="curve" smooth="yes"/>
      <point x="329" y="204"/>
      <point x="373" y="244"/>
      <point x="379" y="301" type="curve" smooth="yes"/>
      <point x="384" y="354"/>
      <point x="352" y="398"/>
      <point x="272" y="398" type="curve" smooth="yes"/>
      <point x="203" y="398"/>
      <point x="152" y="356"/>
    </contour>
  </outline>
</glyph>
<glyph name="yen" format="1">
  <advance width="564"/>
  <unicode hex="00A5"/>
  <outline>
    <contour>
      <point x="136" y="608" type="curve" smooth="yes"/>
      <point x="170" y="609"/>
      <point x="175" y="608"/>
      <point x="282" y="608" type="curve" smooth="yes"/>
      <point x="321" y="608"/>
      <point x="329" y="598"/>
      <point x="338" y="566" type="curve" smooth="yes"/>
      <point x="361" y="481"/>
      <point x="380" y="424"/>
      <point x="407" y="364" type="curve"/>
      <point x="414" y="352"/>
      <point x="425" y="348"/>
      <point x="442" y="367" type="curve" smooth="yes"/>
      <point x="460" y="387"/>
      <point x="484" y="403"/>
      <point x="503" y="417" type="curve" smooth="yes"/>
      <point x="530" y="436"/>
      <point x="558" y="460"/>
      <point x="560" y="486" type="curve"/>
      <point x="561" y="516"/>
      <point x="536" y="527"/>
      <point x="510" y="520" type="curve" smooth="yes"/>
      <point x="495" y="516"/>
      <point x="486" y="525"/>
      <point x="483" y="538" type="curve" smooth="yes"/>
      <point x="479" y="556"/>
      <point x="504" y="579"/>
      <point x="519" y="588" type="curve" smooth="yes"/>
      <point x="550" y="608"/>
      <point x="586" y="617"/>
      <point x="615" y="617" type="curve" smooth="yes"/>
      <point x="655" y="616"/>
      <point x="695" y="588"/>
      <point x="692" y="545" type="curve" smooth="yes"/>
      <point x="688" y="487"/>
      <point x="646" y="455"/>
      <point x="589" y="417" type="curve"/>
      <point x="560" y="396"/>
      <point x="519" y="374"/>
      <point x="482" y="340" type="curve" smooth="yes"/>
      <point x="472" y="332"/>
      <point x="467" y="321"/>
      <point x="485" y="322" type="curve" smooth="yes"/>
      <point x="497" y="323"/>
      <point x="511" y="327"/>
      <point x="525" y="327" type="curve"/>
      <point x="552" y="331"/>
      <point x="574" y="338"/>
      <point x="568" y="319" type="curve" smooth="yes"/>
      <point x="566" y="311"/>
      <point x="551" y="278"/>
      <point x="533" y="269" type="curve" smooth="yes"/>
      <point x="519" y="263"/>
      <point x="506" y="263"/>
      <point x="492" y="263" type="curve"/>
      <point x="484" y="262"/>
      <point x="471" y="262"/>
      <point x="455" y="262" type="curve" smooth="yes"/>
      <point x="439" y="262"/>
      <point x="431" y="263"/>
      <point x="425" y="241" type="curve" smooth="yes"/>
      <point x="416" y="205" type="line"/>
      <point x="413" y="184"/>
      <point x="413" y="186"/>
      <point x="434" y="187" type="curve" smooth="yes"/>
      <point x="451" y="188"/>
      <point x="469" y="189"/>
      <point x="487" y="193" type="curve" smooth="yes"/>
      <point x="514" y="198"/>
      <point x="536" y="203"/>
      <point x="530" y="184" type="curve"/>
      <point x="529" y="177"/>
      <point x="513" y="143"/>
      <point x="495" y="135" type="curve" smooth="yes"/>
      <point x="481" y="128"/>
      <point x="468" y="128"/>
      <point x="455" y="128" type="curve" smooth="yes"/>
      <point x="447" y="128"/>
      <point x="436" y="127"/>
      <point x="423" y="127" type="curve" smooth="yes"/>
      <point x="406" y="127"/>
      <point x="403" y="129"/>
      <point x="400" y="110" type="curve" smooth="yes"/>
      <point x="394" y="77"/>
      <point x="402" y="68"/>
      <point x="427" y="58" type="curve" smooth="yes"/>
      <point x="444" y="51"/>
      <point x="465" y="41"/>
      <point x="462" y="23" type="curve" smooth="yes"/>
      <point x="460" y="9"/>
      <point x="444" y="-4"/>
      <point x="422" y="-1" type="curve" smooth="yes"/>
      <point x="356" y="7"/>
      <point x="189" y="-2"/>
      <point x="165" y="-3" type="curve" smooth="yes"/>
      <point x="154" y="-4"/>
      <point x="139" y="8"/>
      <point x="141" y="23" type="curve" smooth="yes"/>
      <point x="144" y="41"/>
      <point x="172" y="51"/>
      <point x="185" y="53" type="curve" smooth="yes"/>
      <point x="221" y="58"/>
      <point x="243" y="78"/>
      <point x="256" y="109" type="curve" smooth="yes"/>
      <point x="258" y="114"/>
      <point x="260" y="125"/>
      <point x="234" y="125" type="curve" smooth="yes"/>
      <point x="170" y="125" type="line" smooth="yes"/>
      <point x="148" y="125"/>
      <point x="129" y="130"/>
      <point x="150" y="155" type="curve" smooth="yes"/>
      <point x="162" y="169"/>
      <point x="174" y="179"/>
      <point x="196" y="179" type="curve" smooth="yes"/>
      <point x="216" y="179"/>
      <point x="236" y="179"/>
      <point x="253" y="180" type="curve"/>
      <point x="274" y="180"/>
      <point x="274" y="182"/>
      <point x="279" y="202" type="curve" smooth="yes"/>
      <point x="282" y="215"/>
      <point x="285" y="228"/>
      <point x="287" y="240" type="curve" smooth="yes"/>
      <point x="289" y="247"/>
      <point x="291" y="260"/>
      <point x="272" y="260" type="curve" smooth="yes"/>
      <point x="208" y="260" type="line" smooth="yes"/>
      <point x="186" y="260"/>
      <point x="167" y="264"/>
      <point x="188" y="290" type="curve" smooth="yes"/>
      <point x="199" y="304"/>
      <point x="212" y="314"/>
      <point x="234" y="314" type="curve" smooth="yes"/>
      <point x="247" y="314"/>
      <point x="261" y="315"/>
      <point x="274" y="315" type="curve" smooth="yes"/>
      <point x="293" y="315"/>
      <point x="283" y="340"/>
      <point x="278" y="351" type="curve" smooth="yes"/>
      <point x="257" y="401"/>
      <point x="221" y="476"/>
      <point x="193" y="512" type="curve"/>
      <point x="172" y="541"/>
      <point x="163" y="550"/>
      <point x="130" y="555" type="curve" smooth="yes"/>
      <point x="109" y="558"/>
      <point x="100" y="572"/>
      <point x="102" y="582" type="curve" smooth="yes"/>
      <point x="105" y="602"/>
      <point x="125" y="608"/>
    </contour>
  </outline>
</glyph>
<glyph name="brokenbar" format="1">
  <advance width="309"/>
  <unicode hex="00A6"/>
  <outline>
    <contour>
      <point x="123" y="231" type="curve"/>
      <point x="131" y="247"/>
      <point x="172" y="255"/>
      <point x="179" y="255" type="curve" smooth="yes"/>
      <point x="198" y="255"/>
      <point x="193" y="235"/>
      <point x="190" y="209" type="curve" smooth="yes"/>
      <point x="185" y="153"/>
      <point x="178" y="46"/>
      <point x="178" y="-8" type="curve" smooth="yes"/>
      <point x="178" y="-30"/>
      <point x="162" y="-42"/>
      <point x="148" y="-50" type="curve" smooth="yes"/>
      <point x="126" y="-62"/>
      <point x="119" y="-48"/>
      <point x="119" y="-25" type="curve" smooth="yes"/>
      <point x="119" y="-18"/>
      <point x="115" y="152"/>
      <point x="115" y="194" type="curve"/>
      <point x="114" y="206"/>
      <point x="115" y="221"/>
    </contour>
    <contour>
      <point x="125" y="596" type="curve"/>
      <point x="133" y="612"/>
      <point x="173" y="620"/>
      <point x="181" y="620" type="curve" smooth="yes"/>
      <point x="199" y="620"/>
      <point x="194" y="600"/>
      <point x="192" y="574" type="curve" smooth="yes"/>
      <point x="187" y="519"/>
      <point x="178" y="413"/>
      <point x="178" y="359" type="curve" smooth="yes"/>
      <point x="178" y="337"/>
      <point x="162" y="325"/>
      <point x="148" y="317" type="curve" smooth="yes"/>
      <point x="126" y="305"/>
      <point x="119" y="319"/>
      <point x="119" y="342" type="curve" smooth="yes"/>
      <point x="119" y="349"/>
      <point x="117" y="516"/>
      <point x="117" y="558" type="curve"/>
      <point x="116" y="571"/>
      <point x="117" y="585"/>
    </contour>
  </outline>
</glyph>
